<svg width="63" height="63" viewBox="0 0 63 63" fill="none" xmlns="http://www.w3.org/2000/svg">
<rect width="63" height="63" rx="31.5" fill="#FA47D8"/>
<path opacity="0.4" d="M36 32.2803V38.3441C36 40.9766 34.245 42.7203 31.6237 42.7203H24.6262C22.005 42.7203 20.25 40.9766 20.25 38.3441V29.6028C20.25 26.9703 22.005 25.2266 24.6262 25.2266H28.935C30.0938 25.2266 31.2075 25.6878 32.0288 26.5091L34.7175 29.1866C35.5387 30.0078 36 31.1216 36 32.2803Z" fill="white"/>
<path d="M42.75 27.2798V33.3436C42.75 35.9648 40.995 37.7198 38.3738 37.7198H36V32.2748C36 31.1161 35.5387 30.0023 34.7175 29.1811L32.0288 26.5036C31.2075 25.6823 30.0938 25.2211 28.935 25.2211H27V24.5911C27 21.9698 28.755 20.2148 31.3763 20.2148H35.685C36.8438 20.2148 37.9575 20.6761 38.7787 21.4973L41.4675 24.1861C42.2888 25.0073 42.75 26.1211 42.75 27.2798Z" fill="white"/>
</svg>
