<svg width="63" height="63" viewBox="0 0 63 63" fill="none" xmlns="http://www.w3.org/2000/svg">
<rect width="63" height="63" rx="31.5" fill="#FA47D8"/>
<path d="M35.25 42.5C36.2165 42.5 37 41.7165 37 40.75C37 39.7835 36.2165 39 35.25 39C34.2835 39 33.5 39.7835 33.5 40.75C33.5 41.7165 34.2835 42.5 35.25 42.5Z" fill="white"/>
<path d="M27.25 42.5C28.2165 42.5 29 41.7165 29 40.75C29 39.7835 28.2165 39 27.25 39C26.2835 39 25.5 39.7835 25.5 40.75C25.5 41.7165 26.2835 42.5 27.25 42.5Z" fill="white"/>
<path opacity="0.4" d="M23.84 23.94L23.64 26.39C23.6 26.86 23.97 27.25 24.44 27.25H39.75C40.17 27.25 40.52 26.93 40.55 26.51C40.68 24.74 39.33 23.3 37.56 23.3H25.29C25.19 22.86 24.99 22.44 24.68 22.09C24.19 21.56 23.49 21.25 22.77 21.25H21C20.59 21.25 20.25 21.59 20.25 22C20.25 22.41 20.59 22.75 21 22.75H22.74C23.05 22.75 23.34 22.88 23.55 23.1C23.76 23.33 23.86 23.63 23.84 23.94Z" fill="white"/>
<path d="M39.5101 28.75H24.1701C23.7501 28.75 23.4101 29.07 23.3701 29.48L23.0101 33.83C22.8701 35.53 24.2101 37 25.9201 37H37.0401C38.5401 37 39.8601 35.77 39.9701 34.27L40.3001 29.6C40.3401 29.14 39.9801 28.75 39.5101 28.75Z" fill="white"/>
</svg>
