<svg width="165" height="47" viewBox="0 0 165 47" fill="none" xmlns="http://www.w3.org/2000/svg">
<path d="M0 23.5C0 10.5213 10.5213 0 23.5 0H141.5C154.479 0 165 10.5213 165 23.5C165 36.4787 154.479 47 141.5 47H23.5C10.5213 47 0 36.4787 0 23.5Z" fill="#1B181D" fill-opacity="0.5"/>
<path d="M67.2686 29.2373C68.7715 29.2373 70.0459 28.8594 71.1006 28.1035C72.1553 27.3477 72.8584 26.4248 73.2188 25.335L71.3291 24.8516C71.0654 25.5986 70.5645 26.2139 69.835 26.6973C69.1055 27.1807 68.2441 27.418 67.251 27.418C65.8975 27.418 64.7988 26.9609 63.9551 26.0381C63.1113 25.1152 62.6895 23.999 62.6895 22.6807C62.6895 21.3711 63.1113 20.2637 63.9551 19.3584C64.7988 18.4531 65.8975 18.0049 67.251 18.0049C68.2441 18.0049 69.1055 18.251 69.835 18.7432C70.5645 19.2354 71.0654 19.8506 71.3379 20.5977L73.2275 20.123C72.8672 19.0244 72.1553 18.0928 71.0918 17.3281C70.0283 16.5635 68.7363 16.1855 67.2246 16.1855C65.3525 16.1855 63.7969 16.8096 62.5488 18.0488C61.3008 19.2881 60.6768 20.8438 60.6768 22.707C60.6768 24.5703 61.3008 26.126 62.5576 27.3828C63.8145 28.6396 65.3789 29.2637 67.251 29.2637L67.2686 29.2373ZM79.0547 29.2373C80.4697 29.2373 81.5596 28.7012 82.3154 27.6289V29H84.1875V19.9473H82.3154V21.3184C81.5596 20.2461 80.4697 19.71 79.0547 19.71C77.7715 19.71 76.6992 20.167 75.8379 21.0723C74.9766 21.9775 74.5459 23.1113 74.5459 24.4648C74.5459 25.8271 74.9766 26.9609 75.8379 27.8662C76.6992 28.7715 77.7715 29.2285 79.0547 29.2285V29.2373ZM79.3623 27.5322C78.501 27.5322 77.7891 27.2422 77.2354 26.6621C76.6816 26.082 76.4004 25.3438 76.4004 24.4561C76.4004 23.5684 76.6729 22.8389 77.2266 22.2676C77.7803 21.6963 78.4834 21.4062 79.3447 21.4062C80.1797 21.4062 80.8828 21.6963 81.4629 22.2764C82.043 22.8564 82.333 23.5859 82.333 24.4648C82.333 25.3525 82.043 26.0908 81.4629 26.6709C80.8828 27.251 80.1709 27.541 79.3359 27.541L79.3623 27.5322ZM90.1377 29.2373C91.2363 29.2373 92.1416 28.9648 92.8535 28.4199C93.5654 27.875 93.9258 27.1982 93.9258 26.3809C93.9258 25.6865 93.7148 25.1592 93.293 24.79C92.8711 24.4209 92.291 24.1309 91.5439 23.9111L89.1357 23.2168C88.4854 23.0146 88.1602 22.7158 88.1602 22.3203C88.1602 22.0303 88.3096 21.7754 88.6084 21.5557C88.9072 21.3359 89.2852 21.2217 89.7422 21.2217C90.2783 21.2217 90.7441 21.3447 91.1396 21.5908C91.5352 21.8369 91.8252 22.1357 92.0098 22.4961L93.6797 22.0039C93.4072 21.3271 92.9238 20.7734 92.2295 20.3516C91.5352 19.9297 90.709 19.7188 89.7598 19.7188C88.8018 19.7188 87.9844 19.9736 87.3076 20.4922C86.6309 21.0107 86.2969 21.626 86.2969 22.3467C86.2969 23.4629 87.0176 24.2363 88.459 24.667L90.8936 25.3877C91.3066 25.5107 91.6055 25.6514 91.79 25.8096C91.9746 25.9678 92.0625 26.1875 92.0625 26.46C92.0625 26.8027 91.8867 27.0928 91.5352 27.3301C91.1836 27.5674 90.7266 27.6904 90.1641 27.6904C89.54 27.6904 88.9863 27.5322 88.5117 27.207C88.0371 26.8818 87.7119 26.4775 87.5449 25.9854L85.8311 26.4863C86.0684 27.251 86.5781 27.9014 87.3691 28.4375C88.1602 28.9736 89.0654 29.2461 90.0938 29.2461L90.1377 29.2373ZM100.966 19.71C99.6387 19.71 98.6016 20.2373 97.8545 21.292V15.8604H95.9648V29H97.8545V24.5C97.8545 23.5859 98.0918 22.8564 98.5664 22.3027C99.041 21.749 99.6738 21.4766 100.465 21.4766C101.194 21.4766 101.748 21.7051 102.126 22.1533C102.504 22.6016 102.688 23.2256 102.688 24.0254V28.9912H104.561V23.6826C104.561 22.4434 104.253 21.4678 103.629 20.7559C103.005 20.0439 102.117 19.6924 100.966 19.6924V19.71ZM110.941 29.2373C112.356 29.2373 113.446 28.7012 114.202 27.6289V29H116.074V19.9473H114.202V21.3184C113.446 20.2461 112.356 19.71 110.941 19.71C109.658 19.71 108.586 20.167 107.725 21.0723C106.863 21.9775 106.433 23.1113 106.433 24.4648C106.433 25.8271 106.863 26.9609 107.725 27.8662C108.586 28.7715 109.658 29.2285 110.941 29.2285V29.2373ZM111.249 27.5322C110.388 27.5322 109.676 27.2422 109.122 26.6621C108.568 26.082 108.287 25.3438 108.287 24.4561C108.287 23.5684 108.56 22.8389 109.113 22.2676C109.667 21.6963 110.37 21.4062 111.231 21.4062C112.066 21.4062 112.77 21.6963 113.35 22.2764C113.93 22.8564 114.22 23.5859 114.22 24.4648C114.22 25.3525 113.93 26.0908 113.35 26.6709C112.77 27.251 112.058 27.541 111.223 27.541L111.249 27.5322ZM123.712 19.71C122.306 19.71 121.225 20.2461 120.469 21.3184V19.9473H118.579V32.7793H120.469V27.6289C121.225 28.7012 122.306 29.2373 123.712 29.2373C124.995 29.2373 126.067 28.7803 126.929 27.875C127.79 26.9697 128.221 25.8359 128.221 24.4736C128.221 23.1113 127.79 21.9775 126.929 21.0723C126.067 20.167 124.995 19.7188 123.712 19.7188V19.71ZM123.404 27.5498C122.569 27.5498 121.857 27.2598 121.277 26.6797C120.697 26.0996 120.407 25.3613 120.407 24.4736C120.407 23.5947 120.697 22.8652 121.277 22.2852C121.857 21.7051 122.561 21.415 123.396 21.415C124.266 21.415 124.978 21.7051 125.531 22.2764C126.085 22.8477 126.357 23.5771 126.357 24.4648C126.357 25.3525 126.076 26.0908 125.522 26.6709C124.969 27.251 124.257 27.541 123.396 27.541L123.404 27.5498ZM135.296 19.71C133.89 19.71 132.809 20.2461 132.053 21.3184V19.9473H130.163V32.7793H132.053V27.6289C132.809 28.7012 133.89 29.2373 135.296 29.2373C136.579 29.2373 137.651 28.7803 138.513 27.875C139.374 26.9697 139.805 25.8359 139.805 24.4736C139.805 23.1113 139.374 21.9775 138.513 21.0723C137.651 20.167 136.579 19.7188 135.296 19.7188V19.71ZM134.988 27.5498C134.153 27.5498 133.441 27.2598 132.861 26.6797C132.281 26.0996 131.991 25.3613 131.991 24.4736C131.991 23.5947 132.281 22.8652 132.861 22.2852C133.441 21.7051 134.145 21.415 134.979 21.415C135.85 21.415 136.562 21.7051 137.115 22.2764C137.669 22.8477 137.941 23.5771 137.941 24.4648C137.941 25.3525 137.66 26.0908 137.106 26.6709C136.553 27.251 135.841 27.541 134.979 27.541L134.988 27.5498Z" fill="white"/>
<path fill-rule="evenodd" clip-rule="evenodd" d="M44.55 12.4125C43.2375 12 42.0375 12 39.6375 12H32.3625C29.9625 12 28.7625 12 27.45 12.4125C26.7532 12.6674 26.1205 13.0712 25.5958 13.5958C25.0712 14.1205 24.6674 14.7532 24.4125 15.45C24 16.7475 24 17.955 24 20.3625V27.6337C24 30.0375 24 31.2375 24.4125 32.55C24.6674 33.2468 25.0712 33.8795 25.5958 34.4042C26.1205 34.9288 26.7532 35.3326 27.45 35.5875C28.7475 36 29.955 36 32.3625 36H39.6375C42.0375 36 43.2375 36 44.55 35.58C45.2468 35.3251 45.8795 34.9213 46.4042 34.3967C46.9288 33.872 47.3326 33.2393 47.5875 32.5425C48 31.245 48 30.0375 48 27.63V20.3663C48 17.9625 48 16.7625 47.5875 15.45C47.3326 14.7532 46.9288 14.1205 46.4042 13.5958C45.8795 13.0712 45.2468 12.6674 44.55 12.4125ZM40.6013 20.9258C40.425 21.1133 40.1138 21.1133 39.9263 20.9258L39.9338 20.9333C39.1425 20.2208 37.9313 19.6996 36.6713 19.6996C35.6813 19.6996 34.695 20.0596 34.695 20.9671C34.695 21.8306 35.5995 22.1617 36.7024 22.5656C36.7921 22.5984 36.8831 22.6317 36.975 22.6658C39.1125 23.4046 40.875 24.3121 40.875 26.4646C40.875 28.8008 39.105 30.4021 36.1995 30.5971L35.937 31.8683C35.9144 31.9808 35.8535 32.082 35.7645 32.1545C35.6756 32.227 35.5643 32.2663 35.4495 32.2658L33.6308 32.2508C33.3195 32.2471 33.0908 31.9583 33.1545 31.6471L33.432 30.3083C32.295 29.9971 31.2975 29.4346 30.51 28.6583C30.4148 28.5627 30.3613 28.4333 30.3613 28.2983C30.3613 28.1634 30.4148 28.0339 30.51 27.9383L31.5225 26.9258C31.5678 26.8805 31.6216 26.8445 31.6808 26.8199C31.74 26.7954 31.8034 26.7828 31.8675 26.7828C31.9316 26.7828 31.9951 26.7954 32.0543 26.8199C32.1135 26.8445 32.1673 26.8805 32.2125 26.9258C33.1875 27.9046 34.4475 28.3058 35.6475 28.3058C36.9675 28.3058 37.86 27.7583 37.86 26.8246C37.86 26.0042 37.1276 25.7293 35.7376 25.2076C35.59 25.1522 35.4349 25.094 35.2725 25.0321C33.4838 24.3908 31.7925 23.4571 31.7925 21.2821C31.7925 18.7696 33.84 17.5433 36.255 17.4196L36.5175 16.1521C36.5399 16.0408 36.5997 15.9407 36.6871 15.8683C36.7745 15.7959 36.8841 15.7558 36.9975 15.7546H38.8125C39.1238 15.7546 39.3563 16.0471 39.2925 16.3583L38.9963 17.7833C39.9231 18.0922 40.7796 18.5817 41.5163 19.2233C41.7263 19.4258 41.7375 19.7633 41.5388 19.9508L40.6013 20.9258Z" fill="white"/>
</svg>
