<svg width="296" height="47" viewBox="0 0 296 47" fill="none" xmlns="http://www.w3.org/2000/svg">
<path d="M0 23.5C0 10.5213 10.5213 0 23.5 0H272.5C285.479 0 296 10.5213 296 23.5V23.5C296 36.4787 285.479 47 272.5 47H23.5C10.5213 47 0 36.4787 0 23.5V23.5Z" fill="#1B181D" fill-opacity="0.5"/>
<path d="M123.269 29.2373C124.771 29.2373 126.046 28.8594 127.101 28.1035C128.155 27.3477 128.858 26.4248 129.219 25.335L127.329 24.8516C127.065 25.5986 126.564 26.2139 125.835 26.6973C125.105 27.1807 124.244 27.418 123.251 27.418C121.897 27.418 120.799 26.9609 119.955 26.0381C119.111 25.1152 118.689 23.999 118.689 22.6807C118.689 21.3711 119.111 20.2637 119.955 19.3584C120.799 18.4531 121.897 18.0049 123.251 18.0049C124.244 18.0049 125.105 18.251 125.835 18.7432C126.564 19.2354 127.065 19.8506 127.338 20.5977L129.228 20.123C128.867 19.0244 128.155 18.0928 127.092 17.3281C126.028 16.5635 124.736 16.1855 123.225 16.1855C121.353 16.1855 119.797 16.8096 118.549 18.0488C117.301 19.2881 116.677 20.8438 116.677 22.707C116.677 24.5703 117.301 26.126 118.558 27.3828C119.814 28.6396 121.379 29.2637 123.251 29.2637L123.269 29.2373ZM133.156 21.3887V19.9473H131.267V29H133.156V24.9131C133.156 23.6299 133.42 22.7246 133.956 22.1885C134.492 21.6523 135.257 21.459 136.25 21.6084V19.8506C135.529 19.7539 134.896 19.8506 134.36 20.1318C133.824 20.4131 133.42 20.835 133.147 21.3975L133.156 21.3887ZM144.872 19.9473L142.068 26.6797L139.045 19.9473H136.988L141.128 28.7979L139.44 32.7793H141.383L146.894 19.9473H144.872ZM153.345 19.71C151.938 19.71 150.857 20.2461 150.102 21.3184V19.9473H148.212V32.7793H150.102V27.6289C150.857 28.7012 151.938 29.2373 153.345 29.2373C154.628 29.2373 155.7 28.7803 156.562 27.875C157.423 26.9697 157.854 25.8359 157.854 24.4736C157.854 23.1113 157.423 21.9775 156.562 21.0723C155.7 20.167 154.628 19.7188 153.345 19.7188V19.71ZM153.037 27.5498C152.202 27.5498 151.49 27.2598 150.91 26.6797C150.33 26.0996 150.04 25.3613 150.04 24.4736C150.04 23.5947 150.33 22.8652 150.91 22.2852C151.49 21.7051 152.193 21.415 153.028 21.415C153.898 21.415 154.61 21.7051 155.164 22.2764C155.718 22.8477 155.99 23.5771 155.99 24.4648C155.99 25.3525 155.709 26.0908 155.155 26.6709C154.602 27.251 153.89 27.541 153.028 27.541L153.037 27.5498ZM164.595 27.1631C164.199 27.3564 163.804 27.4531 163.408 27.4531C162.538 27.4531 162.107 26.9873 162.107 26.0645V21.6172H164.99V19.9473H162.107V16.9238H160.235V19.9473H158.583V21.6172H160.235V26.0645C160.235 27.0225 160.473 27.7783 160.938 28.3232C161.404 28.8682 162.116 29.1406 163.065 29.1406C163.707 29.1406 164.375 29 165.061 28.71L164.595 27.1631ZM170.65 29.2373C172.03 29.2373 173.173 28.7803 174.087 27.875C175.001 26.9697 175.458 25.8359 175.458 24.4736C175.458 23.1113 175.001 21.9775 174.087 21.0723C173.173 20.167 172.021 19.7188 170.642 19.7188C169.262 19.7188 168.119 20.1758 167.205 21.0811C166.291 21.9863 165.834 23.1201 165.834 24.4736C165.834 25.8359 166.291 26.9697 167.205 27.875C168.119 28.7803 169.262 29.2373 170.642 29.2373H170.65ZM170.642 27.5234C169.78 27.5234 169.068 27.2334 168.515 26.6533C167.961 26.0732 167.68 25.3525 167.68 24.4912C167.68 23.6123 167.961 22.8828 168.515 22.3027C169.068 21.7227 169.78 21.4326 170.642 21.4326C171.503 21.4326 172.215 21.7227 172.777 22.3027C173.34 22.8828 173.621 23.6123 173.621 24.4912C173.621 25.3525 173.34 26.0732 172.777 26.6533C172.215 27.2334 171.503 27.5234 170.642 27.5234ZM187.692 16.3965H181.962V29H183.913V24.8428H187.596C188.932 24.8428 189.995 24.4209 190.777 23.5684C191.56 22.7158 191.955 21.7402 191.955 20.6328C191.955 19.5254 191.568 18.541 190.795 17.6797C190.021 16.8184 188.984 16.3877 187.692 16.3877V16.3965ZM187.561 23.0674H183.913V18.1543H187.657C188.352 18.1543 188.923 18.4004 189.38 18.8926C189.837 19.3848 190.065 19.9648 190.065 20.624C190.065 21.2832 189.837 21.8545 189.38 22.3379C188.923 22.8213 188.316 23.0674 187.561 23.0674ZM197.193 29.2373C198.608 29.2373 199.698 28.7012 200.454 27.6289V29H202.326V19.9473H200.454V21.3184C199.698 20.2461 198.608 19.71 197.193 19.71C195.91 19.71 194.838 20.167 193.977 21.0723C193.115 21.9775 192.685 23.1113 192.685 24.4648C192.685 25.8271 193.115 26.9609 193.977 27.8662C194.838 28.7715 195.91 29.2285 197.193 29.2285V29.2373ZM197.501 27.5322C196.64 27.5322 195.928 27.2422 195.374 26.6621C194.82 26.082 194.539 25.3438 194.539 24.4561C194.539 23.5684 194.812 22.8389 195.365 22.2676C195.919 21.6963 196.622 21.4062 197.483 21.4062C198.318 21.4062 199.021 21.6963 199.602 22.2764C200.182 22.8564 200.472 23.5859 200.472 24.4648C200.472 25.3525 200.182 26.0908 199.602 26.6709C199.021 27.251 198.31 27.541 197.475 27.541L197.501 27.5322ZM211.511 19.9473L208.707 26.6797L205.684 19.9473H203.627L207.767 28.7979L206.079 32.7793H208.021L213.532 19.9473H211.511ZM225.547 19.71C224.114 19.71 223.06 20.2285 222.374 21.2568C221.838 20.2285 220.906 19.71 219.588 19.71C218.375 19.71 217.426 20.2109 216.74 21.2041V19.9473H214.851V29H216.74V24.4297C216.74 23.5156 216.951 22.7949 217.364 22.2676C217.777 21.7402 218.349 21.4766 219.069 21.4766C219.711 21.4766 220.194 21.6963 220.528 22.127C220.862 22.5576 221.029 23.1641 221.029 23.9463V29H222.901V24.2627C222.901 23.4102 223.104 22.7334 223.508 22.2324C223.912 21.7314 224.466 21.4766 225.16 21.4766C225.837 21.4766 226.347 21.6963 226.689 22.127C227.032 22.5576 227.199 23.1641 227.199 23.9463V29H229.089V23.5859C229.089 22.373 228.764 21.4238 228.122 20.7383C227.48 20.0527 226.619 19.71 225.538 19.71H225.547ZM235.786 29.2373C236.867 29.2373 237.781 28.9824 238.528 28.4814C239.275 27.9805 239.812 27.374 240.137 26.6621L238.414 26.1523C237.948 27.1279 237.087 27.6113 235.839 27.6113C234.951 27.6113 234.239 27.374 233.712 26.9082C233.185 26.4424 232.895 25.8271 232.833 25.0625H240.189C240.233 24.79 240.251 24.5352 240.251 24.3066C240.251 22.9883 239.838 21.8984 239.012 21.0283C238.186 20.1582 237.061 19.7275 235.628 19.7275C234.248 19.7275 233.123 20.1846 232.262 21.0898C231.4 21.9951 230.97 23.1289 230.97 24.4912C230.97 25.9062 231.418 27.0576 232.314 27.9365C233.211 28.8154 234.371 29.2549 235.804 29.2549L235.786 29.2373ZM232.833 23.8145C232.903 23.1289 233.193 22.5488 233.703 22.0742C234.213 21.5996 234.854 21.3623 235.637 21.3623C236.445 21.3623 237.096 21.5908 237.579 22.0479C238.062 22.5049 238.335 23.0938 238.396 23.8145H232.833ZM247.177 19.71C245.85 19.71 244.812 20.2373 244.065 21.292V19.9473H242.176V29H244.065V24.5C244.065 23.5859 244.303 22.8564 244.777 22.3027C245.252 21.749 245.885 21.4766 246.676 21.4766C247.405 21.4766 247.959 21.7051 248.337 22.1533C248.715 22.6016 248.899 23.2256 248.899 24.0254V28.9912H250.771V23.6826C250.771 22.4434 250.464 21.4678 249.84 20.7559C249.216 20.0439 248.328 19.6924 247.177 19.6924V19.71ZM258.286 27.1631C257.891 27.3564 257.495 27.4531 257.1 27.4531C256.229 27.4531 255.799 26.9873 255.799 26.0645V21.6172H258.682V19.9473H255.799V16.9238H253.927V19.9473H252.274V21.6172H253.927V26.0645C253.927 27.0225 254.164 27.7783 254.63 28.3232C255.096 28.8682 255.808 29.1406 256.757 29.1406C257.398 29.1406 258.066 29 258.752 28.71L258.286 27.1631ZM263.964 29.2373C265.062 29.2373 265.968 28.9648 266.68 28.4199C267.392 27.875 267.752 27.1982 267.752 26.3809C267.752 25.6865 267.541 25.1592 267.119 24.79C266.697 24.4209 266.117 24.1309 265.37 23.9111L262.962 23.2168C262.312 23.0146 261.986 22.7158 261.986 22.3203C261.986 22.0303 262.136 21.7754 262.435 21.5557C262.733 21.3359 263.111 21.2217 263.568 21.2217C264.104 21.2217 264.57 21.3447 264.966 21.5908C265.361 21.8369 265.651 22.1357 265.836 22.4961L267.506 22.0039C267.233 21.3271 266.75 20.7734 266.056 20.3516C265.361 19.9297 264.535 19.7188 263.586 19.7188C262.628 19.7188 261.811 19.9736 261.134 20.4922C260.457 21.0107 260.123 21.626 260.123 22.3467C260.123 23.4629 260.844 24.2363 262.285 24.667L264.72 25.3877C265.133 25.5107 265.432 25.6514 265.616 25.8096C265.801 25.9678 265.889 26.1875 265.889 26.46C265.889 26.8027 265.713 27.0928 265.361 27.3301C265.01 27.5674 264.553 27.6904 263.99 27.6904C263.366 27.6904 262.812 27.5322 262.338 27.207C261.863 26.8818 261.538 26.4775 261.371 25.9854L259.657 26.4863C259.895 27.251 260.404 27.9014 261.195 28.4375C261.986 28.9736 262.892 29.2461 263.92 29.2461L263.964 29.2373Z" fill="white"/>
<path d="M38.9693 24.75H38.1993H33.5293V27.58H34.8393H38.9693C39.9193 27.58 40.6993 26.94 40.6993 26.16C40.6993 25.38 39.9193 24.75 38.9693 24.75Z" fill="white"/>
<path d="M36 14C30.48 14 26 18.48 26 24C26 29.52 30.48 34 36 34C41.52 34 46 29.52 46 24C46 18.48 41.52 14 36 14ZM38.97 29.08H37.32V30.5C37.32 30.91 36.98 31.25 36.57 31.25C36.16 31.25 35.82 30.91 35.82 30.5V29.08H34.84H34.61V30.5C34.61 30.91 34.27 31.25 33.86 31.25C33.45 31.25 33.11 30.91 33.11 30.5V29.08H32.78H31.05C30.64 29.08 30.3 28.74 30.3 28.33C30.3 27.92 30.64 27.58 31.05 27.58H32.03V24V20.42H31.05C30.64 20.42 30.3 20.08 30.3 19.67C30.3 19.26 30.64 18.92 31.05 18.92H32.78H33.11V17.5C33.11 17.09 33.45 16.75 33.86 16.75C34.27 16.75 34.61 17.09 34.61 17.5V18.92H34.84H35.82V17.5C35.82 17.09 36.16 16.75 36.57 16.75C36.98 16.75 37.32 17.09 37.32 17.5V18.92H38.2C39.75 18.92 41.12 20.28 41.12 21.84C41.12 22.51 40.88 23.12 40.5 23.62C41.51 24.11 42.2 25.07 42.2 26.18C42.2 27.77 40.75 29.08 38.97 29.08Z" fill="white"/>
<path d="M39.6193 21.8302C39.6193 21.1702 38.9993 20.4102 38.1993 20.4102H34.8393H33.5293V23.2402H38.1993C38.9793 23.2502 39.6193 22.6102 39.6193 21.8302Z" fill="white"/>
<path d="M100.681 21.1868L98.0413 15.8901C97.5243 14.8462 96.1493 14 94.9833 14H85.0172C83.8512 14 82.4761 14.8462 81.9591 15.8901L79.3191 21.1868C78.6811 22.4615 79.0331 24.2747 80.0781 25.2308L87.7012 32.1429C88.9662 33.2857 91.0232 33.2857 92.2882 32.1429L99.9113 25.2308C100.967 24.2747 101.319 22.4505 100.681 21.1868ZM94.4003 20.4725H90.8252V26.2418C90.8252 26.6923 90.4512 27.0659 90.0002 27.0659C89.5492 27.0659 89.1752 26.6923 89.1752 26.2418V20.4725H85.6002C85.1492 20.4725 84.7752 20.0989 84.7752 19.6484C84.7752 19.1978 85.1492 18.8242 85.6002 18.8242H94.4003C94.8513 18.8242 95.2253 19.1978 95.2253 19.6484C95.2253 20.0989 94.8513 20.4725 94.4003 20.4725Z" fill="white"/>
<path d="M59.2193 25.7739L60.8293 26.4939C61.8593 26.9539 63.0393 26.9539 64.0793 26.4939L65.6893 25.7739C67.1293 25.1339 68.4593 26.8739 67.4593 28.0939L63.9993 32.3239C63.1493 33.3639 61.7593 33.3639 60.8993 32.3239L57.4493 28.0939C56.4393 26.8739 57.7693 25.1339 59.2193 25.7739Z" fill="white"/>
<path d="M59.0185 23.0156C58.7185 23.2356 58.7585 23.6956 59.0985 23.8656L61.4485 25.0356C61.9985 25.3156 62.8885 25.3156 63.4285 25.0356L65.7785 23.8656C66.1085 23.6956 66.1485 23.2456 65.8585 23.0156L62.7485 20.6756C62.5685 20.5456 62.3285 20.5456 62.1485 20.6756L59.0185 23.0156Z" fill="white"/>
<path d="M68.3295 19.5849L64.1595 14.3849C64.0795 14.2849 63.9895 14.1949 63.8995 14.1049C63.6395 13.8549 63.2695 14.0849 63.2695 14.4449V18.7449C63.2695 18.9049 63.3395 19.0549 63.4695 19.1449L67.6195 22.2649L67.7995 22.3949C67.9795 22.5249 68.2295 22.5249 68.3795 22.3649C69.0795 21.6049 69.0695 20.5049 68.3295 19.5849Z" fill="white"/>
<path d="M56.5591 19.6746L60.7091 14.3946C60.7891 14.2946 60.8691 14.2046 60.9591 14.1146C61.2191 13.8646 61.5891 14.0846 61.5891 14.4546V18.8246C61.5891 18.9846 61.5191 19.1246 61.3891 19.2246L57.2591 22.3946L57.0891 22.5246C56.9091 22.6546 56.6591 22.6546 56.4991 22.4846C55.8191 21.7146 55.8291 20.6146 56.5591 19.6746Z" fill="white"/>
</svg>
