<svg width="1437" height="441" viewBox="0 0 1437 441" fill="none" xmlns="http://www.w3.org/2000/svg">
<rect x="1" width="1436" height="441" rx="56" fill="url(#paint0_linear_131_3196)"/>
<path d="M816 62.1423V82.0175H809.459V78.4013C808.907 79.7632 808.067 80.8006 806.937 81.5086C805.81 82.2141 804.413 82.5706 802.759 82.5706C801.279 82.5706 799.989 82.1994 798.886 81.4545C797.785 80.7097 796.934 79.687 796.335 78.3891C795.741 77.0911 795.44 75.626 795.44 73.9838C795.42 72.2925 795.738 70.7733 796.388 69.4286C797.038 68.084 797.957 67.0367 799.138 66.2821C800.322 65.5298 801.672 65.1512 803.186 65.1512C806.302 65.1512 808.392 66.55 809.459 69.3475V62.1423H816ZM808.482 76.4028C809.151 75.7317 809.481 74.859 809.481 73.7945C809.481 72.767 809.159 71.9263 808.509 71.2822C807.861 70.6406 806.971 70.3161 805.856 70.3161C804.752 70.3161 803.872 70.643 803.212 71.2994C802.553 71.9533 802.225 72.8014 802.225 73.8511C802.225 74.9008 802.553 75.7562 803.212 76.4175C803.872 77.0813 804.743 77.4107 805.829 77.4107C806.93 77.4082 807.815 77.0714 808.482 76.4028ZM794.268 66.1714V72.1352C793.589 71.6731 792.712 71.4444 791.625 71.4444C790.202 71.4444 789.105 71.8894 788.341 72.7817C787.575 73.6741 787.194 75.0606 787.194 76.9387V82.0175H780.654V65.8691H787.061V71.0019C787.415 69.1263 787.992 67.7423 788.785 66.8475C789.573 65.9551 790.594 65.5102 791.839 65.5102C792.782 65.5102 793.589 65.7314 794.268 66.1714ZM762.594 81.4103C761.054 80.6384 759.88 79.5813 759.07 78.2366C758.263 76.892 757.855 75.3924 757.855 73.7355C757.855 72.0787 758.258 70.6012 759.07 69.3033C759.883 68.0053 761.049 66.9876 762.584 66.2501C764.112 65.5126 765.938 65.1463 768.055 65.1463C770.172 65.1463 771.999 65.5126 773.529 66.2501C775.059 66.9876 776.226 67.9979 777.026 69.2885C777.829 70.5767 778.229 72.0565 778.229 73.7331C778.229 75.3875 777.829 76.8871 777.026 78.2317C776.226 79.5764 775.054 80.6335 773.514 81.4078C771.972 82.1797 770.153 82.5657 768.053 82.5657C765.95 82.5657 764.131 82.1846 762.594 81.4103ZM770.706 76.5134C771.356 75.8423 771.683 74.9548 771.683 73.8511C771.683 72.7473 771.358 71.8673 770.706 71.2158C770.058 70.5619 769.173 70.235 768.053 70.235C766.911 70.235 766.018 70.5619 765.368 71.2158C764.718 71.8697 764.396 72.7473 764.396 73.8511C764.396 74.9548 764.718 75.8423 765.368 76.5134C766.016 77.182 766.911 77.5213 768.053 77.5213C769.173 77.5188 770.058 77.182 770.706 76.5134ZM743.625 81.4103C742.094 80.6384 740.94 79.5887 740.169 78.2637C739.398 76.9387 739.01 75.4465 739.01 73.7921C739.01 72.1352 739.41 70.6529 740.21 69.3475C741.013 68.0422 742.187 67.0146 743.736 66.2698C745.283 65.5249 747.134 65.1537 749.287 65.1537C751.957 65.1537 754.174 65.7339 755.935 66.8942V71.9459C755.314 71.5034 754.589 71.1445 753.762 70.8692C752.935 70.5939 752.05 70.4537 751.104 70.4537C749.447 70.4537 748.155 70.7659 747.221 71.3928C746.287 72.0197 745.817 72.8358 745.817 73.8511C745.817 74.8442 746.27 75.6555 747.18 76.2946C748.087 76.9313 749.401 77.2509 751.13 77.2509C752.018 77.2509 752.896 77.1157 753.762 76.8526C754.623 76.5822 755.367 76.2553 755.988 75.8693V80.7564C754.033 81.9708 751.763 82.578 749.181 82.578C747.008 82.5706 745.155 82.1846 743.625 81.4103ZM724.723 81.9904C723.28 81.6045 721.98 81.044 720.824 80.3065V75.7243C721.699 76.4224 722.868 76.9977 724.338 77.45C725.805 77.8999 727.224 78.126 728.596 78.126C729.239 78.126 729.721 78.0375 730.049 77.8654C730.379 77.6909 730.544 77.482 730.544 77.241C730.544 76.9657 730.454 76.7371 730.274 76.5527C730.095 76.3659 729.748 76.2135 729.234 76.0832L726.03 75.3383C724.197 74.8958 722.895 74.2837 722.121 73.4995C721.347 72.7178 720.962 71.6927 720.962 70.4242C720.962 69.3549 721.297 68.4281 721.976 67.6341C722.652 66.8425 723.613 66.2304 724.859 65.8002C726.108 65.3676 727.563 65.1512 729.239 65.1512C730.733 65.1512 732.103 65.316 733.349 65.6478C734.596 65.9797 735.627 66.4001 736.446 66.9163V71.2527C735.607 70.734 734.644 70.3284 733.548 70.0211C732.452 69.7163 731.329 69.5688 730.168 69.5688C728.494 69.5688 727.66 69.8638 727.66 70.4513C727.66 70.7266 727.789 70.9331 728.048 71.0708C728.308 71.2084 728.783 71.351 729.474 71.501L732.144 71.9975C733.888 72.3073 735.188 72.8555 736.041 73.6372C736.897 74.4189 737.324 75.5743 737.324 77.1034C737.324 78.7799 736.618 80.1098 735.202 81.0956C733.788 82.0814 731.78 82.573 729.181 82.573C727.65 82.5706 726.164 82.3764 724.723 81.9904ZM711.383 69.6745C713.381 70.5644 715.859 70.6037 717.904 69.6745V82.1035H711.383V69.6745ZM714.647 67.5874C716.446 67.5874 717.906 66.2304 717.906 64.5588C717.906 62.8872 716.446 61.5302 714.647 61.5302C712.845 61.5302 711.385 62.8872 711.385 64.5588C711.385 66.2304 712.845 67.5874 714.647 67.5874ZM687.161 62.693H697.572C700.082 62.693 702.201 63.0986 703.94 63.9074C705.676 64.7161 706.976 65.8445 707.84 67.2875C708.7 68.7305 709.135 70.3849 709.135 72.2458C709.135 74.0674 708.683 75.7194 707.784 77.1993C706.884 78.6816 705.516 79.8517 703.673 80.717C701.832 81.5799 699.55 82.015 696.825 82.015H687.161V62.693ZM696.718 77.1034C698.406 77.1034 699.708 76.6658 700.615 75.7956C701.522 74.918 701.976 73.7282 701.976 72.2188C701.976 70.8176 701.571 69.7015 700.763 68.8657C699.955 68.0299 698.731 67.6071 697.094 67.6071H693.837V77.1034H696.718ZM670.284 84.6306C666.084 87.8116 662.012 89.7389 658.006 91C657.014 89.6258 656.138 88.1582 655.379 86.6194C656.818 86.0658 658.206 85.3821 659.524 84.5765C659.182 84.316 658.842 84.0431 658.51 83.7653C650.626 87.5412 641.959 87.5412 633.98 83.7653C633.649 84.0452 633.31 84.3157 632.964 84.5765C634.273 85.373 635.658 86.0589 637.104 86.6144C636.344 88.1582 635.462 89.6209 634.475 90.9975C630.473 89.734 626.404 87.8067 622.206 84.6306C621.348 75.3211 623.065 65.8764 629.394 56.1884C632.535 54.6987 635.893 53.6146 639.407 53C639.842 53.7866 640.356 54.8486 640.702 55.6918C644.364 55.1239 648.06 55.1239 651.79 55.6918C652.137 54.8486 652.641 53.7866 653.071 53C656.58 53.6146 659.936 54.6938 663.074 56.181C668.562 64.4801 671.291 73.8388 670.284 84.6306ZM642.548 73.8855C642.592 71.1249 640.627 68.8608 638.19 68.8608C635.753 68.8608 633.83 71.1273 633.83 73.8855C633.83 76.6412 635.794 78.9053 638.19 78.9053C640.627 78.9053 642.553 76.6412 642.548 73.8855ZM658.658 73.8855C658.702 71.1249 656.737 68.8608 654.3 68.8608C651.863 68.8608 649.94 71.1273 649.94 73.8855C649.94 76.6412 651.904 78.9053 654.3 78.9053C656.737 78.9053 658.658 76.6412 658.658 73.8855Z" fill="white"/>
<rect x="413" y="173" width="611" height="96.6437" rx="18" stroke="white" stroke-width="2"/>
<path d="M489.248 211.858C490.733 203.138 485.049 197.907 476.33 197.907H457.987L451.593 243.635H470.259C480.399 243.635 485.954 239.178 488.15 231.815C489.248 228.328 489.312 222.45 483.435 219.285C486.987 217.606 488.86 213.924 489.248 211.858ZM467.094 215.798L468.257 207.659H474.974C480.787 207.659 479.43 215.798 473.811 215.798H467.094ZM464.64 233.495L465.931 224.129H472.649C479.495 224.129 478.332 233.495 471.357 233.495H464.64Z" fill="white"/>
<path d="M492.803 228.586C491.317 239.049 500.037 244.281 509.531 244.281C519.478 244.281 529.231 239.049 530.716 228.586L532.977 212.956C534.462 202.492 525.678 197.261 516.184 197.261C506.689 197.261 496.614 202.428 495.064 212.956L492.803 228.586ZM506.625 212.956C507.142 209.532 511.211 207.789 514.957 207.789C518.703 207.789 521.932 209.532 521.416 212.956L519.155 228.263C518.638 231.88 514.569 233.559 510.823 233.559C507.335 233.559 503.912 231.88 504.364 228.586L506.625 212.956Z" fill="white"/>
<path d="M535.694 228.586C534.208 239.049 542.927 244.281 552.422 244.281C562.368 244.281 572.121 239.049 573.607 228.586L575.867 212.956C577.353 202.492 568.569 197.261 559.074 197.261C549.58 197.261 539.504 202.428 537.954 212.956L535.694 228.586ZM549.515 212.956C550.032 209.532 554.101 207.789 557.847 207.789C561.593 207.789 564.823 209.532 564.306 212.956L562.046 228.263C561.529 231.88 557.46 233.559 553.714 233.559C550.226 233.559 546.803 231.88 547.255 228.586L549.515 212.956Z" fill="white"/>
<path d="M576.13 236.014C579.618 241.504 586.399 244.281 591.889 244.281C601.771 244.281 609.522 239.824 611.201 230.911C613.333 219.544 605.582 216.508 597.638 215.022C594.15 214.247 591.825 213.085 592.148 210.437C592.406 208.112 594.86 207.014 597.767 207.078C600.415 207.143 603.451 208.176 605.388 210.372L613.785 204.559C609.845 198.811 604.678 197.261 599.123 197.261C590.727 197.261 582.459 200.555 580.716 209.92C579.101 218.575 585.56 224.323 592.729 225.486C596.41 226.002 600.415 227.23 599.898 230.072C599.446 232.461 596.733 233.559 593.633 233.559C590.21 233.559 586.399 232.074 584.397 229.167L576.13 236.014Z" fill="white"/>
<path d="M652.818 208.434L654.368 197.842H618.005L616.454 208.434H628.791L623.947 243.635H635.637L640.481 208.434H652.818Z" fill="white"/>
<path d="M690.058 197.907H679.53L657.183 243.635H669.584L673.653 234.464H685.86L687.604 243.635H700.005L690.058 197.907ZM677.722 224.194L682.76 210.824H683.212L684.568 224.194H677.722Z" fill="white"/>
<path d="M726.875 229.361C725.325 232.268 722.354 233.495 719.706 233.495C716.476 233.495 713.634 231.622 714.086 228.651L716.282 212.891C716.735 209.791 720.029 207.982 723.323 207.918C726.035 207.918 728.748 209.016 729.781 211.599L739.728 207.789C737.209 199.651 730.75 197.261 725.131 197.261C715.96 197.261 706.142 202.557 704.721 212.891L702.525 228.651C701.104 239.049 709.372 244.281 718.349 244.281C724.098 244.281 730.686 242.02 736.305 234.011L726.875 229.361Z" fill="white"/>
<path d="M777.452 208.434L779.003 197.842H742.639L741.089 208.434H753.426L748.582 243.635H760.272L765.116 208.434H777.452Z" fill="white"/>
<path d="M795.012 197.907H783.451L777.056 243.635H788.618L795.012 197.907Z" fill="white"/>
<path d="M818.717 220.254L815.229 231.105H815.1L814.454 220.19L810.385 197.842H797.984L808.06 243.635H818.652L841.516 197.842H829.115L818.717 220.254Z" fill="white"/>
<path d="M862.062 197.907H851.534L829.187 243.635H841.587L845.657 234.464H857.864L859.608 243.635H872.008L862.062 197.907ZM849.726 224.194L854.763 210.824H855.216L856.572 224.194H849.726Z" fill="white"/>
<path d="M908.332 208.434L909.882 197.842H873.519L871.969 208.434H884.305L879.461 243.635H891.151L895.995 208.434H908.332Z" fill="white"/>
<path d="M924.47 208.822H944.622L946.172 197.907H914.33L907.936 243.635H939.778L941.263 232.72H921.112L922.08 225.873H940.617L942.038 215.604H923.501L924.47 208.822Z" fill="white"/>
<path d="M952.301 197.907L945.906 243.635H963.022C972.194 243.635 981.365 239.114 982.851 228.586L985.047 213.214C986.532 202.557 978.588 197.907 969.416 197.907H952.301ZM959.018 232.784L962.441 208.693H968.318C971.483 208.693 973.744 210.695 973.421 213.214L971.225 228.586C970.902 231.04 968.06 232.784 964.895 232.784H959.018Z" fill="white"/>
<mask id="mask0_131_3196" style="mask-type:alpha" maskUnits="userSpaceOnUse" x="0" y="0" width="1436" height="441">
<rect width="1436" height="441" rx="56" fill="url(#paint1_linear_131_3196)"/>
</mask>
<g mask="url(#mask0_131_3196)">
<g clip-path="url(#clip0_131_3196)">
<path d="M158.633 440.906H414.083C424.645 431.437 431.094 420.469 430.066 410.344C427.916 388.5 393.613 385.312 360.338 401.062L353.795 404.344C352.692 400.326 350.923 396.522 348.561 393.094C331.924 368.625 294.349 366.281 270.048 384.187C267.369 386.151 264.867 388.348 262.57 390.75C259.302 386.219 255.575 382.04 251.447 378.281C228.921 357.844 202.189 353.437 192.001 366C183.028 377.062 189.945 398.344 206.956 415.125C206.956 415.125 156.67 416.344 158.633 440.906Z" fill="#E85DFE"/>
<path d="M26.2803 358.031V440.438H-87.5647C-105.698 402.937 -115.792 358.031 -115.792 358.031L-118.503 346.5L26.2803 358.031Z" fill="#2835BD"/>
<path d="M-89.808 360.562L26.2803 371.437V440.437H-60.5523C-68.9645 421.219 -89.808 360.562 -89.808 360.562Z" fill="black"/>
<path d="M231.35 440.437H221.629L214.339 418.125H233.5L231.35 440.437Z" fill="black"/>
<path d="M108.813 440.438H160.875C194.337 440.438 213.592 430.781 227.986 419.812L231.351 440.438H239.856C239.856 341.438 227.145 247.5 227.145 247.5C225.275 236.906 205.18 232.125 180.223 240.844C155.267 249.562 148.631 260.719 149.566 270.844C150.5 280.969 158.445 349.219 161.436 381.188L156.108 387C154.271 388.915 152.908 391.237 152.129 393.776C151.349 396.317 151.175 399.005 151.622 401.625L152.183 404.719C131.62 418.031 99.8402 411.375 108.813 440.438Z" fill="#29CC7A"/>
<path d="M216.769 265.688C217.61 277.5 217.797 282.375 217.797 284.25C217.804 284.546 217.749 284.841 217.636 285.115C217.523 285.389 217.355 285.638 217.143 285.844C211.628 291.375 205.086 293.156 199.945 293.812C199.648 293.852 199.346 293.828 199.058 293.744C198.77 293.659 198.504 293.515 198.275 293.321C198.046 293.126 197.86 292.886 197.729 292.616C197.598 292.345 197.525 292.051 197.515 291.75L196.486 276.75" stroke="white" stroke-width="2" stroke-miterlimit="10" stroke-linecap="round"/>
<path d="M220.882 375.656C223.979 375.722 227.038 374.979 229.762 373.5" stroke="black" stroke-width="4" stroke-miterlimit="10" stroke-linecap="round"/>
<path d="M228.64 379.969C224.62 380.531 219.667 378.75 219.667 378.75" stroke="black" stroke-width="4" stroke-miterlimit="10" stroke-linecap="round"/>
<path d="M173.213 312.656C174.054 321.094 174.241 330.375 170.035 332.813C167.418 334.406 162.09 334.219 156.202 331.406C153.865 308.063 151.341 288 150.126 276.656L177.98 281.25C180.69 305.344 181.158 313.219 173.213 312.656Z" fill="#15AD75"/>
<path d="M153.836 278.513C149.369 269.12 161.347 254.043 180.59 244.837C199.833 235.63 219.054 235.782 223.521 245.176C227.988 254.569 216.01 269.647 196.766 278.853C177.524 288.058 158.303 287.906 153.836 278.513Z" fill="black"/>
<path d="M227.986 419.812C213.592 430.781 194.337 440.437 160.875 440.437H108.813C107.927 437.74 107.423 434.932 107.318 432.094C162.558 432.094 194.618 430.969 239.109 397.594C239.483 410.906 239.763 425.25 239.856 440.437H231.351L227.986 419.812Z" fill="#57F287"/>
<path d="M224.248 372.656C221.817 382.125 215.181 389.344 209.386 388.781C203.591 388.219 203.404 382.781 205.647 373.687C206.208 371.25 206.675 368.906 207.143 366.469C208.825 357.844 213.031 354.094 218.172 354.562C223.313 355.031 226.771 363.281 224.248 372.656Z" fill="white"/>
<path d="M224.248 372.656C221.817 382.125 215.181 389.344 209.386 388.781C203.591 388.219 203.404 382.781 205.647 373.687C206.208 371.25 206.675 368.906 207.143 366.469C208.825 357.844 213.031 354.094 218.172 354.562C223.313 355.031 226.771 363.281 224.248 372.656Z" fill="white"/>
<path d="M209.012 372.75C208.077 376.875 208.731 380.531 210.32 380.812C211.909 381.094 213.872 378.938 214.527 373.781C215.181 368.625 214.807 365.812 213.218 365.812C211.629 365.812 209.853 368.531 209.012 372.75Z" fill="black"/>
<path d="M154.893 403.969C154.755 403.977 154.616 403.95 154.49 403.892C154.364 403.833 154.255 403.744 154.172 403.632C154.088 403.522 154.034 403.391 154.013 403.253C153.992 403.116 154.005 402.975 154.052 402.844C155.921 393.469 161.623 392.156 172.185 394.594C182.747 397.031 186.953 397.969 189.009 398.719C191.066 399.469 190.131 399.938 176.204 402.094C169.161 403.282 162.035 403.909 154.893 403.969Z" fill="#15AD75"/>
<path d="M107.785 427.312C118.16 427.406 135.452 427.219 152.463 426.094C184.056 423.937 213.124 412.125 238.922 391.031V392.719C213.124 413.625 184.149 425.344 152.557 427.406C136.667 428.531 120.59 428.719 110.028 428.719H107.505L107.785 427.312Z" fill="black"/>
<path d="M207.142 366.562C208.824 357.937 213.03 354.187 218.171 354.656C223.312 355.125 224.714 358.969 225.088 364.5C219.301 366.373 213.201 367.074 207.142 366.562Z" fill="#5865F2"/>
<path d="M74.5097 291.281L105.635 308.719C105.102 309.213 104.432 309.532 103.713 309.633C102.994 309.733 102.262 309.61 101.616 309.281C99.8397 308.531 95.5401 304.594 93.8577 303.656C92.1753 302.719 87.4084 300.844 85.0716 299.906C82.19 298.762 79.4841 297.215 77.0333 295.313C74.977 293.625 74.2293 292.969 74.5097 291.281Z" fill="black"/>
<path d="M151.342 226.5C157.043 222.937 157.324 223.031 160.502 217.313C163.679 211.594 167.699 208.781 172.372 208.125L166.577 250.219C154.426 253.781 146.949 247.594 145.266 241.5C143.584 235.406 145.547 230.062 151.342 226.5Z" fill="#3442D9"/>
<path d="M157.043 232.031C158.632 225.187 162.838 217.219 167.792 211.219C169.567 209.051 170.826 206.506 171.474 203.777C172.122 201.048 172.141 198.206 171.531 195.469L169.475 186.094C168.029 179.587 168.8 172.782 171.663 166.766C174.527 160.75 179.318 155.87 185.271 152.906C188.687 151.219 192.405 150.231 196.207 150C203.36 149.474 210.435 151.765 215.932 156.386C221.429 161.007 224.915 167.594 225.649 174.75C225.804 175.962 225.867 177.184 225.836 178.406V182.437L225.649 199.312C225.446 206.894 227.049 214.414 230.323 221.25C231.682 223.962 232.716 226.826 233.407 229.781L187.701 278.531C165.923 274.875 152.276 253.781 157.043 232.031Z" fill="#3442D9"/>
<path d="M187.607 278.531C165.923 274.875 152.276 253.781 157.043 232.031C158.539 225.563 162.371 218.063 166.951 212.25" stroke="black" stroke-width="2" stroke-miterlimit="10" stroke-linecap="round"/>
<path d="M171.624 233.438C167.324 226.313 165.642 227.25 157.977 229.313C151.808 230.906 144.705 243.563 154.145 249.938C163.586 256.313 182.84 252.469 171.624 233.438Z" fill="#3442D9"/>
<path d="M192.932 212.425C192.071 211.764 191.932 210.496 192.622 209.59C193.312 208.686 194.569 208.488 195.43 209.148C196.291 209.809 196.43 211.077 195.74 211.982C195.05 212.887 193.793 213.085 192.932 212.425Z" fill="black"/>
<path d="M181.159 213.158C180.298 212.498 180.159 211.229 180.849 210.324C181.538 209.42 182.796 209.221 183.657 209.882C184.518 210.542 184.658 211.811 183.968 212.716C183.278 213.621 182.021 213.819 181.159 213.158Z" fill="black"/>
<path d="M182.373 211.688C172.372 219.938 176.485 225.844 168.446 238.031" stroke="white" stroke-width="3.00593" stroke-miterlimit="10" stroke-linecap="round"/>
<path d="M193.682 230.156C187.513 225.844 185.644 224.625 183.307 224.719L177.232 225.281L178.821 250.031L194.243 249.563L193.682 230.156Z" fill="#FFC619"/>
<path d="M163.773 223.875C163.656 223.548 163.618 223.197 163.659 222.852C163.7 222.507 163.82 222.176 164.01 221.886C164.201 221.595 164.455 221.352 164.754 221.177C165.054 221.001 165.39 220.898 165.736 220.875L176.017 219.375C176.763 219.295 177.514 219.475 178.144 219.885C178.774 220.295 179.244 220.909 179.475 221.625L185.271 243.187C185.386 243.516 185.426 243.865 185.385 244.21C185.343 244.555 185.223 244.886 185.033 245.177C184.842 245.467 184.588 245.71 184.288 245.886C183.989 246.061 183.654 246.164 183.308 246.187L173.026 247.687C172.279 247.767 171.529 247.587 170.899 247.177C170.27 246.768 169.8 246.154 169.568 245.437L163.773 223.875Z" fill="black"/>
<path d="M164.24 221.719L163.119 223.031L166.203 223.313L164.24 221.719Z" fill="black"/>
<path d="M159.193 235.969C160.501 233.813 161.716 231.094 165.268 230.531L165.735 235.031L159.193 235.969Z" fill="#FFC619"/>
<path d="M162.745 225.094C162.647 224.766 162.621 224.421 162.671 224.083C162.72 223.745 162.843 223.421 163.03 223.135C163.217 222.849 163.464 222.608 163.753 222.428C164.043 222.248 164.369 222.134 164.708 222.094L175.083 220.594C175.826 220.531 176.57 220.718 177.195 221.125C177.821 221.533 178.295 222.137 178.541 222.844L184.336 244.406C184.434 244.733 184.459 245.078 184.41 245.417C184.36 245.755 184.238 246.079 184.051 246.365C183.864 246.651 183.617 246.892 183.328 247.071C183.037 247.251 182.712 247.366 182.373 247.406L171.998 248.812C171.271 248.932 170.525 248.778 169.904 248.38C169.284 247.982 168.831 247.369 168.633 246.656L162.745 225.094Z" fill="white"/>
<path d="M165.922 233.625L161.716 234.281C160.863 234.376 160.083 234.802 159.541 235.468C158.999 236.135 158.74 236.988 158.818 237.844C158.84 238.289 158.954 238.725 159.153 239.123C159.353 239.521 159.633 239.873 159.976 240.156C160.32 240.439 160.719 240.646 161.148 240.764C161.576 240.883 162.024 240.91 162.464 240.844L165.548 240.375C166.506 240.237 167.392 239.785 168.069 239.091C168.745 238.395 169.173 237.496 169.287 236.531C169.31 236.102 169.235 235.672 169.066 235.277C168.898 234.881 168.641 234.53 168.317 234.248C167.991 233.968 167.606 233.766 167.191 233.658C166.776 233.55 166.342 233.539 165.922 233.625Z" fill="#FFC619"/>
<path d="M167.324 239.906L164.427 240.375C163.942 240.437 163.476 240.603 163.062 240.863C162.648 241.122 162.296 241.47 162.029 241.88C161.762 242.29 161.587 242.754 161.517 243.239C161.447 243.724 161.484 244.218 161.623 244.688C161.822 245.443 162.299 246.096 162.958 246.513C163.616 246.93 164.408 247.082 165.175 246.938L166.951 246.656C167.92 246.522 168.819 246.074 169.511 245.38C170.202 244.687 170.649 243.785 170.783 242.813C170.81 242.373 170.733 241.934 170.56 241.529C170.386 241.125 170.121 240.767 169.785 240.484C169.448 240.202 169.051 240.002 168.623 239.902C168.196 239.801 167.751 239.803 167.324 239.906Z" fill="#FFC619"/>
<path d="M176.391 250.594L186.485 249.187L186.018 245.062L175.923 246.563L176.391 250.594Z" fill="#FFC619"/>
<path d="M173.96 234.187L180.316 233.25C180.619 233.209 180.903 233.08 181.136 232.882C181.368 232.682 181.538 232.419 181.625 232.125L182.186 230.438L182.653 226.969L186.111 239.156L175.83 240.656C174.873 240.785 173.901 240.586 173.07 240.093C172.239 239.6 171.597 238.841 171.25 237.937C171.139 237.509 171.124 237.061 171.205 236.626C171.287 236.191 171.464 235.779 171.723 235.421C171.982 235.062 172.317 234.766 172.703 234.553C173.09 234.339 173.519 234.215 173.96 234.187Z" fill="#FFC619"/>
<path d="M176.017 240.562L186.111 239.156L185.644 245.906L177.886 247.031C176.939 247.173 175.974 246.978 175.155 246.482C174.336 245.986 173.715 245.218 173.4 244.312C173.272 243.891 173.241 243.445 173.309 243.009C173.378 242.573 173.545 242.16 173.797 241.798C174.049 241.437 174.38 241.138 174.765 240.923C175.149 240.71 175.577 240.586 176.017 240.562Z" fill="#FFC619"/>
<path d="M104.42 281.906C104.14 271.781 112.458 270.187 118.16 266.625C123.862 263.062 130.591 255.562 137.601 250.5C144.612 245.437 150.687 245.531 162.558 249.187L149.005 275.625C141.34 279.562 139.658 283.875 135.545 289.687C131.433 295.5 125.918 297.75 120.403 296.719C117.506 301.5 116.945 302.625 112.739 301.125C108.533 299.625 101.616 296.437 99.7466 290.906C97.8772 285.375 100.588 284.437 104.42 281.906Z" fill="#66BCFF"/>
<path d="M111.43 297.937C114.982 297.094 116.384 295.125 118.628 292.031L120.59 289.406C130.218 287.437 134.143 282.281 136.293 278.531C137.321 276.75 139.191 275.344 140.967 274.031C142.743 272.719 144.518 271.312 145.547 269.625C146.321 268.361 147.007 267.046 147.603 265.687C148.351 263.719 149.005 262.406 150.22 262.031C151.435 261.656 153.491 262.406 155.454 263.25C157.237 264.111 159.121 264.741 161.062 265.125C161.223 265.155 161.389 265.123 161.527 265.036C161.665 264.95 161.766 264.814 161.81 264.656C161.816 264.486 161.762 264.319 161.661 264.183C161.559 264.046 161.414 263.949 161.249 263.906C159.42 263.598 157.654 262.997 156.015 262.125C153.772 261.187 151.902 260.344 149.94 260.906C147.977 261.469 147.322 263.156 146.481 265.219C145.64 267.281 145.36 267.656 144.612 268.969C143.375 270.543 141.891 271.904 140.219 273C138.349 274.5 136.387 276 135.265 277.969C133.115 281.812 129.376 286.406 120.123 288.281H119.936L119.749 288.469C118.908 289.5 118.254 290.531 117.599 291.375C115.543 294.281 114.235 296.062 111.244 296.812C111.162 296.806 111.082 296.82 111.008 296.854C110.934 296.888 110.871 296.941 110.824 297.007C110.776 297.073 110.747 297.151 110.739 297.231C110.73 297.313 110.743 297.395 110.776 297.469C110.77 297.55 110.784 297.632 110.817 297.705C110.852 297.779 110.904 297.843 110.97 297.891C111.036 297.937 111.114 297.966 111.194 297.975C111.274 297.983 111.356 297.97 111.43 297.937Z" fill="#45AAF7"/>
<path d="M149.566 260.062C150.822 264.087 151.636 268.237 151.996 272.437" stroke="black" stroke-width="2" stroke-miterlimit="10" stroke-linecap="round"/>
<path d="M144.05 308.812C152.556 316.5 159.753 314.344 163.118 313.969C166.483 313.594 166.109 311.156 166.39 309.094C166.67 307.031 166.857 303.938 166.857 303.938C175.363 303.375 176.391 297.563 176.578 292.406C176.765 287.25 178.073 286.5 178.727 282.844C188.983 280.996 198.676 276.805 207.056 270.594C215.436 264.384 222.277 256.321 227.051 247.031L218.171 240.562L198.356 253.5C184.99 248.531 177.606 246 170.409 245.531C163.212 245.063 156.108 247.781 153.771 257.813C151.435 267.844 151.154 270.938 149.004 275.719C148.444 276.938 147.509 278.625 146.574 280.406C143.957 285.75 141.246 293.25 146.574 301.406C145.925 303.937 145.081 306.413 144.05 308.812Z" fill="#8CD9FF"/>
<path d="M212.563 265.969C212.844 259.312 210.32 254.625 205.74 253.875L217.33 245.812L225.742 249.469C223.592 255.469 218.078 262.031 212.563 265.969Z" fill="black"/>
<path d="M160.315 310.594L160.128 309.375C161.81 309.094 161.904 307.875 162.371 302.156V301.406L162.745 301.219C166.484 300.281 169.007 298.031 169.194 290.437C169.226 286.831 169.956 283.265 171.344 279.937C171.707 279.156 171.989 278.339 172.185 277.5C172.372 276.75 172.653 276 172.839 275.344C173.895 272.697 174.186 269.806 173.681 267C173.307 264.094 173.587 262.5 174.522 261.656C175.457 260.812 177.793 261.094 181.252 262.219H181.719C187.234 264 198.263 267.656 209.386 268.594L207.984 269.625C197.141 268.594 186.673 265.125 181.345 263.437L180.878 263.25C178.074 262.312 176.111 261.844 175.27 262.5C174.428 263.156 174.615 264.375 174.896 266.719C175.394 269.718 175.071 272.796 173.961 275.625C173.719 276.296 173.531 276.986 173.4 277.687C173.12 278.531 172.839 279.375 172.466 280.219C171.132 283.429 170.434 286.867 170.409 290.344C170.222 297.375 168.259 300.844 163.493 302.25C163.119 307.969 162.932 310.125 160.315 310.594Z" fill="#66BCFF"/>
<path d="M193.496 228.844C196.206 226.5 198.263 226.688 201.534 228.094C204.992 224.906 209.479 224.437 214.152 226.031C218.826 227.625 226.023 229.781 230.229 230.906C230.464 230.994 230.719 231.012 230.964 230.959C231.208 230.904 231.433 230.782 231.61 230.604C231.787 230.426 231.909 230.201 231.963 229.956C232.017 229.71 231.998 229.454 231.911 229.219L228.827 217.969C238.828 225.469 242.099 241.5 238.922 250.219C235.744 258.938 221.91 258.844 217.517 256.406C213.124 253.969 211.629 253.219 206.581 254.156C201.534 255.094 197.608 255.75 190.972 250.688L187.046 249.375C185.551 240.844 186.859 234.656 193.496 228.844Z" fill="#3442D9"/>
<path d="M193.496 228.844C196.207 226.5 198.263 226.688 201.535 228.094C204.993 224.906 209.479 224.437 214.153 226.031C218.826 227.625 226.023 229.781 230.229 230.906" stroke="black" stroke-width="2" stroke-miterlimit="10" stroke-linecap="round"/>
<path d="M201.534 228.094C198.742 230.262 196.418 232.975 194.699 236.068C192.98 239.162 191.903 242.573 191.533 246.094" stroke="black" stroke-width="2" stroke-miterlimit="10" stroke-linecap="round"/>
<path d="M173.213 225.281C173.171 225.152 173.157 225.015 173.173 224.879C173.189 224.744 173.234 224.614 173.306 224.498C173.377 224.382 173.472 224.283 173.585 224.208C173.698 224.133 173.826 224.083 173.961 224.062H174.895C175.155 224.005 175.427 224.052 175.654 224.192C175.881 224.331 176.044 224.554 176.111 224.812L176.952 227.906C176.995 228.043 177.006 228.187 176.984 228.329C176.963 228.471 176.91 228.605 176.829 228.723C176.748 228.84 176.641 228.937 176.516 229.008C176.392 229.077 176.253 229.117 176.111 229.125H175.176C174.93 229.157 174.681 229.098 174.475 228.96C174.269 228.822 174.12 228.615 174.054 228.375L173.213 225.281Z" fill="#29CC7A"/>
<path d="M188.168 207.281C187.446 205.814 186.379 204.545 185.061 203.582C183.743 202.618 182.211 201.99 180.597 201.75C180.41 201.75 180.317 201.563 180.41 201.469C181.626 196.969 181.065 194.438 179.476 191.156C179.46 191.133 179.45 191.105 179.446 191.077C179.442 191.049 179.445 191.02 179.453 190.993C179.463 190.966 179.478 190.941 179.498 190.921C179.518 190.9 179.542 190.885 179.569 190.875C184.803 188.625 186.766 184.875 187.327 182.063C187.421 181.875 187.701 181.781 187.794 181.969C190.131 186.656 193.309 186.844 196.02 186.469C196.207 186.469 196.3 186.656 196.207 186.75C193.496 192 195.459 195.75 198.17 198.375C198.184 198.412 198.191 198.451 198.189 198.491C198.187 198.53 198.177 198.569 198.159 198.605C198.142 198.64 198.117 198.671 198.086 198.696C198.056 198.721 198.021 198.74 197.983 198.75C192.748 199.688 189.944 203.156 188.636 207.188C188.542 207.375 188.262 207.469 188.168 207.281Z" fill="#FFC619"/>
<path d="M176.017 240.563L181.345 239.812" stroke="black" stroke-width="2" stroke-miterlimit="10" stroke-linecap="round"/>
<path d="M166.296 240.281L163.305 240.75" stroke="black" stroke-width="2" stroke-miterlimit="10" stroke-linecap="round"/>
<path d="M187.514 181.875C185.177 176.625 185.364 172.969 186.018 170.906" stroke="black" stroke-width="2" stroke-miterlimit="10" stroke-linecap="round"/>
<path d="M180.036 191.062C178.578 191.287 177.088 191.193 175.669 190.789C174.249 190.385 172.933 189.679 171.811 188.719" stroke="black" stroke-width="2" stroke-miterlimit="10" stroke-linecap="round"/>
<path d="M188.168 207.281C188.16 207.979 188.255 208.674 188.448 209.344" stroke="black" stroke-width="2" stroke-miterlimit="10" stroke-linecap="round"/>
<path d="M197.702 198.469C201.16 200.906 206.395 200.531 210.04 199.406" stroke="black" stroke-width="2" stroke-miterlimit="10" stroke-linecap="round"/>
<path d="M196.019 186.469C197.328 183.75 199.758 180.656 202.001 179.625" stroke="black" stroke-width="2" stroke-miterlimit="10" stroke-linecap="round"/>
<path d="M180.41 201.469C179.204 202.114 177.915 202.588 176.578 202.875" stroke="black" stroke-width="2" stroke-miterlimit="10" stroke-linecap="round"/>
<path d="M190.411 191.438C188.822 197.625 186.766 197.25 185.831 195.375C184.897 193.5 184.242 191.157 182.747 191.344C181.251 191.532 181.625 194.157 183.401 197.907C185.177 201.657 188.075 202.5 190.785 199.219C193.496 195.938 193.589 192.75 193.683 190.5C193.776 188.25 191.44 187.688 190.411 191.438Z" fill="#C40655"/>
<path d="M194.15 210.938C193.029 223.875 199.572 230.062 201.628 242.906" stroke="white" stroke-width="3.00593" stroke-miterlimit="10" stroke-linecap="round"/>
<path d="M179.476 282.937C181.158 277.406 181.906 267.281 177.326 258.375" stroke="black" stroke-width="2" stroke-miterlimit="10" stroke-linecap="round"/>
<path d="M180.503 269.156C181.558 267.101 182.073 264.81 181.999 262.5" stroke="black" stroke-width="2" stroke-miterlimit="10" stroke-linecap="round"/>
<path d="M226.583 229.875L233.5 232.125" stroke="black" stroke-width="2" stroke-miterlimit="10" stroke-linecap="round"/>
<path d="M157.884 229.031L153.21 230.344" stroke="black" stroke-width="2" stroke-miterlimit="10" stroke-linecap="round"/>
<path d="M74.5104 291.187C75.0235 291.939 75.6189 292.631 76.2863 293.25C79.2773 296.25 86.1005 299.625 89.7458 301.031C92.519 301.912 95.0697 303.382 97.2233 305.344C99.9339 307.5 103.299 310.406 105.635 308.719C108.579 306.001 111.269 303.02 113.674 299.812C113.81 299.645 113.899 299.443 113.932 299.228C113.965 299.015 113.94 298.795 113.861 298.594C112.552 294.844 108.346 289.5 102.271 286.687C102.07 286.608 101.851 286.582 101.638 286.616C101.424 286.649 101.223 286.738 101.055 286.875C97.5037 289.406 95.3539 290.062 92.4564 289.969C89.5588 289.875 83.9507 288 79.3707 286.687C74.7907 285.375 74.6973 287.437 74.5104 291.187Z" fill="#FFC619"/>
<path d="M111.057 303.094C109.387 305.098 107.576 306.978 105.635 308.719C103.299 310.406 99.9338 307.5 97.2232 305.344C95.0697 303.383 92.519 301.912 89.7457 301.031C86.1005 299.625 79.2772 296.25 76.2862 293.25C75.6189 292.631 75.0235 291.939 74.5103 291.188C74.6973 287.438 75.5385 285.563 79.3707 286.688C83.2029 287.813 85.3527 288.75 88.1568 289.406C88.9905 289.63 89.7467 290.082 90.3411 290.71C90.9347 291.339 91.344 292.121 91.5216 292.969C91.6151 294 91.802 295.031 91.989 296.25C97.0363 295.219 101.897 296.906 102.925 303.563C102.925 303.563 107.224 301.219 111.057 303.094Z" fill="#FFE75C"/>
<path d="M76.2857 293.25L74.5098 291.281C74.3911 291.083 74.3266 290.857 74.3229 290.625C74.4089 289.914 74.5986 289.22 74.8837 288.562C75.6314 289.969 76.94 291.375 79.8375 293.531C84.4175 296.906 89.5583 298.125 92.6428 299.156C95.4665 300.212 98.0434 301.839 100.214 303.938C101.92 305.871 104.167 307.242 106.663 307.875L105.635 308.719C103.298 310.406 99.9333 307.5 97.2227 305.344C95.0692 303.383 92.5184 301.912 89.7452 301.031C86.0999 299.625 79.2767 296.25 76.2857 293.25Z" fill="white"/>
<path d="M133.302 297.469C138.069 296.156 142.929 298.406 147.229 306.563C148.444 305.625 151.435 304.594 155.921 305.438C160.408 306.281 162.09 308.25 162.838 309.75C163.283 310.616 163.415 311.61 163.212 312.563C162.931 313.781 162.558 315.375 161.997 318C161.156 322.031 161.623 325.594 159.38 325.969L127.974 303.281C127.974 303.281 127.133 299.156 133.302 297.469Z" fill="#FFC619"/>
<path d="M133.302 297.469C138.069 296.156 142.929 298.406 147.229 306.563C147.825 307.783 148.356 309.035 148.818 310.313C153.771 309.844 156.108 312 156.949 316.781C156.949 316.781 160.221 314.531 162.184 317.156C162.09 317.438 162.09 317.719 161.997 318C161.155 322.031 161.623 325.594 159.38 325.969L127.974 303.281C127.974 303.281 127.133 299.156 133.302 297.469Z" fill="#FFE75C"/>
<path d="M127.974 301.969L130.311 299.813C134.33 299.156 137.695 299.063 141.247 303.094C144.799 307.125 147.135 311.531 150.874 314.156C156.202 318.094 160.688 319.688 161.343 322.594C161.997 325.5 160.688 325.781 159.38 325.969L127.974 303.281C127.859 302.852 127.859 302.399 127.974 301.969Z" fill="white"/>
<path d="M131.994 298.406L129.75 299.063C129.555 299.095 129.37 299.17 129.208 299.283C129.046 299.397 128.912 299.546 128.816 299.719C127.949 301.187 127.588 302.9 127.787 304.594L136.013 303.094C133.302 301.781 132.367 300.563 132.648 298.969C132.676 298.881 132.678 298.787 132.652 298.698C132.627 298.609 132.577 298.53 132.507 298.47C132.437 298.409 132.351 298.372 132.26 298.36C132.168 298.349 132.076 298.365 131.994 298.406Z" fill="white"/>
<path d="M159.193 326.062C151.155 327.656 147.603 325.125 144.145 321.562C142.71 319.971 141.04 318.611 139.191 317.531C134.424 314.812 130.685 311.906 128.161 307.312C125.638 302.719 133.396 299.719 138.443 303.937C143.49 308.156 143.771 313.125 153.772 319.312C160.595 323.625 161.53 325.594 159.193 326.062Z" fill="black"/>
<path d="M158.049 311.431C158.003 310.501 158.424 309.723 158.991 309.694C159.558 309.665 160.056 310.396 160.103 311.327C160.15 312.258 159.728 313.036 159.162 313.064C158.594 313.093 158.096 312.362 158.049 311.431Z" fill="white"/>
<path d="M74.2293 290.063C74.3938 289.112 74.7088 288.194 75.1639 287.344C75.2574 287.25 75.3509 287.156 75.4444 287.25H75.5378C75.7248 287.25 75.7248 287.344 75.7248 287.438C75.2574 289.406 75.0705 291.656 76.0986 292.969C73.9489 291.281 74.1358 290.344 74.2293 290.063Z" fill="white"/>
<path d="M107.575 300.031C106.718 299.839 106.261 298.618 106.554 297.304C106.847 295.99 107.779 295.081 108.635 295.273C109.491 295.465 109.948 296.686 109.656 297.999C109.363 299.313 108.431 300.222 107.575 300.031Z" fill="white"/>
<path d="M37.4973 440.437C-2.03996 440.437 -34.4736 423.938 -77.0954 386.25C-119.717 348.562 -134.672 336.187 -146.73 324.469C-158.787 312.75 -157.946 305.156 -151.684 290.156C-145.421 275.156 -141.308 277.312 -141.308 277.312C-140.561 265.125 -128.69 244.969 -115.605 228.75C-102.519 212.531 -94.6676 215.156 -80.2734 215.156C-65.8792 215.156 -61.1122 219.094 -54.6629 236.344C-48.2135 253.594 -32.1369 268.219 -1.75954 273.562C28.6178 278.906 45.2552 278.625 46.0965 293.906C46.9377 309.188 46.0965 335.531 59.556 356.344C76.2878 364.455 93.8777 370.65 111.992 374.812C122.647 377.25 124.891 384.281 125.919 393.469C126.947 402.656 123.208 407.625 121.432 410.531C125.078 414 124.33 415.5 122.554 423.656C121.806 426.938 120.965 430.219 120.217 433.125C119.608 435.237 118.33 437.093 116.577 438.412C114.823 439.732 112.688 440.442 110.496 440.437H37.4973Z" fill="#66BCFF"/>
<path d="M125.919 393.469C126.947 402.656 123.208 407.625 121.432 410.531L48.2462 418.969L-22.6031 408.562C-22.6031 408.562 -69.3375 370.781 -62.9816 358.219C-56.6258 345.656 -43.2597 357.469 -25.4072 369.656C-7.55464 381.844 10.9522 382.969 32.1696 379.875C53.387 376.781 79.0909 367.687 111.992 374.812C122.647 377.25 124.891 384.281 125.919 393.469Z" fill="#45AAF7"/>
<path d="M116.758 408.563C117.973 399.094 117.693 391.594 115.169 389.719C112.646 387.844 110.216 392.156 108.44 395.906C106.176 400.665 103.351 405.134 100.027 409.219L116.758 408.563Z" fill="#A3E1FF"/>
<path d="M35.6279 410.625C32.5435 397.969 29.9263 394.875 27.3092 394.687C24.6921 394.5 23.3835 400.5 19.6448 409.031L25.8137 411.937L35.6279 410.625Z" fill="#A3E1FF"/>
<path d="M-132.616 294.844C-92.8918 333.375 -69.1507 354.563 -35.8759 379.406C-2.60096 404.25 12.2606 410.719 40.2077 410.719C68.1549 410.719 86.1009 394.969 121.432 410.531C125.077 414 124.33 415.5 122.554 423.656C121.806 426.938 120.965 430.219 120.217 433.125C119.608 435.237 118.33 437.094 116.576 438.413C114.823 439.732 112.688 440.442 110.496 440.438H37.4972C-2.04014 440.438 -34.4738 423.938 -77.0956 386.25C-119.717 348.563 -134.672 336.188 -146.73 324.469C-158.787 312.75 -157.946 305.156 -151.684 290.156C-145.421 275.156 -141.309 277.313 -141.309 277.313C-141.309 281.531 -141.589 286.031 -132.616 294.844Z" fill="white"/>
<path d="M-152.151 291.188C-152.057 296.625 -148.692 302.813 -139.532 311.25C-121.586 327.656 -84.4792 361.219 -58.9622 382.969C-31.0151 407.063 -5.03076 426.938 29.5527 426.938C41.6102 426.938 54.7892 424.406 67.5945 421.969C90.1204 417.656 111.525 413.625 122.367 424.5C122.274 425.062 122.087 425.719 121.993 426.281C111.899 415.125 90.4943 419.156 67.8749 423.469C54.9762 425.906 41.7036 428.438 29.5527 428.438C-5.49811 428.438 -32.791 407.438 -59.8969 384.188C-85.4139 362.344 -122.615 328.688 -140.467 312.375C-147.197 306.188 -152.057 300.469 -153.272 294.187L-152.151 291.188Z" fill="#FFE75C"/>
<path d="M105.075 432.938C112.553 433.031 116.198 436.031 113.207 438.938C112.118 439.952 110.673 440.491 109.188 440.438H44.975C76.9414 440.438 80.2128 432.563 105.075 432.938Z" fill="black"/>
<path d="M-102.332 251.719C-107.846 230.625 -107.286 216.562 -93.7326 215.156C-89.7134 214.781 -85.4139 215.156 -80.2731 215.156C-65.7855 215.156 -61.112 219.094 -54.6627 236.344C-48.2133 253.594 -32.1367 268.219 -1.75931 273.562C28.618 278.906 45.2555 278.625 46.0967 293.906C46.9379 309.187 46.0967 335.531 59.5562 356.344C61.5191 359.812 59.1823 362.156 31.2352 362.156C3.28799 362.156 -13.3494 360.469 -18.0229 348.75C-22.6963 337.031 -29.4261 311.437 -32.791 301.312C-36.1558 291.187 -35.595 285.375 -54.1953 281.156C-72.7956 276.937 -97.0975 272.062 -102.332 251.719Z" fill="#8CD9FF"/>
<path d="M88.251 403.875C88.1575 408.656 86.849 415.5 84.2318 416.156C81.6147 416.813 80.3996 411.469 77.689 404.813C80.5865 401.813 88.251 398.719 88.251 403.875Z" fill="#A3E1FF"/>
<path d="M-37.5601 254.812C-30.4041 246.447 -22.348 238.901 -13.5386 232.312L7.39844 243.281L0.575198 263.719C0.575198 263.719 -5.03294 270.844 -10.2672 276.469C-15.5014 282.094 -24.9418 282.281 -42.327 283.781C-48.8698 272.063 -45.8788 264.656 -37.5601 254.812Z" fill="#2835BD"/>
<path d="M39.9259 271.875C41.1653 272.628 42.1158 273.777 42.6243 275.138C43.1337 276.498 43.1702 277.99 42.7299 279.375C40.0193 288 38.8042 294.656 41.3279 315.656C43.8516 336.656 48.0576 348.281 50.0205 352.594C50.1411 352.85 50.199 353.131 50.1906 353.414C50.1813 353.696 50.1046 353.973 49.9681 354.22C49.8307 354.468 49.6373 354.679 49.4027 354.836C49.1681 354.994 48.8989 355.093 48.6185 355.125C38.15 356.719 22.4472 356.531 5.24894 354.281C2.34767 353.9 -0.401253 352.752 -2.71647 350.957C-5.0317 349.162 -6.83097 346.783 -7.93016 344.063C-12.3512 333.058 -15.975 321.747 -18.7725 310.219C-25.0349 284.344 -24.2872 284.813 -37.7467 278.531C-36.7185 269.25 -36.812 260.344 -26.7174 259.031C-14.9403 257.531 -2.04163 263.344 16.4652 268.406C20.6713 264.656 24.5035 262.781 39.9259 271.875Z" fill="#45AAF7"/>
<path d="M-10.7343 260.438C-2.9764 262.312 5.80967 265.5 16.4651 268.406C19.5496 265.688 22.4471 263.906 29.8312 266.813C30.105 267.514 30.3237 268.235 30.4854 268.969C33.8503 285.75 40.2062 313.219 21.1386 311.719C2.07092 310.219 -0.0788689 298.875 0.481941 288.562C1.04276 278.25 2.25785 272.531 0.481941 269.531C-1.29396 266.531 -7.55637 261.281 -10.7343 260.438Z" fill="#287CEB"/>
<path d="M-27.8391 284.156C-26.5306 273.188 -25.6894 267.938 -22.6983 265.875C-19.7073 263.813 -18.6792 264.469 -14.7535 265.313C-10.8278 266.156 -5.87397 267.656 0.481903 269.531C12.3524 273 27.1205 277.406 32.7286 277.031L34.598 276.75C33.2895 275.344 25.2512 272.438 19.9234 270.469L16.1847 269.063C16.0968 269.041 16.0146 269.002 15.9426 268.947C15.8706 268.892 15.8108 268.823 15.7669 268.744C15.723 268.664 15.6958 268.577 15.6874 268.486C15.679 268.396 15.6893 268.305 15.7173 268.219L16.4651 268.406L17.1194 267.844L20.4843 269.063C32.9156 273.656 36.4674 275.25 36.187 277.031C35.9066 278.813 34.5046 278.438 32.8221 278.531C27.0271 278.906 12.7263 274.688 0.0145607 270.938C-6.24785 269.063 -11.669 267.469 -15.0339 266.813C-18.3988 266.156 -20.5486 266.156 -21.8571 267.094C-23.1657 268.031 -25.222 274.594 -26.4371 285.656L-27.8391 284.156Z" fill="black"/>
<path d="M28.4287 235.688C28.3352 235.969 28.2418 236.156 28.1483 236.156C28.0548 236.156 27.9614 236.063 27.8679 235.781" fill="black"/>
<path d="M12.5389 231.375C22.6336 235.313 36.7474 243.563 48.8983 250.406C55.628 254.156 57.6844 256.406 54.1326 263.25C50.5807 270.094 43.851 276.656 38.8036 281.156C33.7563 285.656 30.9523 283.781 27.2135 281.344L0.574917 263.719L-13.5389 232.313C-7.65034 228.188 2.35084 227.344 12.5389 231.375Z" fill="#2835BD"/>
<path d="M41.0469 268.594C36.7473 269.438 36.7473 269.906 31.4196 266.438C26.0919 262.969 -0.733683 246.75 -3.44428 244.969" stroke="#4150F2" stroke-width="2" stroke-miterlimit="10" stroke-linecap="round"/>
<path d="M-26.4371 221.437C-22.231 218.344 -19.3335 218.156 3.28596 216.281C25.9054 214.406 36.4674 212.062 39.0845 216.187C41.7017 220.312 39.3649 230.625 36.7478 238.406C34.1307 246.187 32.6352 248.719 28.9899 249C25.3446 249.281 -8.67805 250.406 -14.9405 251.062L-18.0249 256.312L-47.0937 241.594C-47.0937 241.594 -30.5497 224.531 -26.4371 221.437Z" fill="#3442D9"/>
<path d="M45.347 262.312C50.9552 257.719 53.1984 256.875 52.5442 259.969C51.8899 263.062 48.3381 267.656 44.5058 271.781C40.6736 275.906 36.2806 280.125 34.7851 279.844C33.2896 279.562 35.0655 276.75 37.4022 272.25C39.3978 268.461 42.0943 265.089 45.347 262.312Z" fill="black"/>
<path d="M39.1779 269.156L43.8514 272.437L47.6836 275.156C52.2635 278.531 50.3942 281.25 50.0203 284.437C49.6464 287.625 50.6746 289.969 52.8244 289.969C54.9741 289.969 58.1521 280.969 60.3953 276.656C62.6386 272.344 70.0226 268.875 73.8548 265.594C75.4438 264.187 75.8177 261.844 73.8548 261.094C74.696 259.875 75.8177 256.781 73.0136 255.844C70.2096 254.906 66.0035 260.062 63.6667 261.656C61.33 263.25 58.4325 264.75 56.2827 263.812C54.805 263.152 53.3693 262.401 51.9831 261.562L48.8052 259.594L45.3468 262.312C42.9998 264.312 40.9258 266.613 39.1779 269.156Z" fill="#FF78B9"/>
<path d="M45.3465 262.312L48.8048 259.594C49.6461 259.5 50.1134 259.5 50.4873 259.781C50.8611 260.062 50.7677 260.25 50.6742 260.719C48.5244 260.344 43.1967 264.187 43.0098 271.781C41.7947 272.344 41.1404 272.719 40.673 272.437C40.2057 272.156 39.5514 270.844 39.1776 269.156C40.9254 266.613 42.9995 264.312 45.3465 262.312Z" fill="black"/>
<path d="M53.5721 285.844C54.5068 282.281 57.6847 274.969 60.3953 272.063C63.1059 269.156 67.4055 262.313 68.8075 260.063C70.2096 257.813 73.8549 255 74.6961 257.531C74.8783 258.783 74.5773 260.057 73.8548 261.094C75.8177 261.844 75.4438 264.188 73.8548 265.594C70.0226 268.875 62.8255 271.875 60.3953 276.656C57.9651 281.438 56.2827 288.375 53.6656 289.781L52.9178 289.969C52.4505 289.875 52.7309 288.563 53.5721 285.844Z" fill="#DE3A93"/>
<path d="M-79.3409 262.219C-75.6022 264.75 -67.6574 268.594 -62.6101 269.719C-61.3492 269.978 -60.0649 270.104 -58.7778 270.094C-56.7533 270.17 -54.7419 269.748 -52.9173 268.866C-51.0928 267.982 -49.5113 266.667 -48.3093 265.031L-43.449 258.187C-39.2429 252.187 -33.9151 244.781 -30.0829 239.437C-29.9894 239.25 -29.9894 239.156 -29.896 239.062C-24.1009 230.906 -21.0164 227.344 -16.7169 226.687C-12.4173 226.031 0.0140553 224.906 21.7923 223.219C27.2135 222.844 28.0547 222.937 29.0828 225.375C29.1127 225.467 29.1623 225.551 29.2277 225.621C29.2931 225.692 29.3735 225.747 29.4623 225.783C29.5521 225.818 29.6474 225.834 29.7437 225.829C29.8399 225.823 29.9334 225.796 30.0175 225.75C30.1895 225.669 30.3288 225.533 30.4138 225.363C30.4989 225.193 30.5241 224.999 30.4849 224.812C28.9894 221.156 26.7461 221.344 21.6988 221.719C8.98705 222.75 -12.7912 224.437 -16.9973 225.187C-21.2034 225.937 -25.7833 230.719 -31.1111 238.219C-31.1111 238.312 -31.2045 238.406 -31.298 238.5C-35.1302 243.844 -40.3645 251.344 -44.664 257.25L-49.5244 264.187C-52.1415 267.844 -56.9084 269.344 -62.2362 268.219C-67.5639 267.094 -76.2565 262.594 -79.154 260.531C-79.2625 261.088 -79.325 261.652 -79.3409 262.219Z" fill="#5865F2"/>
<path d="M36.1873 217.781C38.8979 220.313 37.4958 225.281 35.6264 232.125C33.7571 238.969 31.4204 245.156 30.2053 244.969C28.9902 244.781 28.3359 242.344 28.0555 238.781C27.7751 235.219 27.8685 228.844 29.2706 224.063C30.6726 219.281 34.131 215.813 36.1873 217.781Z" fill="black"/>
<path d="M27.868 235.781L34.7847 234.938C38.1496 234.469 41.5145 234.188 44.8794 234C45.5336 238.031 46.9357 243.188 48.8985 245.25C50.8614 247.313 54.3197 247.219 54.6936 242.531C55.0675 237.844 54.7871 231.188 57.8715 217.313C58.9932 212.156 61.0495 209.063 61.7972 205.125C62.545 201.188 60.3017 200.531 58.2454 200.906C58.7128 198.281 58.5258 194.906 55.2544 194.438C51.983 193.969 50.6744 196.781 50.6744 200.438C50.1893 199.764 49.4902 199.276 48.691 199.055C47.8928 198.833 47.0432 198.891 46.2814 199.219C44.0381 200.063 43.5708 202.875 43.8512 207.375C44.1316 211.875 44.2251 216.656 42.3557 218.25C40.4863 219.844 40.019 219.281 37.4018 219.656L31.046 220.219C30.288 221.416 29.6907 222.709 29.2701 224.063C28.3036 227.892 27.8325 231.831 27.868 235.781Z" fill="#FF78B9"/>
<path d="M27.8685 235.781C27.833 231.831 28.3041 227.892 29.2706 224.062C29.6912 222.709 30.2884 221.416 31.0465 220.219H31.8877C29.551 223.219 28.1489 231.094 31.8877 235.313C31.3615 235.76 30.7605 236.108 30.1118 236.344C29.322 236.42 28.5303 236.222 27.8685 235.781Z" fill="black"/>
<path d="M46.1879 204.75C45.8141 200.344 48.8985 198.469 50.6744 200.438C50.6744 196.781 51.8895 193.969 55.2544 194.438C58.6193 194.906 58.7128 198.281 58.2454 200.906C60.3017 200.531 62.545 201.281 61.7972 205.125C61.0495 208.969 58.9932 212.156 57.8715 217.313C54.7871 231.188 55.1609 237 54.6936 242.531C54.687 243.646 54.3272 244.73 53.6654 245.625C51.5157 247.875 50.581 245.156 50.6744 241.031C50.7258 234.576 50.351 228.125 49.5528 221.719C48.6181 214.219 46.4683 209.156 46.1879 204.75Z" fill="#DE3A93"/>
<path d="M54.8809 194.438C51.9833 194.344 51.8899 198 51.9833 202.031L50.6748 200.438C50.6748 196.969 51.7964 194.156 54.8809 194.438Z" fill="#FF78B9"/>
<path d="M40.2993 305.625C40.3928 307.219 40.5797 309 40.7667 310.875L19.8297 313.219L41.8883 320.156C42.3557 323.344 42.823 326.25 43.2903 328.969L28.7092 330.469C33.6631 332.25 39.0842 334.125 44.8793 336.375C45.627 339.687 46.3748 342.5 47.1226 344.812L40.2993 345L47.9638 347.156C48.5255 349.013 49.2125 350.83 50.0201 352.594C50.1154 352.835 50.1781 353.087 50.207 353.344C41.8883 350.719 33.4761 348.563 25.3443 346.781C17.0424 348.284 8.85831 350.383 0.855518 353.063C-1.16715 352.209 -2.98419 350.931 -4.47221 349.312C-1.29428 348.188 3.37917 346.688 9.08076 345.094L12.3522 344.25C4.59426 342.938 -2.60284 341.813 -9.14566 340.969C-10.1738 338.344 -11.2954 335.25 -12.4171 331.875C-6.34159 330.469 -0.0791702 329.344 5.9963 328.313C-2.78976 325.594 -9.70646 323.625 -15.5015 322.219C-16.4362 319.031 -17.3709 315.656 -18.3056 312.094L-5.6873 310.781L-19.6142 306.469L-21.1096 300.562L7.39833 309.281L40.2993 305.625ZM-6.71546 336C2.81836 337.313 13.9411 339 25.5313 341.531C29.8935 340.781 34.4734 340.219 39.2712 339.844C30.9524 336.75 23.6619 334.125 17.1191 331.969C9.54811 333 1.32286 334.313 -6.71546 336ZM-14.7538 316.969C-6.80893 318.938 3.47264 321.844 17.5864 326.625C25.1574 325.594 31.9806 324.844 37.4953 324.281L6.83752 314.625L-14.7538 316.969Z" fill="#3F4EEB"/>
<path d="M39.9257 298.219C40.0191 300 40.0191 301.969 40.2061 304.219C16.278 303.469 -11.1083 300.562 -21.3899 299.344C-21.9507 296.906 -22.5115 294.844 -23.0723 293.062C-15.6883 294 14.1283 297.469 39.9257 298.219Z" fill="#3F4EEB"/>
<path d="M-0.546057 348L-4.47176 349.312C-2.98374 350.931 -1.16669 352.209 0.855975 353.063L4.59473 351.844C2.63188 350.938 0.880277 349.628 -0.546057 348Z" fill="black"/>
<path d="M47.9638 347.156L43.2903 345.844C43.9446 347.906 44.5989 349.875 45.3466 351.844L50.207 353.344C50.1781 353.087 50.1154 352.835 50.0201 352.594C49.2125 350.83 48.5255 349.013 47.9638 347.156Z" fill="black"/>
<path d="M44.8798 336.375L40.6737 334.781C41.328 338.344 42.0757 341.625 43.0104 344.906H47.123C46.3753 342.532 45.6275 339.687 44.8798 336.375Z" fill="black"/>
<path d="M41.888 320.156L38.4297 319.031C38.8035 322.688 39.2709 326.062 39.7382 329.344L43.29 328.969C42.8227 326.25 42.3554 323.344 41.888 320.156Z" fill="black"/>
<path d="M40.2993 305.625L37.1213 306L37.6821 311.156L40.7666 310.875C40.5797 309 40.3927 307.219 40.2993 305.625Z" fill="black"/>
<path d="M36.3739 298.125L36.9346 304.125H40.2061C40.0191 301.875 40.0191 299.906 39.9257 298.125H36.3739Z" fill="black"/>
</g>
</g>
<mask id="mask1_131_3196" style="mask-type:alpha" maskUnits="userSpaceOnUse" x="0" y="0" width="1436" height="441">
<rect width="1436" height="441" rx="56" fill="url(#paint2_linear_131_3196)"/>
</mask>
<g mask="url(#mask1_131_3196)">
<g clip-path="url(#clip1_131_3196)">
<path d="M1000.84 440.373H1173.51V386.584C1133.3 348.358 1087.44 374.678 1084.4 403.087C1038.64 373.424 995.602 397.133 1000.84 440.373Z" fill="#E85DFE"/>
<path d="M1173.51 298.433H1629.65V440.373H1173.51V298.433Z" fill="#5865F2"/>
<path d="M1629.65 342.3L1173.51 305.64V298.433H1629.65V342.3Z" fill="#4B59F2"/>
<path d="M1173.51 298.433H1176.86V440.373H1173.51V298.433Z" fill="#3543DE"/>
<path d="M1214.67 298.433H1218.02V440.373H1214.67V298.433Z" fill="#3543DE"/>
<path d="M1255.82 298.433H1259.17V440.373H1255.82V298.433Z" fill="#3543DE"/>
<path d="M1296.97 298.433H1300.32V440.373H1296.97V298.433Z" fill="#3543DE"/>
<path d="M1338.23 298.433H1341.58V440.373H1338.23V298.433Z" fill="#3543DE"/>
<path d="M1379.38 298.433H1382.73V440.373H1379.38V298.433Z" fill="#3543DE"/>
<path d="M1420.54 298.433H1423.89V440.373H1420.54V298.433Z" fill="#3543DE"/>
<path d="M1510.91 294.882C1512.58 252.687 1511.53 217.593 1510.17 198.898C1517.19 194.302 1520.43 190.751 1521.8 188.767C1522.08 188.384 1522.22 187.918 1522.2 187.442C1522.18 186.968 1522 186.514 1521.69 186.156C1510.59 172.264 1501.06 160.149 1491.11 154.509C1481.17 148.869 1467.55 147.407 1445.88 168.922C1445.67 169.198 1445.57 169.537 1445.59 169.881C1445.6 170.226 1445.75 170.552 1445.98 170.802C1447.7 172.507 1449.52 174.111 1451.43 175.607C1447.03 183.44 1440.64 195.347 1440.64 195.347H1435.62C1432.39 195.347 1429.3 196.623 1427.03 198.896C1424.75 201.167 1423.47 204.248 1423.47 207.462C1423.36 217.176 1425.67 228.873 1430.17 243.913C1410.06 260.207 1414.99 294.778 1414.99 294.778L1510.91 294.882Z" fill="#29CC7A"/>
<path d="M1430.17 243.913C1429.54 241.72 1428.91 239.735 1428.39 237.647L1444.2 246.42C1444.2 246.42 1469.23 229.604 1511.22 219.16C1511.95 238.587 1512.06 264.907 1510.91 294.882H1414.99C1414.99 294.882 1410.06 260.207 1430.17 243.913Z" fill="#8CD9FF"/>
<path d="M1426.19 247.778C1427.41 246.385 1428.74 245.093 1430.17 243.913C1429.54 241.72 1428.91 239.735 1428.39 237.647L1444.2 246.42C1444.2 246.42 1469.23 229.604 1511.22 219.16C1511.32 221.562 1511.43 224.173 1511.43 226.784C1479.28 240.049 1462 262.818 1460.01 294.882H1436.24C1432.06 276.5 1428.7 260.415 1426.19 247.778Z" fill="#BAE8FF"/>
<path d="M1443.36 213.729C1451.45 213.755 1459.29 210.987 1465.56 205.896C1472.06 200.569 1469.44 199.942 1465.35 199.838C1461.27 199.733 1441.69 200.465 1436.03 201.3C1430.38 202.136 1429.33 213.311 1443.36 213.729Z" fill="#912869"/>
<path d="M1443.36 213.729C1451.45 213.755 1459.29 210.987 1465.56 205.896C1472.06 200.569 1469.44 199.942 1465.35 199.838C1461.27 199.733 1441.69 200.465 1436.03 201.3C1430.38 202.136 1429.33 213.311 1443.36 213.729Z" fill="#611B46"/>
<path d="M1443.78 225.427L1444.2 221.562C1441.24 221.327 1438.36 220.51 1435.72 219.16" stroke="black" stroke-width="2" stroke-linecap="round" stroke-linejoin="round"/>
<path d="M1502.32 163.491C1464.94 162.969 1452.27 158.791 1441.58 154.927C1430.9 151.062 1431.95 148.033 1440.12 148.347C1448.29 148.66 1476.25 159.313 1502.32 163.491Z" fill="#FFF4B3"/>
<path d="M1409.02 241.824L1424.73 222.92L1451.53 249.553L1432.58 265.324C1432.79 267.1 1432.58 268.458 1431.64 269.398C1428.81 272.218 1420.54 268.562 1413.1 261.251C1405.67 253.94 1402.11 245.584 1404.93 242.764C1405.88 241.824 1407.24 241.615 1409.02 241.824Z" fill="white"/>
<path d="M1434.61 239.817C1427.24 232.474 1422.87 224.936 1424.83 222.978C1426.79 221.02 1434.35 225.385 1441.71 232.727C1449.07 240.069 1453.45 247.607 1451.49 249.566C1449.52 251.523 1441.97 247.158 1434.61 239.817Z" fill="white"/>
<path d="M1436.43 238.027C1429.76 231.378 1425.28 225.062 1426.43 223.921C1427.57 222.778 1433.91 227.242 1440.57 233.891C1447.24 240.539 1451.71 246.855 1450.57 247.997C1449.42 249.139 1443.09 244.675 1436.43 238.027Z" fill="#BAE8FF"/>
<path d="M1410.48 233.887C1405.98 234.513 1404.2 238.587 1405.98 244.018C1406.18 244.596 1406.53 245.112 1406.99 245.517C1407.45 245.922 1408.01 246.201 1408.61 246.326C1409.21 246.452 1409.83 246.422 1410.42 246.237C1411 246.051 1411.53 245.719 1411.95 245.271C1412.98 244.176 1413.61 242.758 1413.73 241.256C1413.84 239.754 1413.44 238.26 1412.58 237.02L1410.48 233.887Z" fill="#29CC7A"/>
<path d="M1418.34 230.753C1418.55 234.618 1420.85 238.482 1422.53 240.989C1422.98 241.692 1423.18 242.526 1423.11 243.358C1423.03 244.19 1422.68 244.973 1422.11 245.584L1421.27 246.316C1421 246.593 1420.67 246.814 1420.31 246.965C1419.95 247.116 1419.57 247.193 1419.17 247.193C1418.79 247.193 1418.4 247.116 1418.04 246.965C1417.68 246.814 1417.35 246.593 1417.08 246.316C1413.93 243.443 1411.7 239.698 1410.69 235.558C1409.44 229.918 1413.52 225.949 1420.64 227.829L1418.34 230.753Z" fill="#29CC7A"/>
<path d="M1156.65 298.433H1639.5" stroke="#2835BD" stroke-width="8" stroke-linecap="round" stroke-linejoin="round"/>
<path d="M1441.48 251.538L1430.17 261.878C1429.81 262.189 1429.37 262.377 1428.9 262.415C1428.42 262.452 1427.95 262.337 1427.55 262.087C1427.3 261.907 1427.09 261.672 1426.93 261.401C1426.78 261.13 1426.69 260.828 1426.67 260.518C1426.65 260.208 1426.7 259.896 1426.82 259.608C1426.93 259.319 1427.11 259.06 1427.34 258.849L1438.34 248.3C1438.67 247.996 1439.09 247.802 1439.54 247.746C1439.99 247.69 1440.45 247.774 1440.85 247.987L1441.16 248.195C1441.45 248.365 1441.68 248.597 1441.85 248.873C1442.03 249.149 1442.14 249.462 1442.17 249.787C1442.2 250.112 1442.15 250.44 1442.03 250.744C1441.91 251.048 1441.72 251.319 1441.48 251.538Z" fill="#BAE8FF"/>
<path d="M1413.1 243.078C1411.19 240.549 1410 237.555 1409.65 234.409" stroke="black" stroke-width="2" stroke-linecap="round" stroke-linejoin="round"/>
<path d="M1320.23 98.6643C1319.28 94.1489 1322.27 89.6977 1326.91 88.7223C1331.55 87.747 1336.08 90.6168 1337.04 95.1322C1337.99 99.6478 1335 104.099 1330.36 105.074C1325.72 106.05 1321.18 103.18 1320.23 98.6643Z" fill="#2A39D4"/>
<path d="M1264.2 176.233C1256.55 176.651 1247.34 179.785 1235.82 192.527C1229.33 186.051 1226.19 187.827 1217.5 195.242C1208.8 202.658 1190.16 216.758 1185.56 221.458C1180.95 226.158 1177.49 236.289 1190.06 243.913C1202.63 251.538 1224.93 237.542 1236.66 229.396C1248.39 221.249 1264.2 211.745 1264.2 211.745V176.233Z" fill="#2331B5"/>
<path d="M1220.95 192.318C1217.91 197.321 1215.35 202.601 1213.31 208.089C1210.9 215.609 1213.93 219.996 1220.11 225.113C1226.29 230.231 1228.8 229.082 1232.05 226.471C1232.25 226.359 1232.48 226.322 1232.7 226.366C1232.92 226.409 1233.12 226.53 1233.26 226.707C1233.4 226.885 1233.47 227.105 1233.46 227.331C1233.45 227.555 1233.36 227.769 1233.2 227.933C1231.54 229.386 1229.44 230.233 1227.23 230.336C1224.62 230.336 1222 229.082 1218.86 226.471C1213.52 221.98 1208.49 216.862 1211.63 207.462C1212.8 204.08 1214.23 200.797 1215.92 197.645C1216.58 196.38 1217.47 195.246 1218.54 194.302L1220.95 192.318Z" fill="#3442D9"/>
<path d="M1236.76 223.547C1231.11 228.978 1217.6 238.587 1217.6 238.587" stroke="black" stroke-width="2" stroke-miterlimit="10" stroke-linecap="round"/>
<path d="M1292.28 174.901C1265.19 167.204 1248.87 141.223 1255.83 116.869C1262.78 92.5144 1290.38 79.0105 1317.47 86.7064C1344.56 94.4024 1360.88 120.384 1353.92 144.738C1346.96 169.092 1319.37 182.596 1292.28 174.901Z" fill="#FF78B9"/>
<path d="M1340.54 125.787C1340.54 135.813 1335.72 144.691 1329.75 145.631C1323.78 146.571 1322.32 141.349 1322.11 131.636C1322.11 129.129 1322 126.622 1321.79 124.011C1321.16 115.029 1324.41 110.12 1329.75 109.285C1335.09 108.449 1340.54 115.76 1340.54 125.787Z" fill="white"/>
<path d="M1296.14 126.413C1297.17 125.069 1297.79 123.448 1297.9 121.756C1298.01 120.064 1297.61 118.377 1296.76 116.909C1288.39 102.705 1280.74 102.182 1275.3 102.496C1269.85 102.809 1265.66 107.927 1270.17 120.878C1263.78 127.771 1266.4 134.142 1275.51 134.978C1284.62 135.813 1289.54 135.082 1296.14 126.413Z" fill="#D11583"/>
<path d="M1236.24 265.638C1234.98 231.38 1245.98 226.993 1247.02 216.758C1248.07 206.522 1249.12 192.736 1260.43 177.905C1260.43 177.905 1259.07 164.014 1258.33 154.718C1258.31 154.352 1258.38 153.987 1258.52 153.647C1258.66 153.308 1258.87 153.003 1259.14 152.754C1259.41 152.505 1259.73 152.318 1260.08 152.207C1260.43 152.095 1260.8 152.061 1261.16 152.107C1268.5 153.272 1275.93 153.727 1283.36 153.465C1296.14 153.047 1313.41 151.794 1331.84 169.653L1325.88 178.009L1326.29 178.74C1326.59 179.244 1326.77 179.806 1326.82 180.388C1326.88 180.969 1326.8 181.555 1326.6 182.103C1326.4 182.653 1326.08 183.15 1325.67 183.561C1325.25 183.973 1324.75 184.288 1324.2 184.485L1323.05 184.902C1323.05 184.902 1339.91 195.033 1334.88 217.907C1329.85 240.78 1335.19 262.922 1326.71 269.711C1325 271.072 1322.96 271.968 1320.79 272.316C1318.63 272.664 1316.41 272.45 1314.36 271.696L1275.51 292.376C1261.37 307.938 1241.27 325.38 1241.27 325.38L1256.76 362.249L1240.43 403.296C1226.5 369.247 1208.17 335.825 1204.93 320.367C1201.68 304.909 1212.15 295.822 1236.24 265.638Z" fill="#2331B5"/>
<path d="M1251.53 382.302C1243.78 358.384 1235.09 336.764 1232.47 330.498C1232.25 329.947 1232.2 329.344 1232.33 328.765C1232.46 328.187 1232.77 327.662 1233.2 327.26C1255.82 305.64 1261.16 298.224 1261.16 298.224" stroke="#3442D9" stroke-width="2" stroke-miterlimit="10"/>
<path d="M1311.32 250.911L1325.35 241.407C1325.35 241.407 1316.87 229.813 1312.16 222.816L1311.01 221.04C1310.96 220.935 1310.89 220.84 1310.81 220.76C1310.73 220.682 1310.63 220.62 1310.52 220.582C1310.41 220.542 1310.3 220.525 1310.18 220.532C1310.07 220.54 1309.96 220.57 1309.85 220.622C1309.66 220.712 1309.5 220.865 1309.41 221.054C1309.31 221.244 1309.29 221.459 1309.33 221.667C1312.37 240.153 1311.32 250.911 1311.32 250.911Z" fill="black"/>
<path d="M1258.54 156.493C1265.98 159 1275.82 158.896 1287.55 158.582C1299.28 158.269 1311.11 157.956 1330.48 171.533L1327.34 176.024C1309.44 163.387 1299.8 163.7 1287.65 164.013C1275.51 164.327 1266.92 164.431 1258.96 162.342C1258.86 160.358 1258.65 158.373 1258.54 156.493Z" fill="#3442D9"/>
<path d="M1264.2 263.967C1263.96 263.968 1263.74 263.883 1263.57 263.73C1263.39 263.575 1263.28 263.362 1263.26 263.131C1263.05 246.316 1269.43 229.187 1272.16 222.607C1275.01 215.829 1276.75 208.633 1277.29 201.3C1278.12 191.796 1280.11 184.38 1281.37 181.456L1277.81 153.465H1279.7L1283.26 181.769V181.978C1282.1 184.484 1280.01 191.9 1279.17 201.509C1278.62 209.008 1276.89 216.375 1274.04 223.338C1271.21 229.813 1264.93 246.629 1265.14 263.027C1265.14 263.276 1265.04 263.516 1264.86 263.691C1264.69 263.867 1264.45 263.967 1264.2 263.967Z" fill="black"/>
<path d="M1203.67 426.9C1204.05 426.349 1204.54 425.891 1205.12 425.565C1205.71 425.239 1206.36 425.052 1207.02 425.02C1206.4 421.26 1207.13 418.127 1212.05 416.978C1217.73 415.756 1223.63 415.934 1229.22 417.5C1238.86 392.851 1257.92 327.887 1271.21 280.469L1314.36 271.696C1314.78 283.498 1307.03 309.504 1301.37 331.856C1295.72 354.207 1283.26 400.998 1279.8 417.918C1277.71 428.153 1274.67 440.373 1274.67 440.373H1234.67C1222.94 440.373 1207.86 435.778 1204.93 433.48C1202 431.182 1202.63 428.78 1203.67 426.9Z" fill="#2331B5"/>
<path d="M1267.86 416.247C1280.22 377.393 1298.23 325.171 1309.23 272.113" stroke="#3442D9" stroke-width="2" stroke-miterlimit="10"/>
<path d="M1288.39 265.638C1288.18 262.609 1292.37 251.225 1297.39 242.973C1302.42 234.722 1304.93 228.873 1309.64 231.589C1314.36 234.305 1325.35 241.407 1325.35 241.407C1325.35 241.407 1316.87 229.813 1312.16 222.816C1302 207.567 1305.56 186.573 1323.05 184.902C1337.39 192.84 1339.59 199.629 1353.21 223.547C1366.82 247.465 1374.88 272.949 1360.22 283.498C1345.56 294.047 1331.43 286.736 1305.04 275.142C1293.62 270.233 1288.49 268.771 1288.39 265.638Z" fill="#2331B5"/>
<path d="M1304.83 273.576C1307.76 272.218 1310.38 267.831 1313.52 258.849C1318.76 243.704 1320.12 239.109 1316.87 235.976L1318.86 237.229C1319.33 237.512 1319.72 237.91 1320 238.384C1320.27 238.859 1320.42 239.396 1320.43 239.944C1320.54 243.913 1318.55 249.762 1315.19 259.476C1313.1 265.533 1311.22 269.607 1309.23 272.113C1308.47 273.175 1307.37 273.941 1306.11 274.285C1304.85 274.627 1303.51 274.524 1302.31 273.993C1303.17 274.077 1304.04 273.933 1304.83 273.576Z" fill="#3442D9"/>
<path d="M1297.39 242.973C1302.31 234.722 1304.93 228.873 1309.64 231.589C1314.36 234.305 1338.44 249.449 1338.44 249.449" stroke="black" stroke-width="2" stroke-miterlimit="10" stroke-linecap="round"/>
<path d="M1243.25 182.918C1246.49 161.212 1247.72 139.256 1246.92 117.327C1246.9 116.627 1247.04 115.931 1247.33 115.295C1247.63 114.658 1248.07 114.1 1248.62 113.663C1249.16 113.227 1249.81 112.925 1250.5 112.781C1251.18 112.637 1251.89 112.656 1252.57 112.836L1278.65 120.147" stroke="#66BCFF" stroke-width="4" stroke-miterlimit="10" stroke-linecap="round"/>
<path d="M1260.01 184.693C1257.5 189.498 1252.99 198.062 1252.05 200.882C1251.74 205.269 1251.95 212.789 1251.95 215.087C1251.93 215.3 1251.86 215.503 1251.73 215.672C1251.6 215.839 1251.42 215.963 1251.21 216.027C1244.09 217.071 1241.06 217.176 1238.12 216.862C1235.19 216.549 1231.11 215.191 1228.28 214.356C1227.98 214.239 1227.74 214.01 1227.6 213.718C1227.46 213.427 1227.44 213.094 1227.55 212.789C1230.17 204.224 1231.95 198.062 1231.95 198.062C1232.47 187.409 1232.57 178.949 1232.57 176.129C1232.57 175.852 1232.68 175.587 1232.88 175.39C1233.08 175.194 1233.34 175.084 1233.62 175.084C1243.36 174.458 1246.71 174.458 1250.27 174.667C1253.83 174.876 1254.98 176.964 1259.9 182.813C1260.12 183.073 1260.25 183.397 1260.27 183.736C1260.29 184.075 1260.2 184.411 1260.01 184.693Z" fill="white"/>
<path d="M1228.59 213.52C1228.59 213.52 1227.44 213.938 1228.28 214.356C1227.98 214.239 1227.74 214.01 1227.6 213.718C1227.46 213.427 1227.44 213.094 1227.55 212.789C1230.17 204.224 1231.95 198.062 1231.95 198.062C1232.47 187.409 1232.57 178.949 1232.57 176.129C1232.57 175.852 1232.68 175.587 1232.88 175.39C1233.08 175.194 1233.34 175.084 1233.62 175.084C1243.36 174.458 1246.71 174.458 1250.27 174.667C1251.03 174.718 1251.77 174.894 1252.47 175.189L1243.25 194.616L1243.88 212.476L1228.59 213.52Z" fill="#FFE75C"/>
<path d="M1242.73 212.998C1240.95 219.369 1239.38 223.86 1235.4 224.695C1231.42 225.531 1226.71 221.458 1220.64 215.4C1214.56 209.342 1216.66 204.224 1219.27 199.42C1221.89 194.615 1222.31 188.558 1225.56 186.051C1229.58 183.104 1233.89 180.583 1238.44 178.531C1242.1 176.964 1244.3 176.964 1249.85 183.231C1255.4 189.498 1258.65 193.153 1257.71 195.66C1256.76 198.167 1255.19 200.882 1255.19 200.882C1257.71 203.389 1257.71 205.478 1256.66 208.089C1255.61 210.7 1255.19 213.102 1249.85 213.102L1242.73 212.998Z" fill="#FF78B9"/>
<path d="M1254.98 199.733L1240.32 185.947" stroke="black" stroke-width="2" stroke-miterlimit="10" stroke-linecap="round"/>
<path d="M1241.58 205.165C1244.87 207.237 1248.3 209.085 1251.84 210.7C1251.95 212.685 1251.95 214.251 1251.95 215.087C1251.93 215.3 1251.86 215.504 1251.73 215.672C1251.6 215.839 1251.42 215.963 1251.21 216.027C1244.09 217.071 1241.06 217.176 1238.12 216.862C1235.19 216.549 1231.11 215.191 1228.28 214.356C1227.98 214.239 1227.74 214.01 1227.6 213.719C1227.46 213.427 1227.44 213.094 1227.55 212.789L1228.18 210.7C1232.85 209.397 1237.35 207.539 1241.58 205.165Z" fill="white"/>
<path d="M1228.18 210.7C1232.85 209.397 1237.35 207.539 1241.58 205.165L1243.67 206.522L1243.88 212.267C1243.86 212.339 1243.82 212.405 1243.76 212.458C1243.71 212.512 1243.64 212.554 1243.57 212.58L1228.6 213.52C1228.6 213.52 1227.44 213.938 1228.28 214.356C1227.97 214.243 1227.71 214.02 1227.55 213.729C1227.55 213.625 1227.44 213.416 1227.44 213.311C1227.43 213.131 1227.46 212.95 1227.55 212.789L1228.18 210.805V210.7Z" fill="#FFE75C"/>
<path d="M1305.98 234.2C1302.69 230.374 1300.26 225.886 1298.86 221.04C1297.81 217.907 1296.66 213.416 1296.24 211.744C1295.82 210.073 1293.83 209.133 1291.42 209.656C1289.02 210.178 1287.97 210.596 1288.39 214.878C1288.81 219.16 1289.75 229.291 1289.75 229.291L1305.98 234.2Z" fill="#FF78B9"/>
<path d="M1257.81 236.707C1259.38 232.424 1260.11 230.231 1261.48 228.456C1262.84 226.68 1264.09 226.367 1270.17 226.053C1272.58 225.949 1277.18 226.053 1280.22 226.158C1274.25 224.591 1267.86 223.233 1266.5 222.816C1265.14 222.398 1262.42 221.98 1263.36 219.369C1264.3 216.758 1265.14 216.131 1266.61 216.131C1270.36 216.059 1274.12 216.375 1277.81 217.071C1283.2 218.124 1288.49 219.626 1293.62 221.562C1296.66 222.816 1300.53 228.456 1305.98 234.2C1303.57 242.66 1297.81 255.611 1291.95 261.773C1284.2 258.744 1279.59 252.06 1277.71 249.553C1267.97 247.882 1264.62 248.927 1259.17 249.658C1255.82 250.076 1255.51 247.673 1255.3 246.524C1255.09 245.376 1256.45 240.676 1257.81 236.707Z" fill="#FF78B9"/>
<path d="M1337.39 125.891C1337.71 130.278 1336.24 133.934 1334.15 134.142C1332.05 134.351 1331.01 132.68 1330.9 128.607C1330.85 126.885 1330.64 125.172 1330.27 123.489C1329.54 119.833 1331.11 118.476 1332.89 118.371C1334.67 118.267 1337.08 121.609 1337.39 125.891Z" fill="black"/>
<path d="M1301.48 74.2956C1299.3 73.8455 1297.04 74.202 1295.11 75.2981C1293.18 76.3943 1291.72 78.1547 1291 80.2489C1289.43 85.1578 1288.07 92.5734 1296.45 93.9311C1300.01 94.4534 1303.68 92.8867 1309.33 88.5C1313.41 85.2622 1317.81 84.1134 1327.34 89.0222C1332.47 85.4711 1329.96 76.3845 1316.03 80.98C1322.11 73.1467 1320.33 67.7156 1315.93 66.1489C1311.53 64.5823 1304.93 65.4178 1301.48 74.2956Z" fill="#2A39D4"/>
<path d="M1301.48 89.3356C1304.51 85.5756 1307.03 80.5623 1309.12 76.28C1311.22 71.9978 1313.31 67.5067 1315.61 66.1489H1315.93C1316.75 66.4358 1317.5 66.8993 1318.13 67.5067L1317.39 67.2978C1315.4 67.5067 1313.21 72.1022 1310.8 77.0111C1308.39 81.92 1306.08 86.5156 1302.94 90.4845C1301.89 91.7302 1300.69 92.8515 1299.38 93.8267C1298.42 94.0174 1297.43 94.0527 1296.45 93.9311H1296.35C1298.28 92.661 1300 91.1123 1301.48 89.3356Z" fill="black"/>
<path d="M1290.9 90.798C1291.35 91.4543 1291.92 92.0211 1292.58 92.4691C1293.07 85.5351 1296.18 79.0441 1301.27 74.2957C1300.48 74.1035 1299.66 74.068 1298.86 74.1913C1294.48 78.7239 1291.69 84.5501 1290.9 90.798Z" fill="black"/>
<path d="M1280.22 415.62C1280.12 416.456 1279.91 417.187 1279.8 417.918C1277.71 428.153 1274.67 440.373 1274.67 440.373H1234.67C1222.94 440.373 1207.86 435.778 1204.93 433.48C1202 431.182 1202.63 428.78 1203.67 426.9C1204.05 426.349 1204.54 425.891 1205.13 425.565C1205.71 425.238 1206.36 425.052 1207.02 425.02C1206.4 421.26 1207.13 418.127 1212.05 416.978C1217.73 415.755 1223.63 415.934 1229.22 417.5C1230.69 413.636 1232.47 408.831 1234.35 403.296C1251.95 402.982 1269.85 401.52 1280.22 415.62Z" fill="#45AAF7"/>
<path d="M1280.22 415.62C1280.12 416.456 1279.91 417.187 1279.8 417.918C1277.71 428.153 1274.67 440.373 1274.67 440.373H1234.67C1222.94 440.373 1207.86 435.778 1204.93 433.48C1202 431.182 1202.63 428.78 1203.67 426.9C1204.05 426.349 1204.54 425.891 1205.13 425.565C1205.71 425.238 1206.36 425.052 1207.02 425.02C1206.4 421.26 1207.13 418.127 1212.05 416.978C1217.73 415.755 1223.63 415.934 1229.22 417.5C1230.69 413.636 1232.47 408.831 1234.35 403.296C1251.95 402.982 1269.85 401.52 1280.22 415.62Z" fill="#45AAF7"/>
<path d="M1229.22 417.5L1230.58 417.813H1230.79L1242.21 420.111C1242.39 419.869 1242.5 419.578 1242.52 419.276C1243.38 416.322 1243.84 413.265 1243.88 410.189C1243.99 403.818 1247.34 403.191 1253.1 403.295L1252.78 402.564C1252.01 400.54 1250.63 398.802 1248.83 397.588C1247.03 396.373 1244.9 395.741 1242.73 395.776H1233.2C1232.64 395.783 1232.1 395.91 1231.59 396.149C1231.09 396.389 1230.64 396.732 1230.29 397.159C1229.93 397.586 1229.67 398.084 1229.52 398.62C1229.37 399.156 1229.34 399.718 1229.43 400.267C1230.58 405.175 1230.9 411.233 1229.75 415.724C1229.64 416.333 1229.46 416.929 1229.22 417.5Z" fill="#8CD9FF"/>
<path d="M1269.64 423.871C1271.07 423.395 1272.57 423.214 1274.06 423.341C1275.56 423.466 1277.01 423.895 1278.33 424.602C1278.24 425.239 1278.11 425.868 1277.92 426.482C1276.79 425.778 1275.52 425.329 1274.2 425.167C1272.88 425.004 1271.54 425.133 1270.27 425.542C1264.41 427.527 1260.11 435.151 1257.92 440.373H1255.93C1258.23 434.942 1262.84 426.169 1269.64 423.871Z" fill="#5865F2"/>
<path d="M1203.99 432.54L1204.93 433.48C1207.86 435.778 1222.94 440.373 1234.67 440.373H1258.54V439.956C1231.11 439.538 1212.47 428.153 1206.08 428.153C1203.99 428.153 1202.73 431.287 1203.99 432.54Z" fill="black"/>
<path d="M1230.27 209.238C1228.78 211.235 1226.63 212.641 1224.2 213.207" stroke="black" stroke-width="2" stroke-miterlimit="10" stroke-linecap="round"/>
<path d="M1276.24 201.196C1277.28 201.201 1278.29 200.819 1279.06 200.123C1279.84 199.428 1280.32 198.47 1280.43 197.436L1281.27 187.931H1279.38L1273.83 197.018C1273.6 197.442 1273.48 197.919 1273.48 198.404C1273.49 198.887 1273.62 199.363 1273.86 199.782C1274.1 200.202 1274.45 200.552 1274.86 200.8C1275.28 201.047 1275.75 201.184 1276.24 201.196Z" fill="#FFE75C"/>
<path d="M1323.05 184.902H1312.79" stroke="black" stroke-width="2" stroke-miterlimit="10" stroke-linecap="round"/>
<path d="M1264.72 303.551C1265.98 299.06 1267.86 292.689 1267.86 292.689C1259.44 287.213 1251.43 281.139 1243.88 274.516C1243.88 274.516 1252.57 293.733 1256.45 311.593L1264.72 303.551Z" fill="black"/>
<path d="M1241.27 325.38L1231.11 324.962" stroke="black" stroke-width="2" stroke-miterlimit="10" stroke-linecap="round"/>
<path d="M1229.22 417.5L1230.58 417.813H1230.79C1235.34 418.885 1239.82 420.246 1244.2 421.887H1244.51C1244.7 421.877 1244.88 421.812 1245.03 421.7C1245.17 421.589 1245.29 421.436 1245.35 421.26C1245.4 421.151 1245.42 421.033 1245.42 420.913C1245.42 420.794 1245.4 420.675 1245.35 420.567C1245.3 420.458 1245.23 420.361 1245.14 420.283C1245.05 420.203 1244.94 420.146 1244.83 420.111L1242.52 419.171C1238.34 417.722 1234.08 416.536 1229.75 415.62C1229.64 416.265 1229.47 416.895 1229.22 417.5Z" fill="black"/>
<path d="M1257.5 237.542L1257.81 236.707L1258.23 235.662C1267.34 234.722 1276.87 234.096 1286.19 235.036C1286.31 235.049 1286.43 235.088 1286.54 235.147C1286.65 235.207 1286.75 235.288 1286.82 235.385C1286.9 235.482 1286.96 235.593 1286.99 235.712C1287.03 235.831 1287.04 235.957 1287.03 236.08C1287.01 236.203 1286.97 236.323 1286.91 236.432C1286.85 236.541 1286.77 236.637 1286.67 236.714C1286.58 236.792 1286.47 236.85 1286.35 236.884C1286.23 236.919 1286.1 236.929 1285.98 236.916C1276.55 235.871 1266.82 236.602 1257.5 237.542Z" fill="black"/>
<path d="M1328.6 121.191L1334.67 124.116L1326.19 127.98L1328.6 121.191Z" fill="white"/>
<path d="M1203.99 432.54C1203.36 431.704 1204.09 431.182 1206.08 431.182C1212.47 431.182 1231.11 439.956 1258.54 440.373H1274.67L1275.82 435.778C1263.26 435.778 1249.54 435.569 1236.76 431.496C1223.99 427.422 1215.51 423.976 1207.02 425.02C1206.36 425.052 1205.71 425.238 1205.12 425.565C1204.54 425.891 1204.05 426.349 1203.67 426.9C1203.1 427.747 1202.83 428.755 1202.88 429.772C1202.94 430.79 1203.33 431.761 1203.99 432.54Z" fill="white"/>
<path d="M1236.76 399.118H1235.51C1232.57 399.118 1230.58 399.222 1229.96 399.953C1229.33 400.685 1229.64 400.998 1229.85 402.042C1229.76 401.44 1229.62 400.846 1229.43 400.267C1229.34 399.617 1229.51 398.958 1229.9 398.431C1230.29 397.903 1230.88 397.55 1231.53 397.447H1236.76C1241.58 397.447 1247.03 397.447 1249.85 403.609C1249.21 403.592 1248.57 403.699 1247.97 403.922C1245.56 399.013 1241.27 399.118 1236.76 399.118Z" fill="#3442D9"/>
<path d="M1276.24 115.447C1277.6 117.64 1280.01 120.147 1285.35 121.191C1278.02 120.356 1274.88 124.429 1274.88 124.429" stroke="black" stroke-width="2" stroke-linecap="round" stroke-linejoin="round"/>
<path d="M1412.68 440.373H1482.32V425.751C1482.33 421.972 1480.87 418.339 1478.24 415.62L1471.32 408.935C1470.44 408.103 1469.73 407.099 1469.25 405.987C1468.76 404.874 1468.5 403.674 1468.5 402.46V385.749C1468.49 382.402 1467.35 379.157 1465.25 376.541C1463.16 373.924 1460.25 372.09 1456.98 371.335C1445.77 368.515 1434.15 367.993 1424.62 369.873C1421.25 370.57 1418.22 372.404 1416.05 375.067C1413.87 377.732 1412.68 381.06 1412.68 384.495V440.373Z" fill="#45AAF7"/>
<path d="M1412.68 384.495C1412.69 381.046 1413.89 377.706 1416.09 375.04C1418.28 372.375 1421.33 370.549 1424.73 369.873C1430.33 368.912 1436.02 368.597 1441.69 368.933C1455.09 369.873 1453.1 378.333 1453.1 390.658V401.207C1453.1 404.732 1454.04 408.194 1455.83 411.233C1457.82 414.471 1458.34 418.44 1458.34 426.169V440.373H1412.68V384.495Z" fill="#3F99F2"/>
<path d="M1429.44 423.558C1430.07 405.384 1438.34 389.509 1446.72 374.364C1446.93 374.064 1447.06 373.71 1447.08 373.342C1447.1 372.974 1447.02 372.607 1446.85 372.281C1446.67 371.956 1446.41 371.685 1446.09 371.5C1445.77 371.315 1445.41 371.222 1445.04 371.231H1442.95C1442.51 371.255 1442.08 371.382 1441.7 371.599C1441.32 371.816 1440.99 372.12 1440.75 372.484C1432.16 388.256 1423.15 404.653 1422.53 423.558C1422.21 433.062 1429.44 440.373 1439.07 440.373H1445.98C1436.35 440.373 1429.12 433.062 1429.44 423.558Z" fill="#3543DE"/>
<path d="M1409.75 423.558C1410.38 405.384 1418.76 389.509 1427.03 374.364C1427.24 374.064 1427.37 373.71 1427.39 373.342C1427.42 372.974 1427.34 372.607 1427.16 372.281C1426.99 371.956 1426.73 371.685 1426.41 371.5C1426.09 371.315 1425.72 371.222 1425.35 371.231H1423.26C1422.83 371.246 1422.42 371.368 1422.05 371.587C1421.68 371.807 1421.38 372.116 1421.16 372.484C1412.47 388.256 1403.57 404.653 1402.84 423.558C1402.74 425.767 1403.1 427.973 1403.89 430.038C1404.68 432.102 1405.89 433.982 1407.44 435.561C1408.99 437.139 1410.85 438.381 1412.91 439.209C1414.96 440.037 1417.17 440.433 1419.39 440.373H1426.3C1424.08 440.433 1421.88 440.037 1419.82 439.209C1417.77 438.381 1415.9 437.139 1414.35 435.561C1412.8 433.982 1411.59 432.102 1410.8 430.038C1410.01 427.973 1409.65 425.767 1409.75 423.558Z" fill="#3543DE"/>
<path d="M1426.82 395.358L1405.56 399.013C1403.89 403.4 1403.05 406.324 1402.84 409.144C1402.63 411.964 1405.35 413.531 1409.54 415.202C1412.55 416.454 1415.31 418.223 1417.71 420.424C1423.78 425.751 1428.91 428.989 1437.82 428.989C1439.6 428.989 1440.85 429.093 1441.9 427.944C1443.01 426.695 1443.67 425.108 1443.76 423.44C1443.86 421.772 1443.39 420.12 1442.42 418.753C1441.35 417.296 1440.04 416.026 1438.55 414.993C1435.38 412.946 1432.71 410.227 1430.72 407.032C1428.73 403.838 1427.47 400.244 1427.03 396.507C1426.93 395.984 1426.93 395.671 1426.82 395.358Z" fill="#DE3A93"/>
<path d="M1409.54 415.202C1407.78 414.543 1406.12 413.628 1404.62 412.487C1402.63 410.607 1403.47 408.831 1407.76 408.936C1412.06 409.04 1416.56 412.382 1425.56 417.918C1434.57 423.453 1447.97 428.989 1437.81 428.989C1427.66 428.989 1423.78 425.751 1417.71 420.424C1415.31 418.223 1412.55 416.454 1409.54 415.202Z" fill="black"/>
<path d="M1429.12 388.987C1430.7 389.3 1430.49 391.076 1429.65 392.851C1431.32 395.984 1430.28 397.238 1427.34 398.491C1421.42 400.501 1415.16 401.351 1408.91 400.998C1402.53 400.371 1402.95 398.282 1403.57 396.193C1401.37 394.313 1401.69 392.12 1403.89 391.18C1406.09 390.24 1417.92 386.584 1429.12 388.987Z" fill="#66BCFF"/>
<path d="M1381.9 279.947H1409.33V294.872H1381.9V279.947Z" fill="white"/>
<path d="M1326.08 280.26C1325.56 282.382 1325.53 284.597 1325.99 286.734C1326.45 288.872 1327.39 290.876 1328.74 292.597C1330.09 294.317 1331.82 295.71 1333.79 296.666C1335.76 297.623 1337.92 298.12 1340.12 298.12H1370.06L1384.1 305.953V305.536C1390.48 305.536 1394.15 303.447 1391.32 280.051C1392.58 273.471 1398.44 247.569 1401.69 228.247C1404.62 210.596 1398.02 204.12 1379.8 193.885C1372.05 170.907 1351.95 172.265 1348.07 186.051C1344.2 199.838 1331.42 258.431 1326.08 280.26Z" fill="#66BCFF"/>
<path d="M1382.31 313.369L1387.13 314.204C1387.37 314.25 1387.59 314.347 1387.79 314.487C1387.98 314.626 1388.14 314.807 1388.26 315.015C1388.38 315.223 1388.46 315.454 1388.48 315.693C1388.5 315.931 1388.47 316.172 1388.39 316.398L1387.34 319.009C1401.9 319.844 1414.57 321.098 1419.59 325.484C1424.62 329.871 1424.62 336.555 1426.92 356.504C1429.23 376.453 1433 388.36 1426.92 391.075C1420.76 393.716 1414.01 394.724 1407.34 394C1400.64 393.373 1400.01 389.927 1398.65 379.587C1397.29 369.247 1394.04 346.269 1394.04 346.269H1341.16C1328.07 346.269 1320.32 337.704 1318.54 330.393C1317.29 325.171 1318.96 312.847 1322 298.224H1370.06L1384.1 306.058L1383.05 310.549L1382.31 313.369Z" fill="#3442D9"/>
<path d="M1338.23 298.433C1332.99 324.544 1331.95 344.18 1351.84 353.162" stroke="#2330BF" stroke-width="2" stroke-miterlimit="10"/>
<path d="M1379.38 285.273C1379.38 285.273 1377.18 298.12 1374.15 313.369C1370.69 330.916 1371.64 330.289 1395.61 331.856C1416.66 333.213 1414.78 332.169 1419.18 356.087C1420.85 365.487 1423.78 382.511 1422.95 391.911C1422.95 391.911 1423.89 397.447 1423.68 398.596" stroke="#2467D4" stroke-width="2" stroke-linecap="round" stroke-linejoin="round"/>
<path d="M1394.04 346.269C1405.67 344.493 1411.32 334.049 1411.32 334.049" stroke="black" stroke-width="2" stroke-linecap="round" stroke-linejoin="round"/>
<path d="M1394.04 346.269C1396.42 344.871 1398.5 343.015 1400.15 340.809C1401.81 338.605 1403 336.093 1403.68 333.422" stroke="black" stroke-width="2" stroke-linecap="round" stroke-linejoin="round"/>
<path d="M1326.08 280.26C1328.81 268.98 1333.62 248.091 1338.13 228.56L1361.58 226.784L1379.7 239.527L1390.17 253.522L1395.51 260.729C1393.62 269.711 1392.05 277.022 1391.43 280.156C1394.25 303.551 1390.59 305.64 1384.2 305.64L1365.66 297.807L1322.73 294.778C1323.78 290.078 1324.93 285.169 1326.08 280.26Z" fill="#EB459F"/>
<path d="M1374.07 268.502C1372.75 260.71 1373.44 254.097 1375.61 253.731C1377.77 253.366 1380.6 259.386 1381.92 267.178C1383.24 274.97 1382.56 281.582 1380.39 281.948C1378.22 282.313 1375.4 276.293 1374.07 268.502Z" fill="black"/>
<path d="M1387.76 249.136C1386.71 247.256 1385.56 245.376 1384.41 243.704C1372.58 226.68 1361.48 222.084 1350.8 222.084H1337.5C1337.3 222.09 1337.11 222.142 1336.93 222.236C1336.76 222.33 1336.61 222.465 1336.49 222.628C1336.38 222.791 1336.31 222.977 1336.28 223.174C1336.26 223.37 1336.28 223.57 1336.35 223.756L1338.13 228.56C1358.55 228.56 1365.77 227.933 1382.74 245.689L1390.17 253.522L1387.76 249.136Z" fill="#D11583"/>
<path d="M1322.73 294.778H1357.39C1365.14 294.778 1374.67 294.36 1384.2 305.64L1383.05 310.549C1377.5 305.222 1372.37 302.925 1361.27 302.925H1321.06L1322.73 294.778Z" fill="black"/>
<path d="M1382.73 246.316C1389.75 247.569 1395.3 251.224 1398.44 257.7C1399.33 259.496 1400.62 261.067 1402.21 262.296L1421.06 275.978C1423.18 277.478 1424.66 279.716 1425.2 282.25C1425.74 284.784 1425.31 287.428 1423.99 289.66C1423.07 291.227 1421.76 292.524 1420.18 293.422C1418.6 294.32 1416.81 294.788 1414.99 294.778H1407.13C1390.8 285.691 1383.26 279.529 1379.38 275.978C1375.51 272.427 1371.22 266.056 1371.95 258.744C1372.68 251.433 1374.78 244.853 1382.73 246.316Z" fill="white"/>
<path d="M1376.87 192.318C1379.38 188.14 1382.73 182.604 1383.99 179.993C1385.25 177.382 1388.28 178.009 1383.99 189.707C1394.46 185.738 1396.66 187.2 1397.19 188.662C1397.71 190.124 1395.41 190.855 1391.01 193.362C1386.61 195.869 1381.9 198.898 1381.9 198.898L1376.87 192.318Z" fill="#66BCFF"/>
<path d="M1365.98 192.631C1364.2 190.438 1363.57 188.036 1364.62 187.2C1365.67 186.365 1366.82 186.782 1368.39 188.871C1369.07 189.72 1369.8 190.524 1370.59 191.273C1372.37 192.945 1371.95 194.198 1371.11 194.929C1370.27 195.66 1367.76 194.825 1365.98 192.631Z" fill="black"/>
<path d="M1348.18 186.156C1348.18 186.156 1360.64 180.516 1365.98 177.069C1371.32 173.622 1374.04 168.505 1371.64 167.147C1369.23 165.789 1364.62 169.027 1361.37 173.205C1361.48 165.789 1360.22 164.222 1358.23 164.118C1356.24 164.014 1356.03 166.938 1355.93 171.116C1355.82 175.293 1355.09 176.965 1351.95 179.785C1350.07 181.473 1348.75 183.697 1348.18 186.156Z" fill="#3442D9"/>
<path d="M1393.94 220.831C1396.87 220.831 1399.38 218.325 1397.08 213.938C1394.78 209.551 1387.24 205.165 1383.57 203.493C1379.91 201.822 1378.23 203.493 1378.13 204.747C1378.02 206 1378.55 207.88 1381.16 211.222C1383.78 214.565 1388.6 220.831 1393.94 220.831Z" fill="white"/>
<path d="M1391.64 220.518L1393.41 220.831L1395.93 212.267L1394.46 210.7L1391.64 220.518Z" fill="#8CD9FF"/>
<path d="M1385.14 215.922L1386.61 217.384L1389.54 206.835L1387.97 205.791L1385.14 215.922Z" fill="#8CD9FF"/>
<path d="M1379.28 208.611L1380.64 210.491L1382.74 203.18L1380.96 202.867L1379.28 208.611Z" fill="#8CD9FF"/>
<path d="M1381.58 201.927C1379.64 202.85 1377.65 203.653 1375.61 204.329" stroke="black" stroke-width="2" stroke-linecap="round" stroke-linejoin="round"/>
<path d="M1384.2 318.278L1372.68 332.273" stroke="black" stroke-width="2" stroke-linecap="round" stroke-linejoin="round"/>
<path d="M1375.2 314.1H1379.28L1380.54 308.356L1381.69 303.029C1380.63 301.992 1379.51 301.015 1378.34 300.104L1376.98 305.953L1375.2 314.1Z" fill="#3442D9"/>
<path d="M1357.08 308.564H1361.16L1362.42 302.924L1364.09 294.987H1360.01L1358.34 303.029L1357.08 308.564Z" fill="#3442D9"/>
<path d="M1323.67 308.356H1327.76L1329.01 302.925L1330.69 294.778H1326.61L1324.93 302.925L1323.67 308.356Z" fill="#3442D9"/>
<path d="M1334.88 242.347C1336.88 240.761 1339.34 239.847 1341.89 239.735C1347.34 239.735 1350.38 245.062 1351.42 250.18C1351.59 251.001 1352.04 251.738 1352.69 252.271C1353.33 252.804 1354.15 253.097 1354.98 253.104H1355.72C1356.19 253.018 1356.64 252.837 1357.04 252.572C1357.44 252.307 1357.78 251.965 1358.05 251.565C1358.31 251.165 1358.49 250.716 1358.58 250.245C1358.66 249.773 1358.65 249.289 1358.54 248.822C1356.55 238.9 1350.06 232.529 1341.89 232.529C1340.54 232.546 1339.24 233.02 1338.19 233.874C1337.14 234.727 1336.42 235.911 1336.14 237.229L1334.88 242.347Z" fill="white"/>
<path d="M1326.08 280.26C1325.85 281.194 1325.82 282.165 1325.97 283.114C1326.13 284.063 1326.48 284.971 1327 285.781C1327.52 286.592 1328.19 287.288 1328.99 287.829C1329.79 288.371 1330.69 288.745 1331.63 288.929L1334.25 289.138C1340.22 289.138 1346.4 285.587 1351.22 279.425C1351.5 279.04 1351.71 278.604 1351.83 278.139C1351.95 277.673 1351.98 277.189 1351.91 276.714C1351.84 276.239 1351.68 275.782 1351.44 275.369C1351.19 274.955 1350.87 274.595 1350.48 274.307C1350.1 274.005 1349.67 273.783 1349.2 273.656C1348.73 273.53 1348.24 273.499 1347.76 273.567C1347.28 273.636 1346.82 273.801 1346.4 274.055C1345.99 274.308 1345.63 274.642 1345.35 275.038C1342 279.32 1337.92 281.931 1334.25 281.931C1330.59 281.931 1328.39 279.842 1326.82 277.127C1326.61 278.276 1326.29 279.32 1326.08 280.26Z" fill="#2331B5"/>
<path d="M1333.1 250.389C1333.84 250.393 1334.56 250.626 1335.16 251.056C1335.76 251.487 1336.21 252.093 1336.45 252.791L1340.85 264.593C1341.23 265.702 1341.22 266.908 1340.82 268.011C1340.42 269.114 1339.66 270.045 1338.65 270.651C1338.19 270.93 1337.68 271.104 1337.15 271.159C1336.62 271.214 1336.08 271.148 1335.58 270.968C1335.07 270.787 1334.62 270.496 1334.24 270.115C1333.87 269.735 1333.59 269.276 1333.41 268.771L1330.59 261.147C1331.32 257.7 1332.16 254.149 1333.1 250.389Z" fill="#5865F2"/>
<path d="M1338.65 270.651C1339.66 270.045 1340.42 269.114 1340.82 268.011C1341.22 266.908 1341.23 265.702 1340.85 264.593L1339.59 261.356C1339.38 260.791 1339.05 260.278 1338.62 259.852C1338.2 259.427 1337.68 259.099 1337.11 258.89C1336.55 258.682 1335.94 258.598 1335.34 258.645C1334.74 258.692 1334.15 258.869 1333.62 259.162C1332.76 259.665 1332.1 260.449 1331.76 261.384C1331.41 262.318 1331.41 263.341 1331.74 264.28L1333.41 268.771C1333.59 269.276 1333.87 269.735 1334.24 270.115C1334.62 270.496 1335.07 270.787 1335.58 270.968C1336.08 271.148 1336.62 271.214 1337.15 271.159C1337.68 271.104 1338.19 270.931 1338.65 270.651Z" fill="#FFE75C"/>
<path d="M1394.15 287.362C1397.5 289.687 1401.27 291.353 1405.25 292.271" stroke="#A3D7FF" stroke-width="2" stroke-linecap="round" stroke-linejoin="round"/>
<path d="M1353.62 440.373H1371.95C1383.15 440.373 1393.52 431.391 1395.09 420.32C1396.66 409.249 1389.54 403.4 1377.5 400.789L1375.4 400.267C1373.71 399.913 1372.21 398.927 1371.22 397.51C1370.23 396.093 1369.81 394.352 1370.06 392.642C1370.27 390.978 1371.03 389.432 1372.23 388.255C1373.43 387.079 1374.99 386.343 1376.66 386.167L1379.7 385.853C1392.68 384.495 1401.27 376.871 1402.84 365.8C1404.41 354.729 1396.66 346.269 1385.77 346.269H1367.45C1356.24 346.269 1345.88 355.251 1344.3 366.322L1336.55 420.842C1335.09 431.6 1342.73 440.373 1353.62 440.373Z" fill="#ADB4FF"/>
<path d="M1332.37 440.373H1350.69C1361.9 440.373 1372.26 431.391 1373.83 420.32C1374.47 416.246 1373.59 412.08 1371.35 408.614C1369.11 405.147 1365.67 402.623 1361.69 401.52C1360.22 401.126 1358.94 400.205 1358.11 398.933C1357.28 397.661 1356.95 396.127 1357.18 394.627L1357.71 390.658C1357.91 389.395 1358.49 388.222 1359.36 387.29C1360.24 386.36 1361.38 385.713 1362.63 385.435C1372.16 383.451 1380.22 375.409 1381.58 365.8C1382.94 356.191 1375.41 346.269 1364.51 346.269H1346.19C1334.99 346.269 1324.62 355.251 1323.05 366.322L1315.3 420.842C1313.83 431.6 1321.48 440.373 1332.37 440.373Z" fill="white"/>
<path d="M1336.97 364.651C1336.9 365.173 1336.94 365.705 1337.09 366.211C1337.24 366.717 1337.49 367.184 1337.84 367.581C1338.19 367.978 1338.62 368.295 1339.1 368.51C1339.59 368.726 1340.11 368.834 1340.64 368.829H1359.91C1361.07 368.797 1362.19 368.363 1363.07 367.601C1363.94 366.838 1364.53 365.796 1364.72 364.651V364.025C1364.82 363.514 1364.8 362.987 1364.66 362.486C1364.52 361.985 1364.27 361.521 1363.93 361.129C1363.59 360.738 1363.16 360.428 1362.68 360.224C1362.2 360.02 1361.68 359.927 1361.16 359.951H1341.79C1340.64 359.978 1339.54 360.398 1338.66 361.139C1337.78 361.88 1337.19 362.899 1336.97 364.025V364.651Z" fill="#66BCFF"/>
<path d="M1345.35 372.38C1345.26 372.896 1345.28 373.427 1345.42 373.932C1345.55 374.439 1345.8 374.908 1346.14 375.308C1346.48 375.707 1346.91 376.026 1347.39 376.242C1347.86 376.459 1348.39 376.566 1348.91 376.558H1349.43C1350.6 376.525 1351.72 376.092 1352.59 375.33C1353.47 374.568 1354.06 373.525 1354.25 372.38L1356.56 356.296C1356.63 355.779 1356.59 355.251 1356.44 354.75C1356.29 354.25 1356.03 353.788 1355.68 353.398C1355.33 353.01 1354.9 352.703 1354.42 352.499C1353.94 352.295 1353.41 352.201 1352.89 352.222H1352.37C1351.22 352.249 1350.11 352.669 1349.24 353.41C1348.36 354.151 1347.77 355.17 1347.55 356.296L1345.35 372.38Z" fill="#66BCFF"/>
<path d="M1342.94 396.611C1342.91 396.825 1342.93 397.042 1342.99 397.25C1343.05 397.458 1343.15 397.651 1343.29 397.818C1343.42 397.986 1343.59 398.122 1343.79 398.22C1343.98 398.318 1344.19 398.374 1344.41 398.387H1344.72C1345.2 398.349 1345.66 398.156 1346.02 397.834C1346.38 397.514 1346.62 397.084 1346.71 396.611L1347.65 389.927C1347.69 389.708 1347.67 389.487 1347.6 389.276C1347.54 389.066 1347.42 388.874 1347.27 388.713C1347.12 388.552 1346.94 388.428 1346.73 388.349C1346.53 388.269 1346.3 388.238 1346.08 388.256H1345.87C1345.4 388.249 1344.93 388.415 1344.57 388.722C1344.2 389.028 1343.96 389.457 1343.89 389.927L1342.94 396.611Z" fill="#ADB4FF"/>
<path d="M1343.36 417.709C1344.51 417.682 1345.61 417.262 1346.49 416.521C1347.37 415.78 1347.96 414.762 1348.18 413.636V413.009C1348.27 412.498 1348.25 411.972 1348.12 411.47C1347.98 410.969 1347.73 410.505 1347.39 410.114C1347.04 409.722 1346.62 409.412 1346.14 409.208C1345.66 409.005 1345.14 408.912 1344.62 408.936H1344.09C1342.96 408.958 1341.87 409.363 1340.99 410.083C1340.12 410.803 1339.51 411.798 1339.28 412.904V413.636C1339.2 414.153 1339.24 414.68 1339.39 415.181C1339.54 415.682 1339.8 416.143 1340.15 416.533C1340.5 416.921 1340.93 417.228 1341.41 417.432C1341.9 417.636 1342.42 417.73 1342.94 417.709H1343.36Z" fill="#66BCFF"/>
<path d="M1340.64 433.271H1341.16C1342.32 433.264 1343.43 432.851 1344.31 432.107C1345.19 431.362 1345.78 430.332 1345.98 429.198V428.258C1346.02 427.756 1345.96 427.252 1345.8 426.777C1345.63 426.303 1345.37 425.867 1345.02 425.503C1344.67 425.137 1344.25 424.849 1343.79 424.658C1343.32 424.466 1342.82 424.377 1342.31 424.393H1341.79C1340.66 424.415 1339.56 424.82 1338.69 425.54C1337.81 426.261 1337.21 427.255 1336.97 428.362V429.093C1336.88 429.619 1336.9 430.158 1337.05 430.671C1337.19 431.185 1337.45 431.661 1337.8 432.062C1338.15 432.464 1338.59 432.78 1339.08 432.99C1339.57 433.199 1340.1 433.295 1340.64 433.271Z" fill="#FF78B9"/>
<path d="M1342.84 417.709H1343.36C1344.51 417.682 1345.61 417.262 1346.49 416.521C1347.37 415.78 1347.96 414.762 1348.18 413.636V413.009C1348.27 412.498 1348.25 411.972 1348.12 411.47C1347.98 410.969 1347.73 410.505 1347.39 410.114C1347.04 409.722 1346.62 409.412 1346.14 409.208C1345.66 409.005 1345.14 408.912 1344.62 408.936H1344.09C1342.96 408.958 1341.87 409.363 1340.99 410.083C1340.12 410.803 1339.51 411.798 1339.28 412.904V413.636C1339.2 414.144 1339.24 414.662 1339.38 415.155C1339.53 415.648 1339.78 416.105 1340.12 416.491C1340.45 416.879 1340.87 417.188 1341.34 417.399C1341.81 417.609 1342.32 417.714 1342.84 417.709Z" fill="#5865F2"/>
<path d="M1332.89 425.438C1334.04 425.411 1335.14 424.991 1336.02 424.25C1336.9 423.509 1337.49 422.49 1337.71 421.364V420.738C1337.8 420.227 1337.78 419.701 1337.64 419.199C1337.51 418.698 1337.26 418.234 1336.91 417.842C1336.57 417.451 1336.15 417.141 1335.67 416.937C1335.19 416.733 1334.67 416.64 1334.15 416.664H1333.62C1332.49 416.686 1331.4 417.092 1330.52 417.812C1329.65 418.532 1329.04 419.527 1328.81 420.633V421.364C1328.71 421.875 1328.73 422.401 1328.87 422.903C1329.01 423.404 1329.26 423.868 1329.6 424.26C1329.94 424.651 1330.37 424.961 1330.85 425.165C1331.33 425.369 1331.85 425.463 1332.37 425.438H1332.89Z" fill="#66BCFF"/>
<path d="M1332.37 425.438H1332.89C1334.04 425.411 1335.14 424.991 1336.02 424.25C1336.9 423.509 1337.49 422.49 1337.71 421.364V420.738C1337.8 420.227 1337.78 419.701 1337.64 419.199C1337.51 418.698 1337.26 418.234 1336.91 417.842C1336.57 417.451 1336.15 417.141 1335.67 416.937C1335.19 416.733 1334.67 416.64 1334.15 416.664H1333.62C1332.49 416.686 1331.4 417.092 1330.52 417.812C1329.65 418.532 1329.04 419.527 1328.81 420.633V421.364C1328.71 421.875 1328.73 422.401 1328.87 422.903C1329.01 423.404 1329.26 423.868 1329.6 424.26C1329.94 424.651 1330.37 424.961 1330.85 425.165C1331.33 425.369 1331.85 425.463 1332.37 425.438Z" fill="#5865F2"/>
<path d="M1351.11 425.647H1351.74C1352.89 425.61 1353.99 425.173 1354.85 424.409C1355.71 423.646 1356.28 422.605 1356.45 421.469V420.529C1356.51 420.034 1356.46 419.532 1356.31 419.056C1356.16 418.581 1355.9 418.145 1355.57 417.777C1355.23 417.409 1354.81 417.12 1354.35 416.928C1353.89 416.736 1353.39 416.646 1352.89 416.665H1352.26C1351.13 416.716 1350.05 417.145 1349.2 417.884C1348.34 418.624 1347.76 419.629 1347.55 420.738V421.365C1347.44 421.888 1347.45 422.43 1347.58 422.949C1347.71 423.468 1347.95 423.952 1348.29 424.363C1348.64 424.775 1349.07 425.105 1349.55 425.327C1350.04 425.549 1350.57 425.658 1351.11 425.647Z" fill="#FF78B9"/>
</g>
</g>
<defs>
<linearGradient id="paint0_linear_131_3196" x1="38" y1="430" x2="1409" y2="19.9999" gradientUnits="userSpaceOnUse">
<stop stop-color="#F950D4"/>
<stop offset="1" stop-color="#CF02FF"/>
</linearGradient>
<linearGradient id="paint1_linear_131_3196" x1="37" y1="430" x2="1408" y2="19.9999" gradientUnits="userSpaceOnUse">
<stop stop-color="#F950D4"/>
<stop offset="1" stop-color="#CF02FF"/>
</linearGradient>
<linearGradient id="paint2_linear_131_3196" x1="37" y1="430" x2="1408" y2="19.9999" gradientUnits="userSpaceOnUse">
<stop stop-color="#F950D4"/>
<stop offset="1" stop-color="#CF02FF"/>
</linearGradient>
<clipPath id="clip0_131_3196">
<rect width="644" height="330" fill="white" transform="matrix(-1 0 0 1 431 111)"/>
</clipPath>
<clipPath id="clip1_131_3196">
<rect width="644" height="376" fill="white" transform="matrix(-1 0 0 1 1644 65)"/>
</clipPath>
</defs>
</svg>
