<svg width="306" height="32" viewBox="0 0 306 32" fill="none" xmlns="http://www.w3.org/2000/svg">
<rect width="306" height="32" rx="16" fill="url(#paint0_linear_0_1)"/>
<path d="M27.0469 23L29.1946 9.90909H31.2401L29.0923 23H27.0469ZM21.1854 19.7528L21.5241 17.7074H31.7514L31.4126 19.7528H21.1854ZM22.4446 23L24.5923 9.90909H26.6378L24.4901 23H22.4446ZM21.9332 15.2017L22.2784 13.1562H32.5057L32.1605 15.2017H21.9332ZM38.4458 9.90909V23H35.6781V12.5362H35.6014L32.6035 14.4155V11.9609L35.8443 9.90909H38.4458ZM48.4405 23H43.7999V9.90909H48.4789C49.7956 9.90909 50.9292 10.1712 51.8794 10.6953C52.8297 11.2152 53.5605 11.9631 54.0719 12.9389C54.5875 13.9148 54.8453 15.0824 54.8453 16.4418C54.8453 17.8054 54.5875 18.9773 54.0719 19.9574C53.5605 20.9375 52.8255 21.6896 51.8667 22.2138C50.9121 22.7379 49.7701 23 48.4405 23ZM46.5676 20.6286H48.3255C49.1436 20.6286 49.8319 20.4837 50.3901 20.1939C50.9526 19.8999 51.3745 19.446 51.6557 18.8324C51.9412 18.2145 52.084 17.4176 52.084 16.4418C52.084 15.4744 51.9412 14.6839 51.6557 14.0703C51.3745 13.4567 50.9547 13.005 50.3965 12.7152C49.8382 12.4254 49.15 12.2805 48.3319 12.2805H46.5676V20.6286ZM58.6634 9.90909V23H55.8956V9.90909H58.6634ZM67.0421 13.674C66.9909 13.1584 66.7715 12.7578 66.3837 12.4723C65.9959 12.1868 65.4696 12.044 64.8049 12.044C64.3532 12.044 63.9718 12.108 63.6607 12.2358C63.3496 12.3594 63.111 12.532 62.9448 12.7536C62.7828 12.9751 62.7019 13.2266 62.7019 13.5078C62.6934 13.7422 62.7424 13.9467 62.8489 14.1214C62.9597 14.2962 63.111 14.4474 63.3027 14.5753C63.4945 14.6989 63.7161 14.8075 63.9675 14.9013C64.2189 14.9908 64.4874 15.0675 64.7729 15.1314L65.949 15.4126C66.5201 15.5405 67.0442 15.7109 67.5215 15.924C67.9988 16.1371 68.4121 16.3991 68.7615 16.7102C69.111 17.0213 69.3816 17.3878 69.5733 17.8097C69.7694 18.2315 69.8695 18.7152 69.8738 19.2607C69.8695 20.0618 69.665 20.7564 69.2601 21.3445C68.8596 21.9283 68.28 22.3821 67.5215 22.706C66.7672 23.0256 65.8574 23.1854 64.7921 23.1854C63.7353 23.1854 62.8148 23.0234 62.0307 22.6996C61.2509 22.3757 60.6415 21.8963 60.2026 21.2614C59.7679 20.6222 59.54 19.8317 59.5186 18.8899H62.1969C62.2267 19.3288 62.3525 19.6953 62.574 19.9893C62.7999 20.2791 63.1003 20.4986 63.4753 20.6477C63.8546 20.7926 64.2828 20.8651 64.7601 20.8651C65.2289 20.8651 65.6358 20.7969 65.981 20.6605C66.3304 20.5241 66.601 20.3345 66.7928 20.0916C66.9846 19.8487 67.0804 19.5696 67.0804 19.2543C67.0804 18.9602 66.9931 18.7131 66.8184 18.5128C66.6479 18.3125 66.3965 18.142 66.0641 18.0014C65.736 17.8608 65.3333 17.733 64.856 17.6179L63.4306 17.2599C62.3269 16.9915 61.4554 16.5717 60.8162 16.0007C60.177 15.4297 59.8596 14.6605 59.8638 13.6932C59.8596 12.9006 60.0705 12.2081 60.4966 11.6158C60.927 11.0234 61.5172 10.5611 62.2672 10.2287C63.0172 9.89631 63.8695 9.73011 64.824 9.73011C65.7956 9.73011 66.6436 9.89631 67.3681 10.2287C68.0968 10.5611 68.6635 11.0234 69.0684 11.6158C69.4732 12.2081 69.682 12.8942 69.6948 13.674H67.0421ZM82.2859 14.4922H79.4862C79.435 14.13 79.3306 13.8082 79.1729 13.527C79.0153 13.2415 78.8129 12.9986 78.5657 12.7983C78.3185 12.598 78.033 12.4446 77.7092 12.3381C77.3896 12.2315 77.0423 12.1783 76.6673 12.1783C75.9897 12.1783 75.3995 12.3466 74.8967 12.6832C74.3938 13.0156 74.0039 13.5014 73.7269 14.1406C73.4499 14.7756 73.3114 15.5469 73.3114 16.4545C73.3114 17.3878 73.4499 18.1719 73.7269 18.8068C74.0082 19.4418 74.4002 19.9212 74.9031 20.245C75.4059 20.5689 75.9876 20.7308 76.6481 20.7308C77.0188 20.7308 77.3619 20.6818 77.6772 20.5838C77.9968 20.4858 78.2802 20.343 78.5273 20.1555C78.7745 19.9638 78.979 19.7315 79.141 19.4588C79.3072 19.1861 79.4222 18.875 79.4862 18.5256L82.2859 18.5384C82.2134 19.1392 82.0323 19.7188 81.7425 20.277C81.457 20.831 81.0714 21.3274 80.5856 21.7663C80.104 22.201 79.5288 22.5462 78.8597 22.8018C78.195 23.0533 77.4428 23.179 76.6033 23.179C75.4357 23.179 74.3917 22.9148 73.4712 22.3864C72.555 21.858 71.8306 21.093 71.2979 20.0916C70.7695 19.0902 70.5053 17.8778 70.5053 16.4545C70.5053 15.027 70.7738 13.8125 71.3107 12.8111C71.8477 11.8097 72.5763 11.0469 73.4968 10.5227C74.4173 9.99432 75.4528 9.73011 76.6033 9.73011C77.3619 9.73011 78.065 9.83665 78.7127 10.0497C79.3647 10.2628 79.9421 10.5739 80.445 10.983C80.9478 11.3878 81.3569 11.8842 81.6722 12.4723C81.9918 13.0604 82.1964 13.7337 82.2859 14.4922ZM95.3004 16.4545C95.3004 17.8821 95.0298 19.0966 94.4886 20.098C93.9517 21.0994 93.2188 21.8643 92.2898 22.3928C91.3651 22.9169 90.3253 23.179 89.1705 23.179C88.0071 23.179 86.9631 22.9148 86.0384 22.3864C85.1136 21.858 84.3828 21.093 83.8459 20.0916C83.3089 19.0902 83.0405 17.8778 83.0405 16.4545C83.0405 15.027 83.3089 13.8125 83.8459 12.8111C84.3828 11.8097 85.1136 11.0469 86.0384 10.5227C86.9631 9.99432 88.0071 9.73011 89.1705 9.73011C90.3253 9.73011 91.3651 9.99432 92.2898 10.5227C93.2188 11.0469 93.9517 11.8097 94.4886 12.8111C95.0298 13.8125 95.3004 15.027 95.3004 16.4545ZM92.4943 16.4545C92.4943 15.5298 92.3558 14.75 92.0788 14.1151C91.8061 13.4801 91.4205 12.9986 90.9219 12.6705C90.4233 12.3423 89.8395 12.1783 89.1705 12.1783C88.5014 12.1783 87.9176 12.3423 87.419 12.6705C86.9205 12.9986 86.5327 13.4801 86.2557 14.1151C85.983 14.75 85.8466 15.5298 85.8466 16.4545C85.8466 17.3793 85.983 18.1591 86.2557 18.794C86.5327 19.429 86.9205 19.9105 87.419 20.2386C87.9176 20.5668 88.5014 20.7308 89.1705 20.7308C89.8395 20.7308 90.4233 20.5668 90.9219 20.2386C91.4205 19.9105 91.8061 19.429 92.0788 18.794C92.3558 18.1591 92.4943 17.3793 92.4943 16.4545ZM96.3507 23V9.90909H101.515C102.504 9.90909 103.348 10.0859 104.047 10.4396C104.75 10.7891 105.285 11.2855 105.651 11.929C106.022 12.5682 106.207 13.3203 106.207 14.1854C106.207 15.0547 106.02 15.8026 105.645 16.429C105.27 17.0511 104.726 17.5284 104.015 17.8608C103.307 18.1932 102.451 18.3594 101.445 18.3594H97.987V16.1349H100.998C101.526 16.1349 101.965 16.0625 102.314 15.9176C102.664 15.7727 102.924 15.5554 103.094 15.2656C103.269 14.9759 103.356 14.6158 103.356 14.1854C103.356 13.7507 103.269 13.3842 103.094 13.0859C102.924 12.7876 102.662 12.5618 102.308 12.4084C101.959 12.2507 101.518 12.1719 100.985 12.1719H99.1184V23H96.3507ZM103.42 17.0426L106.674 23H103.618L100.435 17.0426H103.42ZM111.804 23H107.163V9.90909H111.842C113.159 9.90909 114.292 10.1712 115.243 10.6953C116.193 11.2152 116.924 11.9631 117.435 12.9389C117.951 13.9148 118.209 15.0824 118.209 16.4418C118.209 17.8054 117.951 18.9773 117.435 19.9574C116.924 20.9375 116.189 21.6896 115.23 22.2138C114.275 22.7379 113.133 23 111.804 23ZM109.931 20.6286H111.689C112.507 20.6286 113.195 20.4837 113.753 20.1939C114.316 19.8999 114.738 19.446 115.019 18.8324C115.305 18.2145 115.447 17.4176 115.447 16.4418C115.447 15.4744 115.305 14.6839 115.019 14.0703C114.738 13.4567 114.318 13.005 113.76 12.7152C113.202 12.4254 112.513 12.2805 111.695 12.2805H109.931V20.6286ZM122.425 23V9.90909H127.666C128.629 9.90909 129.433 10.0518 130.076 10.3374C130.72 10.6229 131.203 11.0192 131.527 11.5263C131.851 12.0291 132.013 12.6087 132.013 13.2649C132.013 13.7763 131.911 14.2259 131.706 14.6136C131.502 14.9972 131.22 15.3125 130.862 15.5597C130.509 15.8026 130.104 15.9751 129.648 16.0774V16.2053C130.146 16.2266 130.613 16.3672 131.048 16.6271C131.487 16.8871 131.843 17.2514 132.115 17.7202C132.388 18.1847 132.524 18.7386 132.524 19.3821C132.524 20.0767 132.352 20.6967 132.007 21.2422C131.666 21.7834 131.161 22.2116 130.492 22.527C129.823 22.8423 128.998 23 128.018 23H122.425ZM125.193 20.7372H127.449C128.22 20.7372 128.783 20.5902 129.137 20.2962C129.49 19.9979 129.667 19.6016 129.667 19.1072C129.667 18.745 129.58 18.4254 129.405 18.1484C129.23 17.8714 128.981 17.6541 128.657 17.4964C128.338 17.3388 127.956 17.2599 127.513 17.2599H125.193V20.7372ZM125.193 15.3871H127.244C127.624 15.3871 127.96 15.321 128.254 15.1889C128.553 15.0526 128.787 14.8608 128.958 14.6136C129.132 14.3665 129.22 14.0703 129.22 13.7251C129.22 13.2521 129.051 12.8707 128.715 12.581C128.382 12.2912 127.909 12.1463 127.296 12.1463H125.193V15.3871ZM145.355 16.4545C145.355 17.8821 145.085 19.0966 144.543 20.098C144.006 21.0994 143.273 21.8643 142.344 22.3928C141.42 22.9169 140.38 23.179 139.225 23.179C138.062 23.179 137.018 22.9148 136.093 22.3864C135.168 21.858 134.438 21.093 133.901 20.0916C133.364 19.0902 133.095 17.8778 133.095 16.4545C133.095 15.027 133.364 13.8125 133.901 12.8111C134.438 11.8097 135.168 11.0469 136.093 10.5227C137.018 9.99432 138.062 9.73011 139.225 9.73011C140.38 9.73011 141.42 9.99432 142.344 10.5227C143.273 11.0469 144.006 11.8097 144.543 12.8111C145.085 13.8125 145.355 15.027 145.355 16.4545ZM142.549 16.4545C142.549 15.5298 142.411 14.75 142.134 14.1151C141.861 13.4801 141.475 12.9986 140.977 12.6705C140.478 12.3423 139.894 12.1783 139.225 12.1783C138.556 12.1783 137.972 12.3423 137.474 12.6705C136.975 12.9986 136.587 13.4801 136.31 14.1151C136.038 14.75 135.901 15.5298 135.901 16.4545C135.901 17.3793 136.038 18.1591 136.31 18.794C136.587 19.429 136.975 19.9105 137.474 20.2386C137.972 20.5668 138.556 20.7308 139.225 20.7308C139.894 20.7308 140.478 20.5668 140.977 20.2386C141.475 19.9105 141.861 19.429 142.134 18.794C142.411 18.1591 142.549 17.3793 142.549 16.4545ZM158.435 16.4545C158.435 17.8821 158.165 19.0966 157.623 20.098C157.086 21.0994 156.354 21.8643 155.425 22.3928C154.5 22.9169 153.46 23.179 152.305 23.179C151.142 23.179 150.098 22.9148 149.173 22.3864C148.248 21.858 147.518 21.093 146.981 20.0916C146.444 19.0902 146.175 17.8778 146.175 16.4545C146.175 15.027 146.444 13.8125 146.981 12.8111C147.518 11.8097 148.248 11.0469 149.173 10.5227C150.098 9.99432 151.142 9.73011 152.305 9.73011C153.46 9.73011 154.5 9.99432 155.425 10.5227C156.354 11.0469 157.086 11.8097 157.623 12.8111C158.165 13.8125 158.435 15.027 158.435 16.4545ZM155.629 16.4545C155.629 15.5298 155.491 14.75 155.214 14.1151C154.941 13.4801 154.555 12.9986 154.057 12.6705C153.558 12.3423 152.974 12.1783 152.305 12.1783C151.636 12.1783 151.052 12.3423 150.554 12.6705C150.055 12.9986 149.667 13.4801 149.39 14.1151C149.118 14.75 148.981 15.5298 148.981 16.4545C148.981 17.3793 149.118 18.1591 149.39 18.794C149.667 19.429 150.055 19.9105 150.554 20.2386C151.052 20.5668 151.636 20.7308 152.305 20.7308C152.974 20.7308 153.558 20.5668 154.057 20.2386C154.555 19.9105 154.941 19.429 155.214 18.794C155.491 18.1591 155.629 17.3793 155.629 16.4545ZM166.587 13.674C166.536 13.1584 166.316 12.7578 165.929 12.4723C165.541 12.1868 165.015 12.044 164.35 12.044C163.898 12.044 163.517 12.108 163.206 12.2358C162.895 12.3594 162.656 12.532 162.49 12.7536C162.328 12.9751 162.247 13.2266 162.247 13.5078C162.238 13.7422 162.287 13.9467 162.394 14.1214C162.505 14.2962 162.656 14.4474 162.848 14.5753C163.039 14.6989 163.261 14.8075 163.512 14.9013C163.764 14.9908 164.032 15.0675 164.318 15.1314L165.494 15.4126C166.065 15.5405 166.589 15.7109 167.066 15.924C167.544 16.1371 167.957 16.3991 168.306 16.7102C168.656 17.0213 168.926 17.3878 169.118 17.8097C169.314 18.2315 169.414 18.7152 169.419 19.2607C169.414 20.0618 169.21 20.7564 168.805 21.3445C168.404 21.9283 167.825 22.3821 167.066 22.706C166.312 23.0256 165.402 23.1854 164.337 23.1854C163.28 23.1854 162.36 23.0234 161.576 22.6996C160.796 22.3757 160.186 21.8963 159.748 21.2614C159.313 20.6222 159.085 19.8317 159.064 18.8899H161.742C161.772 19.3288 161.897 19.6953 162.119 19.9893C162.345 20.2791 162.645 20.4986 163.02 20.6477C163.4 20.7926 163.828 20.8651 164.305 20.8651C164.774 20.8651 165.181 20.7969 165.526 20.6605C165.875 20.5241 166.146 20.3345 166.338 20.0916C166.529 19.8487 166.625 19.5696 166.625 19.2543C166.625 18.9602 166.538 18.7131 166.363 18.5128C166.193 18.3125 165.941 18.142 165.609 18.0014C165.281 17.8608 164.878 17.733 164.401 17.6179L162.975 17.2599C161.872 16.9915 161 16.5717 160.361 16.0007C159.722 15.4297 159.404 14.6605 159.409 13.6932C159.404 12.9006 159.615 12.2081 160.042 11.6158C160.472 11.0234 161.062 10.5611 161.812 10.2287C162.562 9.89631 163.414 9.73011 164.369 9.73011C165.341 9.73011 166.189 9.89631 166.913 10.2287C167.642 10.5611 168.208 11.0234 168.613 11.6158C169.018 12.2081 169.227 12.8942 169.24 13.674H166.587ZM169.782 12.1911V9.90909H180.533V12.1911H176.525V23H173.79V12.1911H169.782ZM184.072 9.90909V23H181.304V9.90909H184.072ZM196.298 9.90909V23H193.908L188.212 14.7607H188.116V23H185.349V9.90909H187.778L193.428 18.142H193.543V9.90909H196.298ZM206.265 14.1406C206.176 13.8295 206.05 13.5547 205.888 13.3161C205.726 13.0732 205.528 12.8686 205.294 12.7024C205.064 12.532 204.8 12.402 204.501 12.3125C204.207 12.223 203.881 12.1783 203.523 12.1783C202.854 12.1783 202.266 12.3445 201.759 12.6768C201.256 13.0092 200.864 13.4929 200.583 14.1278C200.302 14.7585 200.161 15.5298 200.161 16.4418C200.161 17.3537 200.3 18.1293 200.577 18.7685C200.854 19.4077 201.246 19.8956 201.753 20.2322C202.26 20.5646 202.858 20.7308 203.549 20.7308C204.175 20.7308 204.71 20.62 205.153 20.3984C205.601 20.1726 205.942 19.8551 206.176 19.446C206.415 19.0369 206.534 18.5533 206.534 17.995L207.096 18.0781H203.721V15.9943H209.199V17.6435C209.199 18.794 208.956 19.7827 208.471 20.6094C207.985 21.4318 207.316 22.0668 206.464 22.5142C205.611 22.9574 204.635 23.179 203.536 23.179C202.309 23.179 201.231 22.9084 200.302 22.3672C199.373 21.8217 198.648 21.0483 198.128 20.0469C197.613 19.0412 197.355 17.848 197.355 16.4673C197.355 15.4062 197.508 14.4602 197.815 13.6293C198.126 12.794 198.561 12.0866 199.119 11.5071C199.677 10.9276 200.327 10.4865 201.069 10.1839C201.81 9.88139 202.613 9.73011 203.479 9.73011C204.22 9.73011 204.91 9.83878 205.55 10.0561C206.189 10.2692 206.756 10.5717 207.25 10.9638C207.748 11.3558 208.155 11.8224 208.471 12.3636C208.786 12.9006 208.988 13.4929 209.078 14.1406H206.265ZM220.546 13.674C220.495 13.1584 220.275 12.7578 219.888 12.4723C219.5 12.1868 218.974 12.044 218.309 12.044C217.857 12.044 217.476 12.108 217.165 12.2358C216.854 12.3594 216.615 12.532 216.449 12.7536C216.287 12.9751 216.206 13.2266 216.206 13.5078C216.197 13.7422 216.246 13.9467 216.353 14.1214C216.464 14.2962 216.615 14.4474 216.807 14.5753C216.998 14.6989 217.22 14.8075 217.471 14.9013C217.723 14.9908 217.991 15.0675 218.277 15.1314L219.453 15.4126C220.024 15.5405 220.548 15.7109 221.025 15.924C221.503 16.1371 221.916 16.3991 222.265 16.7102C222.615 17.0213 222.885 17.3878 223.077 17.8097C223.273 18.2315 223.373 18.7152 223.378 19.2607C223.373 20.0618 223.169 20.7564 222.764 21.3445C222.363 21.9283 221.784 22.3821 221.025 22.706C220.271 23.0256 219.361 23.1854 218.296 23.1854C217.239 23.1854 216.319 23.0234 215.535 22.6996C214.755 22.3757 214.145 21.8963 213.706 21.2614C213.272 20.6222 213.044 19.8317 213.023 18.8899H215.701C215.731 19.3288 215.856 19.6953 216.078 19.9893C216.304 20.2791 216.604 20.4986 216.979 20.6477C217.358 20.7926 217.787 20.8651 218.264 20.8651C218.733 20.8651 219.14 20.7969 219.485 20.6605C219.834 20.5241 220.105 20.3345 220.297 20.0916C220.488 19.8487 220.584 19.5696 220.584 19.2543C220.584 18.9602 220.497 18.7131 220.322 18.5128C220.152 18.3125 219.9 18.142 219.568 18.0014C219.24 17.8608 218.837 17.733 218.36 17.6179L216.934 17.2599C215.831 16.9915 214.959 16.5717 214.32 16.0007C213.681 15.4297 213.363 14.6605 213.368 13.6932C213.363 12.9006 213.574 12.2081 214.001 11.6158C214.431 11.0234 215.021 10.5611 215.771 10.2287C216.521 9.89631 217.373 9.73011 218.328 9.73011C219.3 9.73011 220.148 9.89631 220.872 10.2287C221.601 10.5611 222.167 11.0234 222.572 11.6158C222.977 12.2081 223.186 12.8942 223.199 13.674H220.546ZM224.239 23V9.90909H233.06V12.1911H227.007V15.3104H232.607V17.5923H227.007V20.718H233.086V23H224.239ZM234.261 23V9.90909H239.426C240.414 9.90909 241.258 10.0859 241.957 10.4396C242.66 10.7891 243.195 11.2855 243.561 11.929C243.932 12.5682 244.117 13.3203 244.117 14.1854C244.117 15.0547 243.93 15.8026 243.555 16.429C243.18 17.0511 242.637 17.5284 241.925 17.8608C241.218 18.1932 240.361 18.3594 239.355 18.3594H235.897V16.1349H238.908C239.436 16.1349 239.875 16.0625 240.225 15.9176C240.574 15.7727 240.834 15.5554 241.004 15.2656C241.179 14.9759 241.267 14.6158 241.267 14.1854C241.267 13.7507 241.179 13.3842 241.004 13.0859C240.834 12.7876 240.572 12.5618 240.218 12.4084C239.869 12.2507 239.428 12.1719 238.895 12.1719H237.029V23H234.261ZM241.33 17.0426L244.584 23H241.529L238.345 17.0426H241.33ZM247.087 9.90909L250.251 19.8551H250.372L253.543 9.90909H256.611L252.098 23H248.531L244.012 9.90909H247.087ZM259.954 9.90909V23H257.187V9.90909H259.954ZM272.782 14.4922H269.982C269.931 14.13 269.827 13.8082 269.669 13.527C269.511 13.2415 269.309 12.9986 269.062 12.7983C268.815 12.598 268.529 12.4446 268.205 12.3381C267.886 12.2315 267.538 12.1783 267.163 12.1783C266.486 12.1783 265.896 12.3466 265.393 12.6832C264.89 13.0156 264.5 13.5014 264.223 14.1406C263.946 14.7756 263.808 15.5469 263.808 16.4545C263.808 17.3878 263.946 18.1719 264.223 18.8068C264.504 19.4418 264.896 19.9212 265.399 20.245C265.902 20.5689 266.484 20.7308 267.144 20.7308C267.515 20.7308 267.858 20.6818 268.173 20.5838C268.493 20.4858 268.776 20.343 269.023 20.1555C269.271 19.9638 269.475 19.7315 269.637 19.4588C269.803 19.1861 269.918 18.875 269.982 18.5256L272.782 18.5384C272.71 19.1392 272.528 19.7188 272.239 20.277C271.953 20.831 271.567 21.3274 271.082 21.7663C270.6 22.201 270.025 22.5462 269.356 22.8018C268.691 23.0533 267.939 23.179 267.099 23.179C265.932 23.179 264.888 22.9148 263.967 22.3864C263.051 21.858 262.327 21.093 261.794 20.0916C261.266 19.0902 261.001 17.8778 261.001 16.4545C261.001 15.027 261.27 13.8125 261.807 12.8111C262.344 11.8097 263.072 11.0469 263.993 10.5227C264.913 9.99432 265.949 9.73011 267.099 9.73011C267.858 9.73011 268.561 9.83665 269.209 10.0497C269.861 10.2628 270.438 10.5739 270.941 10.983C271.444 11.3878 271.853 11.8842 272.168 12.4723C272.488 13.0604 272.692 13.7337 272.782 14.4922ZM273.767 23V9.90909H282.588V12.1911H276.534V15.3104H282.134V17.5923H276.534V20.718H282.613V23H273.767Z" fill="white"/>
<defs>
<linearGradient id="paint0_linear_0_1" x1="1.90584e-06" y1="6.49997" x2="306" y2="23.5" gradientUnits="userSpaceOnUse">
<stop stop-color="#F743DA"/>
<stop offset="1" stop-color="#D60AF8"/>
</linearGradient>
</defs>
</svg>
