<svg width="1898" height="1432" viewBox="0 0 1898 1432" fill="none" xmlns="http://www.w3.org/2000/svg">
<g opacity="0.15">
<path d="M553.666 802.133C515.849 839.808 511.387 901.713 545.918 924.257C616.963 970.651 845.979 856.587 847.744 807.911C849.482 759.955 632.575 723.503 553.666 802.133Z" stroke="url(#paint0_linear_131_3617)" stroke-miterlimit="10"/>
<path d="M628.6 618.548C716.766 541.065 945.175 797.275 893.091 894.346C861.069 954.034 759.516 983.002 674.56 996.337C594.806 1008.86 473.101 989.511 426.235 903.799C401.393 858.284 395.045 783.413 420.184 747.75C439.642 720.154 473.204 717.966 479.531 712.309C516.621 718.626 522.961 723.868 550.425 718.873C586.323 712.349 604.353 639.855 628.6 618.548Z" stroke="url(#paint1_linear_131_3617)" stroke-miterlimit="10"/>
<path d="M695.337 430.733C813.176 414.975 1030.96 829.172 930.241 976.55C866.094 1070.41 723.844 1087.83 621.617 1085.19C527.714 1082.77 360.048 1024.4 298.356 879.11C262.503 794.694 256.81 660.498 308.58 603.247C349.849 557.619 416.112 561.739 427.26 559.97C499.925 582.064 509.718 602.682 560.143 601.436C626.902 599.762 646.079 437.27 695.337 430.733Z" stroke="url(#paint2_linear_131_3617)" stroke-miterlimit="10"/>
<path d="M755.131 246.409C888.814 246.193 1109.73 864.19 960.445 1062.23C864.093 1190.04 681.209 1196.43 561.729 1177.53C453.645 1160.44 240.621 1062.81 163.532 857.901C117.034 734.328 111.559 541.257 190.02 462.227C253.064 398.708 352.248 407.337 368.021 411.117C478.299 437.582 489.488 484.99 562.946 487.467C660.542 490.851 685.128 246.569 755.131 246.409Z" stroke="url(#paint3_linear_131_3617)" stroke-miterlimit="10"/>
<path d="M810.863 70.9316C961.896 85.0533 1184.08 907.482 986.59 1156.78C857.784 1318.13 634.461 1314.05 497.794 1278.73C375.439 1247.13 117.288 1110.17 24.6038 845.551C-32.3681 682.892 -37.7835 430.929 67.3618 330.036C152.229 248.653 284.076 264.257 304.692 271.078C449.73 319.067 465.145 376.375 561.577 382.396C690.031 390.83 720.459 62.4892 810.863 70.9316Z" stroke="url(#paint4_linear_131_3617)" stroke-miterlimit="10"/>
<path d="M-58.76 201.119C47.8934 101.898 212.313 124.424 237.902 134.324C417.319 203.756 437.32 270.571 556.766 280.491C716.046 293.717 752.706 -119.629 863.04 -101.341C1032.52 -73.2446 1255.6 954.893 1009.18 1254.52C848.389 1450.03 584.094 1435 430.292 1383.13C293.703 1337.08 -9.42224 1160.74 -117.794 836.391C-185.186 634.641 -190.629 323.789 -58.76 201.119Z" stroke="url(#paint5_linear_131_3617)" stroke-miterlimit="10"/>
<path d="M1204.33 -348.648C1157.44 -333.008 1079.59 -418.148 1117.92 -450.078C1140.05 -468.534 1207.53 -474.712 1238.65 -455.003C1282.45 -427.278 1236.6 -359.4 1204.33 -348.648Z" stroke="url(#paint6_linear_131_3617)" stroke-miterlimit="10"/>
<path d="M1054.76 -412.594C1056.42 -428.198 1076.56 -441.825 1092.57 -465.654C1125.03 -514.009 1127.3 -532.441 1151.13 -563.069C1160.43 -575.03 1172.98 -590.863 1188.44 -590.932C1212.11 -591.031 1224.41 -560.345 1264.41 -512.631C1316.31 -450.603 1334.09 -436.075 1331.92 -392.965C1331.41 -382.939 1334.47 -352.096 1320.72 -327.896C1301.68 -294.423 1269.21 -303.998 1237.11 -275.114C1198.56 -240.458 1184.76 -197.694 1162.97 -206.97C1147.62 -213.5 1140.85 -243.559 1120.13 -292.815C1104.34 -330.339 1094.18 -355.032 1080.67 -373.369C1064.49 -395.173 1052.91 -395.245 1054.76 -412.594Z" stroke="url(#paint7_linear_131_3617)" stroke-miterlimit="10"/>
<path d="M989.327 -358.685C984.948 -383.82 1012.76 -406.314 1030.27 -450.86C1066.18 -542.235 1031.49 -586.699 1061.36 -654.711C1074.03 -683.581 1096.77 -715.156 1125.07 -720.325C1165.23 -727.653 1189.07 -680.408 1270.77 -596.145C1377.6 -485.976 1416.54 -470.619 1424.44 -394.988C1426.04 -379.571 1436.49 -321.858 1413.06 -276.864C1381.81 -216.859 1324.21 -241.761 1267.51 -185.2C1204.15 -122.055 1194.6 -30.511 1166.99 -39.2439C1147.81 -45.3082 1144.3 -95.1677 1112.12 -183.669C1089.28 -246.587 1075.63 -283.253 1050.87 -308.6C1019.63 -340.563 994.088 -331.391 989.327 -358.685Z" stroke="url(#paint8_linear_131_3617)" stroke-miterlimit="10"/>
<path d="M923.759 -305.071C913.252 -339.634 948.781 -371.097 967.837 -436.373C1007.07 -570.759 934.687 -640.233 971.441 -746.66C987.176 -792.201 1020.55 -839.602 1061.56 -850.013C1118.41 -864.448 1153.71 -801.051 1277.08 -679.981C1439.03 -522.049 1498.2 -504.822 1516.92 -397.339C1520.56 -376.377 1538.45 -291.968 1505.37 -226.121C1461.89 -139.621 1379.05 -179.894 1297.89 -95.5923C1209.65 -3.93339 1204.43 136.318 1170.94 128.206C1147.93 122.539 1147.45 53.0167 1104.04 -74.8118C1074.07 -163.094 1056.99 -211.559 1021 -244.116C974.605 -286.066 935.053 -267.833 923.759 -305.071Z" stroke="url(#paint9_linear_131_3617)" stroke-miterlimit="10"/>
<path d="M858.009 -251.479C841.424 -295.445 884.542 -335.904 905.223 -421.896C947.643 -599.313 837.518 -693.412 881.356 -838.623C900.085 -900.74 944.192 -964.015 997.885 -979.726C1071.46 -1001.24 1117.95 -921.341 1283.17 -763.813C1499.92 -557.64 1579.52 -538.708 1609.12 -399.668C1614.77 -373.15 1640.06 -262.114 1597.39 -175.365C1541.6 -62.4253 1433.65 -118.075 1327.99 -5.9582C1214.83 114.142 1213.97 303.221 1174.7 295.648C1147.87 290.42 1150.41 201.179 1095.79 34.0365C1058.65 -79.6139 1038.2 -139.825 990.954 -179.645C929.393 -231.505 875.846 -204.201 858.009 -251.479Z" stroke="url(#paint10_linear_131_3617)" stroke-miterlimit="10"/>
<path d="M792.122 -197.854C816.508 -140.509 884.023 -176.904 960.743 -115.131C1019.25 -68.0378 1043.06 3.89305 1087.37 142.924C1153.17 349.382 1147.63 458.344 1178.3 463.119C1223.39 470.149 1219.88 232.233 1357.98 83.6979C1488.08 -56.226 1621.36 14.923 1689.31 -124.587C1741.68 -232.151 1708.9 -369.778 1701.22 -401.988C1660.6 -572.495 1560.68 -593.211 1289.11 -847.621C1082.04 -1041.6 1024.38 -1138 934.039 -1109.4C867.677 -1088.39 812.811 -1009.2 791.102 -930.541C740.245 -746.455 888.286 -627.721 842.472 -407.385C820.267 -300.613 769.431 -251.199 792.122 -197.854Z" stroke="url(#paint11_linear_131_3617)" stroke-miterlimit="10"/>
<path d="M1592.08 584.5C1578.22 580.745 1555.78 604.944 1558.48 629.644C1561.56 657.662 1595.24 670.095 1606.53 658.725C1619.89 645.262 1610.48 589.454 1592.08 584.5Z" stroke="url(#paint12_linear_131_3617)" stroke-miterlimit="10"/>
<path d="M1656.47 716.786C1672.07 684.545 1671.6 635.416 1665.6 552.994C1659.65 471.268 1646.39 415.863 1636.48 414.927C1631.08 414.441 1620.66 436.415 1611.27 453.12C1593.68 484.327 1554.67 494.998 1545.34 500.936C1511.19 522.687 1504.18 543.61 1495.97 581.884C1492.17 599.566 1482.93 639.049 1484.06 681.363C1485.68 745.468 1440.55 780.967 1451.56 803.09C1460.78 821.543 1510.33 809.693 1541.92 799.404C1587.2 784.662 1632.35 766.587 1656.47 716.786Z" stroke="url(#paint13_linear_131_3617)" stroke-miterlimit="10"/>
<path d="M1706.56 771.709C1731.45 715.124 1729.27 635.327 1720.76 487.629C1712.43 339.14 1692.14 242.319 1681.02 242.287C1672.66 242.212 1654.71 285.826 1638.48 318.174C1607.91 379.351 1533.99 396.535 1519.72 404.705C1454.58 441.675 1444.57 479.845 1430.97 550.156C1425.31 579.44 1408.14 651.98 1409.69 730.113C1411.98 849.841 1318.03 913.82 1334.98 952.649C1349.13 984.976 1443.04 958.274 1500.84 935.267C1582.43 902.682 1664.51 867.352 1706.56 771.709Z" stroke="url(#paint14_linear_131_3617)" stroke-miterlimit="10"/>
<path d="M1756.36 826.261C1790.57 745.335 1786.52 634.87 1775.61 421.897C1764.75 206.658 1737.61 68.6052 1725.25 69.2001C1713.91 69.6959 1688.44 134.851 1665.43 182.888C1622.03 274.118 1513.07 297.701 1493.83 308.013C1397.6 359.611 1384.6 415.525 1365.71 517.98C1358.16 558.858 1333.08 664.459 1335.05 778.378C1338.03 953.734 1195.24 1046.17 1218.12 1101.72C1237.2 1147.92 1375.53 1106.57 1459.47 1070.62C1577.44 1020.58 1696.53 967.78 1756.36 826.261Z" stroke="url(#paint15_linear_131_3617)" stroke-miterlimit="10"/>
<path d="M1806.04 880.813C1849.61 775.535 1843.66 634.395 1830.36 356.147C1817.01 74.1714 1783.03 -105.078 1769.37 -103.908C1755.07 -102.718 1722.02 -16.227 1692.27 47.517C1635.87 168.681 1492.02 198.753 1467.82 211.3C1340.47 277.3 1324.32 351.138 1300.32 485.774C1290.83 538.239 1257.91 676.907 1260.3 826.619C1263.95 1057.6 1072.32 1178.5 1101.17 1250.77C1125.15 1310.82 1307.85 1254.59 1418 1205.96C1572.22 1138.12 1728.49 1068.23 1806.04 880.813Z" stroke="url(#paint16_linear_131_3617)" stroke-miterlimit="10"/>
<path d="M1441.76 114.565C1283.27 194.884 1264.3 286.832 1234.89 453.555C1223.58 517.653 1182.68 689.347 1185.49 874.841C1189.86 1161.45 949.355 1310.82 984.146 1399.81C1013.07 1473.8 1240.11 1402.57 1376.47 1341.28C1566.99 1255.6 1760.41 1168.67 1855.67 935.352C1908.59 805.709 1900.75 633.938 1885.05 290.385C1869.13 -58.3127 1828.32 -278.718 1813.43 -277.021C1796.15 -275.046 1755.56 -167.378 1719.05 -87.8795C1649.64 63.2084 1470.92 99.7926 1441.76 114.565Z" stroke="url(#paint17_linear_131_3617)" stroke-miterlimit="10"/>
<path d="M-20.2909 -65.5177C17.3338 19.7109 141.605 -69.3072 343.135 82.351C415.348 136.698 469.543 200.907 547.259 186.982C555.1 185.572 632.654 170.18 672.873 89.544C723.473 -11.8977 660.025 -106.505 706.566 -285.045C723.707 -350.813 731.865 -336.249 743.811 -387.571C794.785 -606.641 617.691 -750.065 657.25 -968.327C675.46 -1068.8 725.513 -1107.69 717.97 -1117.39C685.475 -1158.94 -121.817 -295.129 -20.2909 -65.5177Z" stroke="url(#paint18_linear_131_3617)" stroke-miterlimit="10"/>
<path d="M541.82 54.5923C546.212 52.2226 596.888 39.8582 621.806 -15.9403C653.329 -86.4162 606.683 -152.376 634.552 -272.775C644.802 -317.106 649.475 -307.659 656.143 -342.228C684.581 -489.74 558.681 -584.815 581.002 -727.311C591.327 -793.276 623.971 -818.846 617.519 -822.712C588.296 -840.411 60.133 -247.68 142.544 -97.5154C173.447 -41.196 266.556 -97.0986 406.379 -1.07864C457.213 33.8013 496.17 79.2139 541.82 54.5923Z" stroke="url(#paint19_linear_131_3617)" stroke-miterlimit="10"/>
<path d="M536.378 -77.8111C536.801 -82.4694 561.115 -90.7604 570.738 -121.425C583.239 -161.209 553.423 -198.176 562.54 -260.492C565.882 -283.366 567.092 -279.143 568.484 -296.889C574.435 -373.201 499.606 -419.457 504.761 -486.313C507.137 -517.763 521.59 -527.975 517.148 -528.079C488.144 -512.162 242.779 -200.073 305.328 -129.495C329.755 -101.914 391.836 -125.061 469.572 -84.4905C499.118 -69.0661 518.845 -57.114 536.378 -77.8111Z" stroke="url(#paint20_linear_131_3617)" stroke-miterlimit="10"/>
<path d="M530.939 -210.201C502.406 -264.904 435.142 -263.64 416.698 -233.405C389.51 -188.78 427.445 -155.981 468.132 -161.482C498.533 -165.64 563.592 -147.597 530.939 -210.201Z" stroke="url(#paint21_linear_131_3617)" stroke-miterlimit="10"/>
</g>
<defs>
<linearGradient id="paint0_linear_131_3617" x1="980.5" y1="-1515.27" x2="980.5" y2="1430.91" gradientUnits="userSpaceOnUse">
<stop stop-color="white"/>
<stop offset="1" stop-color="white" stop-opacity="0"/>
</linearGradient>
<linearGradient id="paint1_linear_131_3617" x1="980.5" y1="-1515.27" x2="980.5" y2="1430.91" gradientUnits="userSpaceOnUse">
<stop stop-color="white"/>
<stop offset="1" stop-color="white" stop-opacity="0"/>
</linearGradient>
<linearGradient id="paint2_linear_131_3617" x1="980.5" y1="-1515.27" x2="980.5" y2="1430.91" gradientUnits="userSpaceOnUse">
<stop stop-color="white"/>
<stop offset="1" stop-color="white" stop-opacity="0"/>
</linearGradient>
<linearGradient id="paint3_linear_131_3617" x1="980.5" y1="-1515.27" x2="980.5" y2="1430.91" gradientUnits="userSpaceOnUse">
<stop stop-color="white"/>
<stop offset="1" stop-color="white" stop-opacity="0"/>
</linearGradient>
<linearGradient id="paint4_linear_131_3617" x1="980.5" y1="-1515.27" x2="980.5" y2="1430.91" gradientUnits="userSpaceOnUse">
<stop stop-color="white"/>
<stop offset="1" stop-color="white" stop-opacity="0"/>
</linearGradient>
<linearGradient id="paint5_linear_131_3617" x1="980.5" y1="-1515.27" x2="980.5" y2="1430.91" gradientUnits="userSpaceOnUse">
<stop stop-color="white"/>
<stop offset="1" stop-color="white" stop-opacity="0"/>
</linearGradient>
<linearGradient id="paint6_linear_131_3617" x1="980.5" y1="-1515.27" x2="980.5" y2="1430.91" gradientUnits="userSpaceOnUse">
<stop stop-color="white"/>
<stop offset="1" stop-color="white" stop-opacity="0"/>
</linearGradient>
<linearGradient id="paint7_linear_131_3617" x1="980.5" y1="-1515.27" x2="980.5" y2="1430.91" gradientUnits="userSpaceOnUse">
<stop stop-color="white"/>
<stop offset="1" stop-color="white" stop-opacity="0"/>
</linearGradient>
<linearGradient id="paint8_linear_131_3617" x1="980.5" y1="-1515.27" x2="980.5" y2="1430.91" gradientUnits="userSpaceOnUse">
<stop stop-color="white"/>
<stop offset="1" stop-color="white" stop-opacity="0"/>
</linearGradient>
<linearGradient id="paint9_linear_131_3617" x1="980.5" y1="-1515.27" x2="980.5" y2="1430.91" gradientUnits="userSpaceOnUse">
<stop stop-color="white"/>
<stop offset="1" stop-color="white" stop-opacity="0"/>
</linearGradient>
<linearGradient id="paint10_linear_131_3617" x1="980.5" y1="-1515.27" x2="980.5" y2="1430.91" gradientUnits="userSpaceOnUse">
<stop stop-color="white"/>
<stop offset="1" stop-color="white" stop-opacity="0"/>
</linearGradient>
<linearGradient id="paint11_linear_131_3617" x1="980.5" y1="-1515.27" x2="980.5" y2="1430.91" gradientUnits="userSpaceOnUse">
<stop stop-color="white"/>
<stop offset="1" stop-color="white" stop-opacity="0"/>
</linearGradient>
<linearGradient id="paint12_linear_131_3617" x1="980.5" y1="-1515.27" x2="980.5" y2="1430.91" gradientUnits="userSpaceOnUse">
<stop stop-color="white"/>
<stop offset="1" stop-color="white" stop-opacity="0"/>
</linearGradient>
<linearGradient id="paint13_linear_131_3617" x1="980.5" y1="-1515.27" x2="980.5" y2="1430.91" gradientUnits="userSpaceOnUse">
<stop stop-color="white"/>
<stop offset="1" stop-color="white" stop-opacity="0"/>
</linearGradient>
<linearGradient id="paint14_linear_131_3617" x1="980.5" y1="-1515.27" x2="980.5" y2="1430.91" gradientUnits="userSpaceOnUse">
<stop stop-color="white"/>
<stop offset="1" stop-color="white" stop-opacity="0"/>
</linearGradient>
<linearGradient id="paint15_linear_131_3617" x1="980.5" y1="-1515.27" x2="980.5" y2="1430.91" gradientUnits="userSpaceOnUse">
<stop stop-color="white"/>
<stop offset="1" stop-color="white" stop-opacity="0"/>
</linearGradient>
<linearGradient id="paint16_linear_131_3617" x1="980.5" y1="-1515.27" x2="980.5" y2="1430.91" gradientUnits="userSpaceOnUse">
<stop stop-color="white"/>
<stop offset="1" stop-color="white" stop-opacity="0"/>
</linearGradient>
<linearGradient id="paint17_linear_131_3617" x1="980.5" y1="-1515.27" x2="980.5" y2="1430.91" gradientUnits="userSpaceOnUse">
<stop stop-color="white"/>
<stop offset="1" stop-color="white" stop-opacity="0"/>
</linearGradient>
<linearGradient id="paint18_linear_131_3617" x1="980.5" y1="-1515.27" x2="980.5" y2="1430.91" gradientUnits="userSpaceOnUse">
<stop stop-color="white"/>
<stop offset="1" stop-color="white" stop-opacity="0"/>
</linearGradient>
<linearGradient id="paint19_linear_131_3617" x1="980.5" y1="-1515.27" x2="980.5" y2="1430.91" gradientUnits="userSpaceOnUse">
<stop stop-color="white"/>
<stop offset="1" stop-color="white" stop-opacity="0"/>
</linearGradient>
<linearGradient id="paint20_linear_131_3617" x1="980.5" y1="-1515.27" x2="980.5" y2="1430.91" gradientUnits="userSpaceOnUse">
<stop stop-color="white"/>
<stop offset="1" stop-color="white" stop-opacity="0"/>
</linearGradient>
<linearGradient id="paint21_linear_131_3617" x1="980.5" y1="-1515.27" x2="980.5" y2="1430.91" gradientUnits="userSpaceOnUse">
<stop stop-color="white"/>
<stop offset="1" stop-color="white" stop-opacity="0"/>
</linearGradient>
</defs>
</svg>
