<svg width="220" height="47" viewBox="0 0 220 47" fill="none" xmlns="http://www.w3.org/2000/svg">
<path d="M0 23.5C0 10.5213 10.5213 0 23.5 0H196.5C209.479 0 220 10.5213 220 23.5C220 36.4787 209.479 47 196.5 47H23.5C10.5213 47 0 36.4787 0 23.5Z" fill="#1B181D" fill-opacity="0.5"/>
<path d="M67.2686 29.2373C68.7715 29.2373 70.0459 28.8594 71.1006 28.1035C72.1553 27.3477 72.8584 26.4248 73.2188 25.335L71.3291 24.8516C71.0654 25.5986 70.5645 26.2139 69.835 26.6973C69.1055 27.1807 68.2441 27.418 67.251 27.418C65.8975 27.418 64.7988 26.9609 63.9551 26.0381C63.1113 25.1152 62.6895 23.999 62.6895 22.6807C62.6895 21.3711 63.1113 20.2637 63.9551 19.3584C64.7988 18.4531 65.8975 18.0049 67.251 18.0049C68.2441 18.0049 69.1055 18.251 69.835 18.7432C70.5645 19.2354 71.0654 19.8506 71.3379 20.5977L73.2275 20.123C72.8672 19.0244 72.1553 18.0928 71.0918 17.3281C70.0283 16.5635 68.7363 16.1855 67.2246 16.1855C65.3525 16.1855 63.7969 16.8096 62.5488 18.0488C61.3008 19.2881 60.6768 20.8438 60.6768 22.707C60.6768 24.5703 61.3008 26.126 62.5576 27.3828C63.8145 28.6396 65.3789 29.2637 67.251 29.2637L67.2686 29.2373ZM79.0547 29.2373C80.4697 29.2373 81.5596 28.7012 82.3154 27.6289V29H84.1875V19.9473H82.3154V21.3184C81.5596 20.2461 80.4697 19.71 79.0547 19.71C77.7715 19.71 76.6992 20.167 75.8379 21.0723C74.9766 21.9775 74.5459 23.1113 74.5459 24.4648C74.5459 25.8271 74.9766 26.9609 75.8379 27.8662C76.6992 28.7715 77.7715 29.2285 79.0547 29.2285V29.2373ZM79.3623 27.5322C78.501 27.5322 77.7891 27.2422 77.2354 26.6621C76.6816 26.082 76.4004 25.3438 76.4004 24.4561C76.4004 23.5684 76.6729 22.8389 77.2266 22.2676C77.7803 21.6963 78.4834 21.4062 79.3447 21.4062C80.1797 21.4062 80.8828 21.6963 81.4629 22.2764C82.043 22.8564 82.333 23.5859 82.333 24.4648C82.333 25.3525 82.043 26.0908 81.4629 26.6709C80.8828 27.251 80.1709 27.541 79.3359 27.541L79.3623 27.5322ZM88.582 21.3887V19.9473H86.6924V29H88.582V24.9131C88.582 23.6299 88.8457 22.7246 89.3818 22.1885C89.918 21.6523 90.6826 21.459 91.6758 21.6084V19.8506C90.9551 19.7539 90.3223 19.8506 89.7861 20.1318C89.25 20.4131 88.8457 20.835 88.5732 21.3975L88.582 21.3887ZM100.017 15.8604V21.3184C99.2607 20.2461 98.1709 19.71 96.7559 19.71C95.4727 19.71 94.4004 20.167 93.5391 21.0723C92.6777 21.9775 92.2471 23.1113 92.2471 24.4648C92.2471 25.8271 92.6777 26.9609 93.5391 27.8662C94.4004 28.7715 95.4727 29.2285 96.7559 29.2285C98.1709 29.2197 99.2607 28.6836 100.017 27.6201V28.9912H101.889V15.8516L100.017 15.8604ZM97.0635 27.5322C96.2021 27.5322 95.4902 27.2422 94.9365 26.6621C94.3828 26.082 94.1016 25.3438 94.1016 24.4561C94.1016 23.5684 94.374 22.8389 94.9277 22.2676C95.4814 21.6963 96.1846 21.4062 97.0459 21.4062C97.8809 21.4062 98.584 21.6963 99.1641 22.2764C99.7441 22.8564 100.034 23.5859 100.034 24.4648C100.034 25.3525 99.7441 26.0908 99.1641 26.6709C98.584 27.251 97.8721 27.541 97.0371 27.541L97.0635 27.5322ZM114.677 16.3965H108.946V29H110.897V24.8428H114.58C115.916 24.8428 116.979 24.4209 117.762 23.5684C118.544 22.7158 118.939 21.7402 118.939 20.6328C118.939 19.5254 118.553 18.541 117.779 17.6797C117.006 16.8184 115.969 16.3877 114.677 16.3877V16.3965ZM114.545 23.0674H110.897V18.1543H114.642C115.336 18.1543 115.907 18.4004 116.364 18.8926C116.821 19.3848 117.05 19.9648 117.05 20.624C117.05 21.2832 116.821 21.8545 116.364 22.3379C115.907 22.8213 115.301 23.0674 114.545 23.0674ZM124.178 29.2373C125.593 29.2373 126.683 28.7012 127.438 27.6289V29H129.311V19.9473H127.438V21.3184C126.683 20.2461 125.593 19.71 124.178 19.71C122.895 19.71 121.822 20.167 120.961 21.0723C120.1 21.9775 119.669 23.1113 119.669 24.4648C119.669 25.8271 120.1 26.9609 120.961 27.8662C121.822 28.7715 122.895 29.2285 124.178 29.2285V29.2373ZM124.485 27.5322C123.624 27.5322 122.912 27.2422 122.358 26.6621C121.805 26.082 121.523 25.3438 121.523 24.4561C121.523 23.5684 121.796 22.8389 122.35 22.2676C122.903 21.6963 123.606 21.4062 124.468 21.4062C125.303 21.4062 126.006 21.6963 126.586 22.2764C127.166 22.8564 127.456 23.5859 127.456 24.4648C127.456 25.3525 127.166 26.0908 126.586 26.6709C126.006 27.251 125.294 27.541 124.459 27.541L124.485 27.5322ZM138.495 19.9473L135.691 26.6797L132.668 19.9473H130.611L134.751 28.7979L133.063 32.7793H135.006L140.517 19.9473H138.495ZM152.531 19.71C151.099 19.71 150.044 20.2285 149.358 21.2568C148.822 20.2285 147.891 19.71 146.572 19.71C145.359 19.71 144.41 20.2109 143.725 21.2041V19.9473H141.835V29H143.725V24.4297C143.725 23.5156 143.936 22.7949 144.349 22.2676C144.762 21.7402 145.333 21.4766 146.054 21.4766C146.695 21.4766 147.179 21.6963 147.513 22.127C147.847 22.5576 148.014 23.1641 148.014 23.9463V29H149.886V24.2627C149.886 23.4102 150.088 22.7334 150.492 22.2324C150.896 21.7314 151.45 21.4766 152.145 21.4766C152.821 21.4766 153.331 21.6963 153.674 22.127C154.017 22.5576 154.184 23.1641 154.184 23.9463V29H156.073V23.5859C156.073 22.373 155.748 21.4238 155.106 20.7383C154.465 20.0527 153.604 19.71 152.522 19.71H152.531ZM162.771 29.2373C163.852 29.2373 164.766 28.9824 165.513 28.4814C166.26 27.9805 166.796 27.374 167.121 26.6621L165.398 26.1523C164.933 27.1279 164.071 27.6113 162.823 27.6113C161.936 27.6113 161.224 27.374 160.696 26.9082C160.169 26.4424 159.879 25.8271 159.817 25.0625H167.174C167.218 24.79 167.235 24.5352 167.235 24.3066C167.235 22.9883 166.822 21.8984 165.996 21.0283C165.17 20.1582 164.045 19.7275 162.612 19.7275C161.232 19.7275 160.107 20.1846 159.246 21.0898C158.385 21.9951 157.954 23.1289 157.954 24.4912C157.954 25.9062 158.402 27.0576 159.299 27.9365C160.195 28.8154 161.355 29.2549 162.788 29.2549L162.771 29.2373ZM159.817 23.8145C159.888 23.1289 160.178 22.5488 160.688 22.0742C161.197 21.5996 161.839 21.3623 162.621 21.3623C163.43 21.3623 164.08 21.5908 164.563 22.0479C165.047 22.5049 165.319 23.0938 165.381 23.8145H159.817ZM174.161 19.71C172.834 19.71 171.797 20.2373 171.05 21.292V19.9473H169.16V29H171.05V24.5C171.05 23.5859 171.287 22.8564 171.762 22.3027C172.236 21.749 172.869 21.4766 173.66 21.4766C174.39 21.4766 174.943 21.7051 175.321 22.1533C175.699 22.6016 175.884 23.2256 175.884 24.0254V28.9912H177.756V23.6826C177.756 22.4434 177.448 21.4678 176.824 20.7559C176.2 20.0439 175.312 19.6924 174.161 19.6924V19.71ZM185.271 27.1631C184.875 27.3564 184.479 27.4531 184.084 27.4531C183.214 27.4531 182.783 26.9873 182.783 26.0645V21.6172H185.666V19.9473H182.783V16.9238H180.911V19.9473H179.259V21.6172H180.911V26.0645C180.911 27.0225 181.148 27.7783 181.614 28.3232C182.08 28.8682 182.792 29.1406 183.741 29.1406C184.383 29.1406 185.051 29 185.736 28.71L185.271 27.1631ZM190.948 29.2373C192.047 29.2373 192.952 28.9648 193.664 28.4199C194.376 27.875 194.736 27.1982 194.736 26.3809C194.736 25.6865 194.525 25.1592 194.104 24.79C193.682 24.4209 193.102 24.1309 192.354 23.9111L189.946 23.2168C189.296 23.0146 188.971 22.7158 188.971 22.3203C188.971 22.0303 189.12 21.7754 189.419 21.5557C189.718 21.3359 190.096 21.2217 190.553 21.2217C191.089 21.2217 191.555 21.3447 191.95 21.5908C192.346 21.8369 192.636 22.1357 192.82 22.4961L194.49 22.0039C194.218 21.3271 193.734 20.7734 193.04 20.3516C192.346 19.9297 191.52 19.7188 190.57 19.7188C189.612 19.7188 188.795 19.9736 188.118 20.4922C187.441 21.0107 187.107 21.626 187.107 22.3467C187.107 23.4629 187.828 24.2363 189.27 24.667L191.704 25.3877C192.117 25.5107 192.416 25.6514 192.601 25.8096C192.785 25.9678 192.873 26.1875 192.873 26.46C192.873 26.8027 192.697 27.0928 192.346 27.3301C191.994 27.5674 191.537 27.6904 190.975 27.6904C190.351 27.6904 189.797 27.5322 189.322 27.207C188.848 26.8818 188.522 26.4775 188.355 25.9854L186.642 26.4863C186.879 27.251 187.389 27.9014 188.18 28.4375C188.971 28.9736 189.876 29.2461 190.904 29.2461L190.948 29.2373Z" fill="white"/>
<path d="M46 19.5499C46 20.2099 45.46 20.7499 44.8 20.7499H27.2C26.54 20.7499 26 20.2099 26 19.5499V19.5399C26 17.2499 27.85 15.3999 30.14 15.3999H41.85C44.14 15.3999 46 17.2599 46 19.5499Z" fill="white"/>
<path d="M26 23.45V28.46C26 30.75 27.85 32.6 30.14 32.6H41.85C44.14 32.6 46 30.74 46 28.45V23.45C46 22.79 45.46 22.25 44.8 22.25H27.2C26.54 22.25 26 22.79 26 23.45ZM32 29.25H30C29.59 29.25 29.25 28.91 29.25 28.5C29.25 28.09 29.59 27.75 30 27.75H32C32.41 27.75 32.75 28.09 32.75 28.5C32.75 28.91 32.41 29.25 32 29.25ZM38.5 29.25H34.5C34.09 29.25 33.75 28.91 33.75 28.5C33.75 28.09 34.09 27.75 34.5 27.75H38.5C38.91 27.75 39.25 28.09 39.25 28.5C39.25 28.91 38.91 29.25 38.5 29.25Z" fill="white"/>
</svg>
