<svg width="63" height="63" viewBox="0 0 63 63" fill="none" xmlns="http://www.w3.org/2000/svg">
<rect width="63" height="63" rx="31.5" fill="#FA47D8"/>
<path opacity="0.4" d="M22.5972 35.2566L27.7478 40.4123C29.8626 42.5292 33.2963 42.5292 35.4225 40.4123L40.4139 35.4159C42.5287 33.299 42.5287 29.8619 40.4139 27.7336L35.2519 22.5892C34.1718 21.508 32.6823 20.9276 31.1588 21.0072L25.4738 21.2804C23.1998 21.3828 21.392 23.1925 21.2783 25.4573L21.0054 31.148C20.9372 32.6844 21.5171 34.1754 22.5972 35.2566Z" fill="white"/>
<path d="M28.5 32C30.433 32 32 30.433 32 28.5C32 26.567 30.433 25 28.5 25C26.567 25 25 26.567 25 28.5C25 30.433 26.567 32 28.5 32Z" fill="white"/>
</svg>
